<?xml version="1.0" encoding="UTF-8" standalone="no"?>
<!-- Created with Inkscape (http://www.inkscape.org/) -->

<svg
   width="179.17857mm"
   height="50.924999mm"
   viewBox="10 9 179.17857 50.924999"
   version="1.1"
   id="svg1"
   xml:space="preserve"
   inkscape:version="1.4.2 (ebf0e940, 2025-05-08)"
   sodipodi:docname="cuebert-name.svg"
   xmlns:inkscape="http://www.inkscape.org/namespaces/inkscape"
   xmlns:sodipodi="http://sodipodi.sourceforge.net/DTD/sodipodi-0.dtd"
   xmlns="http://www.w3.org/2000/svg"
   xmlns:svg="http://www.w3.org/2000/svg"><sodipodi:namedview
     id="namedview1"
     pagecolor="#ffffff"
     bordercolor="#000000"
     borderopacity="0.25"
     inkscape:showpageshadow="2"
     inkscape:pageopacity="0.0"
     inkscape:pagecheckerboard="0"
     inkscape:deskcolor="#d1d1d1"
     inkscape:document-units="mm"
     inkscape:zoom="0.33585157"
     inkscape:cx="360.2782"
     inkscape:cy="-208.42541"
     inkscape:window-width="1712"
     inkscape:window-height="969"
     inkscape:window-x="0"
     inkscape:window-y="39"
     inkscape:window-maximized="0"
     inkscape:current-layer="layer1" /><defs
     id="defs1" /><g
     inkscape:label="Layer 1"
     inkscape:groupmode="layer"
     id="layer1"
     transform="translate(-9.0904283,-203.33511)"><g
       id="g5"
       transform="matrix(0.910706,0,0,0.910706,18.811507,32.162279)"><path
         id="path4"
         style="font-weight:500;font-size:33.585px;line-height:2.7;font-family:'CooperFiveOpti Black';-inkscape-font-specification:'CooperFiveOpti Black,  Medium';letter-spacing:1.29246px;baseline-shift:baseline;display:inline;overflow:visible;vector-effect:none;fill:#ffffff;stroke:#000000;stroke-linecap:round;stroke-opacity:1;enable-background:accumulate;stop-color:#000000"
         d="m 30.685547,203.84766 c -9.322068,0.3403 -18.104607,7.20885 -20.363257,16.31309 -2.3254972,8.38858 1.048781,18.03374 8.162085,23.07753 6.396211,4.73263 15.295592,5.61399 22.586816,2.51471 0.996256,-0.39524 1.971562,-0.84624 2.911231,-1.36237 3.797984,3.31211 9.350284,4.09341 14.099609,2.6836 0.800557,0.10374 1.568884,0.4526 2.394291,0.48387 3.438776,0.41067 6.89594,-0.3471 10.178145,-1.3161 0.796661,-0.27854 1.581063,-0.59943 2.326002,-0.99785 5.688302,3.25174 12.98096,3.27632 18.80664,0.35547 2.274676,1.18436 5.006908,1.47439 7.47461,0.76953 6.198931,2.53663 13.641061,1.4938 19.025391,-2.44336 5.78823,4.46955 14.12871,4.96133 20.61719,1.75586 3.3807,1.75767 7.30128,1.82111 11.02368,1.85773 3.91472,-0.11766 8.092,-1.02976 10.99713,-3.82874 0.34173,-0.33971 0.68637,0.55475 1.06015,0.67914 3.43338,2.85176 8.14498,3.87475 12.50508,3.14043 5.07499,-0.7413 10.04041,-3.69797 12.36486,-8.38351 1.53587,-3.37263 1.07227,-7.49083 -0.96262,-10.55489 3.16722,-4.47524 2.20644,-11.35543 -2.2207,-14.65625 -0.78898,-0.61521 -1.68537,-1.0808 -2.61329,-1.44727 -2.11431,-3.92076 -7.00061,-6.05977 -11.31917,-4.96077 -3.04399,0.57758 -5.5192,2.56027 -7.98942,4.2889 -0.40916,0.28181 -0.89901,-0.24655 -1.3557,-0.27434 -2.29343,-0.70516 -4.78143,-0.80925 -7.11305,-0.22566 -3.56763,-0.85253 -7.20552,0.19706 -10.66515,1.04682 -1.0438,0.31639 -2.06406,0.71562 -3.03993,1.20318 -5.8116,-3.4711 -13.5777,-3.33454 -19.24805,0.37109 -2.05789,-1.54345 -4.54512,-2.44103 -7.07226,-2.83789 -1.07916,-3.59663 -4.39648,-6.45027 -8.17566,-6.7474 -3.46378,-0.40654 -6.931852,0.42561 -10.222965,1.43208 -3.134708,1.10179 -6.154892,2.89422 -8.105282,5.6454 -4.496233,-0.9775 -9.327809,-0.0476 -13.273437,2.20508 -2.573947,-2.0384 -6.019444,-2.56471 -9.208206,-2.17965 -1.904339,0.0695 -3.820377,0.21036 -5.672654,0.68355 -2.672445,-1.06156 -5.614325,-0.7571 -8.398437,-0.42969 -1.845221,-3.59367 -5.231956,-6.71811 -9.380781,-7.15915 -1.120647,-0.15649 -2.250237,0.19904 -3.350891,0.14435 -2.197654,-0.63631 -4.495232,-0.92475 -6.782,-0.84652 z m 63.191406,17.33203 c 0.436509,0.74413 -0.786576,0.43428 -1.190973,0.61297 -0.308401,-0.53617 0.655301,-1.22559 1.097157,-0.6832 l 0.08006,0.0599 z m -11.25,3.17773 c 0.632184,-0.0269 0.576268,1.1049 0.06082,1.09251 -0.50057,-0.0553 -0.53221,-0.9669 -0.06082,-1.09251 z m 47.287107,0.0547 c 0.5822,0.0995 0.46404,1.37066 -0.17383,0.96875 -0.26509,-0.24255 -0.23818,-0.92032 0.17383,-0.96875 z" /><text
         xml:space="preserve"
         style="font-style:normal;font-variant:normal;font-weight:500;font-stretch:normal;font-size:33.585px;line-height:2.7;font-family:'CooperFiveOpti Black';-inkscape-font-specification:'CooperFiveOpti Black,  Medium';text-align:start;letter-spacing:1.29246px;writing-mode:lr-tb;direction:ltr;text-anchor:start;fill:#ffd900;fill-opacity:1;stroke:#a82002;stroke-width:4.88212;stroke-linecap:round;stroke-opacity:1"
         x="16.324856"
         y="238.55635"
         id="text2"><tspan
           sodipodi:role="line"
           id="tspan2"
           style="line-height:2.7;letter-spacing:1.29246px;fill:#ffd900;fill-opacity:1;stroke:#a82002;stroke-width:4.88212;stroke-opacity:1"
           x="16.324856"
           y="238.55635"
           dx="0 -2.0113113 -1.3408743 -2.0113113 -1.3408743 -1.3408743 -0.67043716">Cuebert</tspan></text><text
         xml:space="preserve"
         style="font-style:normal;font-variant:normal;font-weight:500;font-stretch:normal;font-size:33.585px;line-height:2.7;font-family:'CooperFiveOpti Black';-inkscape-font-specification:'CooperFiveOpti Black,  Medium';text-align:start;letter-spacing:1.29246px;writing-mode:lr-tb;direction:ltr;text-anchor:start;fill:#ffd900;fill-opacity:1;stroke:none;stroke-width:4.88212;stroke-linecap:round;stroke-opacity:1"
         x="16.324856"
         y="238.55635"
         id="text3"><tspan
           sodipodi:role="line"
           id="tspan3"
           style="line-height:2.7;letter-spacing:1.29246px;fill:#ffd900;fill-opacity:1;stroke:none;stroke-width:4.88212;stroke-opacity:1"
           x="16.324856"
           y="238.55635"
           dx="0 -2.0113113 -1.3408743 -2.0113113 -1.3408743 -1.3408743 -0.67043716">Cuebert</tspan></text></g></g></svg>
