<?xml version="1.0" encoding="UTF-8" standalone="no"?>
<!-- Created with Inkscape (http://www.inkscape.org/) -->

<svg
   width="48"
   height="48"
   viewBox="0 0 12.7 12.7"
   version="1.1"
   id="svg1"
   inkscape:version="1.4.2 (ebf0e940, 2025-05-08)"
   sodipodi:docname="favicon.svg"
   xmlns:inkscape="http://www.inkscape.org/namespaces/inkscape"
   xmlns:sodipodi="http://sodipodi.sourceforge.net/DTD/sodipodi-0.dtd"
   xmlns="http://www.w3.org/2000/svg"
   xmlns:svg="http://www.w3.org/2000/svg">
  <sodipodi:namedview
     id="namedview1"
     pagecolor="#ffffff"
     bordercolor="#000000"
     borderopacity="0.25"
     inkscape:showpageshadow="2"
     inkscape:pageopacity="0.0"
     inkscape:pagecheckerboard="0"
     inkscape:deskcolor="#d1d1d1"
     inkscape:document-units="mm"
     inkscape:zoom="7.8229167"
     inkscape:cx="24.031957"
     inkscape:cy="15.786951"
     inkscape:window-width="1712"
     inkscape:window-height="970"
     inkscape:window-x="0"
     inkscape:window-y="39"
     inkscape:window-maximized="1"
     inkscape:current-layer="layer1" />
  <defs
     id="defs1" />
  <g
     inkscape:label="Layer 1"
     inkscape:groupmode="layer"
     id="layer1"
     transform="translate(51.858334,-71.702083)">
    <g
       id="g4"
       transform="matrix(0.69574115,0,0,1.5323623,-15.492406,-39.502827)">
      <path
         style="fill:#ffffff;fill-opacity:1;fill-rule:nonzero;stroke:none;stroke-width:0.0644511"
         d="m -34.682155,76.467276 c 0,1.981371 -1.063445,3.995973 -8.281977,3.888723 -3.091138,0.04557 -5.988169,-0.178752 -7.351965,-1.544814 -0.134442,-0.134694 -0.435801,0.491943 -0.564703,1.19285 -0.555892,-1.00705 -0.07251,-1.981874 -0.06571,-2.174975 -0.142246,-0.387463 -0.206697,-0.831572 -0.181521,-1.340132 0.301108,-2.084089 2.599698,-3.673969 8.1425,-3.609518 5.886456,-0.12865 8.303376,1.606496 8.303376,3.587866"
         id="path1" />
      <path
         style="fill:none;stroke:#211e1e;stroke-width:0.128902;stroke-linecap:butt;stroke-linejoin:miter;stroke-miterlimit:4;stroke-opacity:1"
         d="m -34.682155,76.467276 c 0,1.981371 -1.063445,3.995973 -8.281977,3.888723 -3.091138,0.04557 -5.988168,-0.178752 -7.351965,-1.544814 -0.134442,-0.134694 -0.435801,0.491943 -0.564703,1.19285 -0.555892,-1.00705 -0.07251,-1.981874 -0.06571,-2.174975 -0.142246,-0.387463 -0.206697,-0.831572 -0.181521,-1.340132 0.301108,-2.084089 2.599698,-3.673969 8.1425,-3.609518 5.886456,-0.12865 8.303376,1.606496 8.303376,3.587866 z m 0,0"
         id="path2" />
    </g>
    <path
       style="fill:#211e1e;fill-opacity:1;fill-rule:nonzero;stroke:none;stroke-width:0.0989524"
       d="m -47.052794,74.937798 c 0,0 -3.842171,0.161422 -3.184652,4.022277 0.977187,2.345251 2.270984,1.9039 3.08235,1.932332 0,0 2.502761,-0.633102 1.488476,-3.367551 -1.428072,-2.064822 -3.664268,-0.60899 -3.234532,0.941735 0.22842,1.344076 2.38058,1.954277 2.356278,-0.08617 0,0 -0.05386,-0.927765 -0.905047,-0.764893 -0.851186,0.162871 -0.540522,0.724974 -0.540522,0.724974 0,0 0.100235,0.370315 0.435046,0.227707 0.135089,-0.235247 0.145621,-0.352116 0.145621,-0.352116 0,0 0.306633,-0.04699 0.334392,0.124391 0.02769,0.171391 0.04583,0.624639 -0.312466,0.721957 -0.358279,0.0974 -0.973741,0.128267 -1.006546,-1.033239 0.303767,-0.974087 0.998633,-0.883989 0.998633,-0.883989 0,0 0.647189,-0.165621 1.276398,1.04577 0.544256,1.282204 -0.942593,1.874788 -1.135199,1.92027 -0.19261,0.04549 -1.581823,0.513334 -2.339946,-1.620724 -0.08449,-2.026237 0.962367,-2.167798 1.084449,-2.226016 0.121709,-0.05812 1.395819,-0.456698 1.777695,-0.2927 -0.102688,-0.865399 -0.32043,-1.034008 -0.32043,-1.034008"
       id="path3" />
    <g
       id="g2"
       transform="matrix(1.149564,-0.10298212,0.10298212,1.149564,-2.0946759,-12.540549)">
      <path
         style="fill:#211e1e;fill-opacity:1;fill-rule:nonzero;stroke:none;stroke-width:0.0644511"
         d="m -41.954312,77.44059 c 0,0 -0.122357,-1.495469 -0.05161,-1.55992 0.0065,-0.07729 0.05816,-0.161128 0.05816,-0.161128 0,0 1.069739,-0.212487 1.101964,-0.908611 0.03223,-0.696123 -0.637966,-0.534995 -0.637966,-0.534995 0,0 -0.328801,0.08384 -0.322256,0.644512 -0.06445,0.431773 -0.599446,0.219034 -0.638217,0.135448 -0.03852,-0.08384 -0.386707,-0.850956 0.941088,-1.295569 0,0 0.870091,-0.167422 1.231118,0.7928 0,0 0.102971,0.483384 -0.05161,0.734643 -0.154833,0.25151 -0.283735,0.618831 -1.050604,0.857251 0.01939,0.341641 -0.01938,1.282729 -0.01938,1.282729 0,0 -0.270645,0.07075 -0.560675,0.01284"
         id="path11" />
      <path
         style="fill:#211e1e;fill-opacity:1;fill-rule:nonzero;stroke:none;stroke-width:0.0644511"
         d="m -41.344916,78.12438 c 0,0.249245 -0.184038,0.451158 -0.410876,0.451158 -0.226838,0 -0.410876,-0.201913 -0.410876,-0.451158 0,-0.249245 0.184038,-0.451158 0.410876,-0.451158 0.226838,0 0.410876,0.201913 0.410876,0.451158"
         id="path4" />
    </g>
    <g
       id="g5"
       transform="matrix(1.3885862,0.07337487,-0.07337487,1.3885862,24.221789,-24.273605)">
      <path
         style="fill:#211e1e;fill-opacity:1;fill-rule:nonzero;stroke:none;stroke-width:0.0644511"
         d="m -45.616404,76.82366 -0.108761,-3.073516 0.04028,-0.193353 c 0,0 0.414904,-0.600202 0.793555,0.03223 0,0.07251 -0.004,0.136959 -0.004,0.136959 l -0.3142,3.117826 -0.406848,-0.02014"
         id="path5" />
      <path
         style="fill:#211e1e;fill-opacity:1;fill-rule:nonzero;stroke:none;stroke-width:0.0644511"
         d="m -44.992464,77.500335 c 0,0.268882 -0.171702,0.486657 -0.383434,0.486657 -0.211984,0 -0.428751,-0.211229 -0.428751,-0.480111 0,-0.268631 0.216767,-0.492951 0.428751,-0.492951 0.211732,0 0.383434,0.217774 0.383434,0.486405"
         id="path114" />
    </g>
  </g>
</svg>
