<?xml version="1.0" encoding="UTF-8" standalone="no"?>
<!-- Created with Inkscape (http://www.inkscape.org/) -->

<svg
   width="1024"
   height="1024"
   id="svg2"
   version="1.1"
   inkscape:version="1.4.2 (ebf0e940, 2025-05-08)"
   sodipodi:docname="cuebert-2.svg"
   inkscape:export-filename="/home/adam/logo_stuff/dragonfly/icon/AppIconTemplate/AppIconTemplate_white_on_reg.png"
   inkscape:export-xdpi="300"
   inkscape:export-ydpi="300"
   xml:space="preserve"
   xmlns:inkscape="http://www.inkscape.org/namespaces/inkscape"
   xmlns:sodipodi="http://sodipodi.sourceforge.net/DTD/sodipodi-0.dtd"
   xmlns:xlink="http://www.w3.org/1999/xlink"
   xmlns="http://www.w3.org/2000/svg"
   xmlns:svg="http://www.w3.org/2000/svg"
   xmlns:rdf="http://www.w3.org/1999/02/22-rdf-syntax-ns#"
   xmlns:cc="http://creativecommons.org/ns#"
   xmlns:dc="http://purl.org/dc/elements/1.1/"><defs
     id="defs4"><linearGradient
       id="linearGradient3902"><stop
         style="stop-color:#ffffff;stop-opacity:1;"
         offset="0"
         id="stop3904" /><stop
         style="stop-color:#fff9f9;stop-opacity:0.72868216;"
         offset="1"
         id="stop3906" /></linearGradient><linearGradient
       id="linearGradient4110"><stop
         style="stop-color:#86a8a8;stop-opacity:0.69803923;"
         offset="0"
         id="stop4112" /><stop
         style="stop-color:#ffffff;stop-opacity:1;"
         offset="1"
         id="stop4114" /></linearGradient><inkscape:perspective
       sodipodi:type="inkscape:persp3d"
       inkscape:vp_x="-1018.799 : 1355.2208 : 1"
       inkscape:vp_y="0 : 1971.1104 : 0"
       inkscape:vp_z="966.66748 : 1433.6212 : 1"
       inkscape:persp3d-origin="-233.90998 : 1118.9963 : 1"
       id="perspective4094" /><linearGradient
       id="linearGradient4483"><stop
         style="stop-color:#056aff;stop-opacity:1;"
         offset="0"
         id="stop4485" /><stop
         style="stop-color:#ffffff;stop-opacity:0;"
         offset="1"
         id="stop4487" /></linearGradient><linearGradient
       inkscape:collect="always"
       xlink:href="#linearGradient4110"
       id="linearGradient4116"
       x1="537.46191"
       y1="621.09766"
       x2="372.2811"
       y2="-270.99075"
       gradientUnits="userSpaceOnUse"
       gradientTransform="matrix(1,0,0,1.001095,6.1962891e-7,-3.4627221e-5)" /><linearGradient
       inkscape:collect="always"
       xlink:href="#linearGradient3902"
       id="linearGradient3908"
       x1="509.1376"
       y1="513.90118"
       x2="467.15973"
       y2="1029.1136"
       gradientUnits="userSpaceOnUse"
       gradientTransform="matrix(1.2524295,0,0,1.2524296,-146.91309,-129.30104)" /><linearGradient
       id="linearGradient116"
       inkscape:collect="always"><stop
         style="stop-color:#e0e0e0;stop-opacity:0.9215017;"
         offset="0.51073164"
         id="stop119" /><stop
         style="stop-color:#86a8a8;stop-opacity:0.69795221;"
         offset="1"
         id="stop117" /></linearGradient><radialGradient
       inkscape:collect="always"
       xlink:href="#linearGradient116"
       id="radialGradient117"
       cx="512"
       cy="512"
       fx="512"
       fy="512"
       r="512"
       gradientUnits="userSpaceOnUse"
       gradientTransform="matrix(1.0888544,0.26460712,-0.2772061,1.1406988,96.436066,-207.51661)" /></defs><sodipodi:namedview
     id="base"
     pagecolor="#ffffff"
     bordercolor="#666666"
     borderopacity="1.0"
     inkscape:pageopacity="0.0"
     inkscape:pageshadow="2"
     inkscape:zoom="0.22627418"
     inkscape:cx="764.55917"
     inkscape:cy="143.63106"
     inkscape:document-units="px"
     inkscape:current-layer="layer5"
     showgrid="false"
     showguides="false"
     inkscape:guide-bbox="true"
     fit-margin-top="0"
     fit-margin-left="0"
     fit-margin-right="0"
     fit-margin-bottom="0"
     inkscape:window-width="1712"
     inkscape:window-height="972"
     inkscape:window-x="0"
     inkscape:window-y="39"
     inkscape:window-maximized="1"
     inkscape:showpageshadow="false"
     borderlayer="true"
     showborder="false"
     inkscape:snap-global="false"
     inkscape:snap-page="false"
     inkscape:snap-bbox="true"
     inkscape:pagecheckerboard="0"
     inkscape:deskcolor="#d1d1d1"><sodipodi:guide
       orientation="0,1"
       position="-10.429825,956.71547"
       id="guide3101"
       inkscape:locked="false" /><sodipodi:guide
       orientation="1,0"
       position="956.5625,59.8125"
       id="guide3103"
       inkscape:locked="false" /><sodipodi:guide
       orientation="0,1"
       position="1246.875,315.625"
       id="guide3105"
       inkscape:locked="false" /><sodipodi:guide
       orientation="1,0"
       position="67.351921,64.523494"
       id="guide3107"
       inkscape:locked="false" /><sodipodi:guide
       orientation="0,1"
       position="961.5,67.5"
       id="guide3109"
       inkscape:locked="false" /><sodipodi:guide
       orientation="1,0"
       position="319.08193,67.707547"
       id="guide3111"
       inkscape:locked="false" /><sodipodi:guide
       orientation="1,0"
       position="511.68014,67.707547"
       id="guide3113"
       inkscape:locked="false" /><sodipodi:guide
       orientation="1,0"
       position="706.1875,64.734375"
       id="guide3115"
       inkscape:locked="false" /><sodipodi:guide
       orientation="0,1"
       position="-21.213203,1024"
       id="guide3117"
       inkscape:locked="false" /><sodipodi:guide
       orientation="0,1"
       position="0,0"
       id="guide3119"
       inkscape:locked="false" /><sodipodi:guide
       orientation="1,0"
       position="0,1042.6289"
       id="guide3121"
       inkscape:locked="false" /><sodipodi:guide
       orientation="0,1"
       position="-6.8942911,705"
       id="guide3123"
       inkscape:locked="false" /><sodipodi:guide
       orientation="1,0"
       position="1024,1037.75"
       id="guide3125"
       inkscape:locked="false" /><sodipodi:guide
       orientation="0,1"
       position="-27.223611,512.65241"
       id="guide3127"
       inkscape:locked="false" /><inkscape:grid
       type="xygrid"
       id="grid4235"
       empspacing="5"
       visible="false"
       enabled="true"
       snapvisiblegridlinesonly="true"
       originx="0"
       originy="0"
       spacingy="1"
       spacingx="1"
       units="px" /><sodipodi:guide
       orientation="1,0"
       position="511.68014,430.8932"
       id="guide4003"
       inkscape:locked="false" /></sodipodi:namedview><metadata
     id="metadata7"><rdf:RDF><cc:Work
         rdf:about=""><dc:format>image/svg+xml</dc:format><dc:type
           rdf:resource="http://purl.org/dc/dcmitype/StillImage" /><dc:title /></cc:Work></rdf:RDF></metadata><g
     inkscape:groupmode="layer"
     id="layer5"
     inkscape:label="Background"
     style="display:inline"><rect
       style="fill:#ffffff;fill-opacity:1;stroke-width:13.3313;stroke-linecap:round"
       id="rect119"
       width="1024"
       height="1024"
       x="4.2632564e-14"
       y="5.6843419e-14" /><rect
       style="color:#000000;display:inline;overflow:visible;visibility:visible;fill:url(#linearGradient4116);fill-opacity:1;fill-rule:nonzero;stroke:none;stroke-width:2;marker:none;enable-background:accumulate"
       id="rect4108"
       width="1024"
       height="1024"
       x="0"
       y="3.1583717e-05" /><rect
       style="fill:url(#radialGradient117);fill-opacity:1;stroke-width:13.3313;stroke-linecap:round"
       id="rect116"
       width="1024"
       height="1024"
       x="0"
       y="0" /><g
       id="g115"
       transform="translate(5.6342166,-15.494096)"><path
         style="fill:#ffffff;fill-opacity:1;fill-rule:nonzero;stroke:none;stroke-width:3.40479"
         d="m 952.35735,275.62389 c 0,104.67081 -56.17909,211.0972 -437.51597,205.43142 -163.2971,2.40729 -316.33992,-9.44299 -388.38586,-81.60865 -7.1022,-7.1155 -23.02227,25.98815 -29.831853,63.01528 C 67.257322,409.26204 92.793274,357.76453 93.152378,347.56347 85.637896,327.0948 82.233103,303.63363 83.563083,276.7677 99.46987,166.67049 220.89863,82.681151 513.71088,86.085944 824.67759,79.28966 952.35735,170.95308 952.35735,275.62389"
         id="path1" /><path
         style="fill:none;stroke:#211e1e;stroke-width:6.80959;stroke-linecap:butt;stroke-linejoin:miter;stroke-miterlimit:4;stroke-opacity:1"
         d="m 952.35735,275.62389 c 0,104.67081 -56.17909,211.0972 -437.51597,205.43142 -163.2971,2.40729 -316.33989,-9.44299 -388.38586,-81.60865 -7.1022,-7.1155 -23.02227,25.98815 -29.831853,63.01528 C 67.257322,409.26204 92.793274,357.76453 93.152378,347.56347 85.637896,327.0948 82.233103,303.63363 83.563083,276.7677 99.46987,166.67049 220.89863,82.681147 513.71088,86.085941 824.67759,79.289666 952.35735,170.95308 952.35735,275.62389 Z m 0,0"
         id="path2" /><path
         style="fill:#211e1e;fill-opacity:1;fill-rule:nonzero;stroke:none;stroke-width:3.40479"
         d="m 277.07773,178.02868 c 0,0 -129.94075,-24.97736 -138.45273,109.51199 14.17776,86.26364 60.99367,81.71504 87.93941,89.08322 0,0 88.81725,-1.40979 76.47487,-101 -31.49434,-80.43825 -117.89098,-49.36951 -115.76298,5.95839 -2.9792,46.81591 64.26548,84.26864 79.58705,15.74717 0,0 5.53279,-31.49434 -24.25916,-32.77114 -29.79194,-1.2768 -23.83355,20.00316 -23.83355,20.00316 0,0 0.4256,13.19358 12.76797,11.06558 6.38399,-6.80959 7.66079,-10.63998 7.66079,-10.63998 0,0 10.63998,0.8512 10.21438,6.80959 -0.4256,5.95839 -3.40479,21.27996 -16.17277,21.70556 -12.76798,0.4256 -33.62234,-3.4048 -25.53595,-42.55992 17.87516,-30.21755 40.43192,-21.70556 40.43192,-21.70556 0,0 22.98236,-0.4256 34.47354,45.11351 8.08638,47.24151 -46.39032,55.3279 -53.1999,55.3279 -6.80959,0 -57.0303,4.68159 -65.54228,-72.77746 13.19358,-68.52147 49.36951,-64.98369 53.91811,-65.96788 4.53529,-0.98419 50.35369,-4.25599 61.84487,4.25599 3.4048,-29.79194 -2.55359,-37.16012 -2.55359,-37.16012"
         id="path3" /><path
         style="fill:#211e1e;fill-opacity:1;fill-rule:nonzero;stroke:none;stroke-width:3.40479"
         d="m 321.12725,328.39819 -5.74559,-162.3661 2.12799,-10.21438 c 0,0 21.91836,-31.70714 41.92152,1.7024 0,3.83039 -0.2128,7.23519 -0.2128,7.23519 L 342.62,329.46219 l -21.49275,-1.064"
         id="path5-7" /><path
         style="fill:#211e1e;fill-opacity:1;fill-rule:nonzero;stroke:none;stroke-width:3.40479"
         d="m 376.10935,359.89253 43.6771,-196.06824 c 0,0 20.72137,0.8512 28.66145,5.67909 -6.53029,20.70806 -26.10785,79.16146 -46.24401,195.77564 -13.61917,0.5719 -26.09454,-5.38649 -26.09454,-5.38649"
         id="path6" /><path
         style="fill:#211e1e;fill-opacity:1;fill-rule:nonzero;stroke:none;stroke-width:3.40479"
         d="m 437.39564,372.66051 c 0,0 43.69041,-198.04994 47.3745,-198.90113 3.68409,-0.8512 27.23835,7.66078 27.23835,9.64247 0,1.99501 -50.7793,192.66345 -46.24401,193.51465 4.53528,0.8512 -28.36884,-3.11219 -28.36884,-4.25599"
         id="path7" /><path
         style="fill:#211e1e;fill-opacity:1;fill-rule:nonzero;stroke:none;stroke-width:3.40479"
         d="m 365.30975,290.94546 c 0,0 123.15779,21.83855 154.08023,37.16012 7.66078,-22.41045 7.94008,-30.64314 7.94008,-30.64314 0,0 -151.79261,-36.88083 -158.8815,-32.34554 -2.8462,12.76798 -3.13881,25.82856 -3.13881,25.82856"
         id="path8" /><path
         style="fill:#211e1e;fill-opacity:1;fill-rule:nonzero;stroke:none;stroke-width:3.40479"
         d="m 373.55576,236.17615 c 0,0 127.66644,13.06059 155.75599,29.79195 11.35819,-15.32157 8.51198,-27.23835 8.51198,-27.23835 0,0 -92.20872,-27.79694 -162.00699,-30.92244 -7.66078,16.45207 -2.26098,28.36884 -2.26098,28.36884"
         id="path9" /><path
         style="fill:#211e1e;fill-opacity:1;fill-rule:nonzero;stroke:none;stroke-width:3.40479"
         d="m 568.18758,327.04158 c 0,0 -6.4638,-79.00183 -2.72649,-82.40662 0.34579,-4.0831 3.07228,-8.51199 3.07228,-8.51199 0,0 56.51161,-11.22519 58.214,-47.99962 1.7024,-36.77443 -33.70214,-28.26244 -33.70214,-28.26244 0,0 -17.36976,4.42888 -17.02397,34.04793 -3.40479,22.80946 -31.66723,11.57099 -33.71542,7.15538 -2.03491,-4.42889 -20.42876,-44.9539 49.7153,-68.44166 0,0 45.96471,-8.84448 65.03687,41.88161 0,0 5.4397,25.53596 -2.7265,38.80934 -8.17947,13.28666 -14.98905,32.69133 -55.50079,45.28641 1.0241,18.04806 -1.02409,67.76336 -1.02409,67.76336 0,0 -14.29748,3.73731 -29.61905,0.6783"
         id="path11" /><path
         style="fill:#211e1e;fill-opacity:1;fill-rule:nonzero;stroke:none;stroke-width:3.40479"
         d="m 655.35561,370.95811 c 0,0 47.99962,13.27338 87.83305,2.04819 39.84671,-11.23848 73.89464,-44.60811 78.65604,-103.84621 -0.6783,-61.63207 -40.51173,-85.81142 -79.33434,-85.46563 -38.80934,0.34579 -76.60786,20.42876 -80.69096,62.98868 -4.08309,42.55992 4.42889,79.33435 61.96459,83.41745 57.54898,4.08309 61.63208,-62.31038 61.63208,-62.31038 0,0 4.08309,-42.89243 -45.28641,-46.97553 -49.36951,-4.09638 -45.96472,40.16594 -45.96472,40.16594 0,0 -1.70239,35.41782 30.98894,36.44192 32.67805,1.01081 30.64314,-27.58414 30.64314,-27.58414 0,0 0,-17.36976 -19.41795,-22.47695 -15.65408,0 -8.84449,13.28666 -8.84449,13.28666 0,0 16.67817,17.70227 -2.04819,19.05888 -18.72637,1.36988 -15.99987,-23.14198 -15.99987,-23.14198 0,0 6.13128,-23.83355 27.91665,-20.42876 21.79864,3.40479 24.51186,8.8445 29.96484,31.65396 5.45298,22.82274 -24.85765,44.26231 -43.23823,43.9298 -15.32157,-3.07228 -42.55992,-1.70239 -43.58401,-51.7502 -1.02409,-50.06109 59.92968,-54.4767 59.92968,-54.4767 0,0 52.7743,-2.39398 57.88149,63.66698 5.10719,66.04769 -62.31038,76.26207 -72.87055,76.26207 -32.67805,1.36988 -55.8333,-8.1662 -62.31038,-13.27339 -5.10719,4.0831 -9.5228,39.15513 -7.8204,38.80934"
         id="path12" /><path
         style="fill:#211e1e;fill-opacity:1;fill-rule:nonzero;stroke:none;stroke-width:3.40479"
         d="m 851.80954,365.50513 c 0,14.20435 -9.07057,25.70885 -20.25586,25.70885 -11.19857,0 -22.64985,-11.1587 -22.64985,-25.36306 0,-14.19108 11.45128,-26.04136 22.64985,-26.04136 11.18529,0 20.25586,11.50449 20.25586,25.69557"
         id="path13" /><path
         style="fill:#211e1e;fill-opacity:1;fill-rule:nonzero;stroke:none;stroke-width:3.40479"
         d="m 827.97599,326.69579 11.57098,-138.57244 3.4048,-5.78549 c 0,0 24.17934,-34.04793 42.22741,6.46379 -0.34579,3.75059 -0.69159,8.1662 -0.69159,8.1662 0,0 -36.76114,134.15683 -38.46354,134.15683 -1.7024,0 -18.04806,-2.04819 -18.04806,-4.42889"
         id="path14" /><path
         style="fill:#211e1e;fill-opacity:1;fill-rule:nonzero;stroke:none;stroke-width:3.40479"
         d="m 600.38048,363.1645 c 0,13.16699 -9.72228,23.83356 -21.70556,23.83356 -11.98327,0 -21.70556,-10.66657 -21.70556,-23.83356 0,-13.16698 9.72229,-23.83355 21.70556,-23.83355 11.98328,0 21.70556,10.66657 21.70556,23.83355"
         id="path4" /><path
         style="fill:#211e1e;fill-opacity:1;fill-rule:nonzero;stroke:none;stroke-width:3.40479"
         d="m 354.08842,364.14524 c 0,14.20435 -9.07057,25.70885 -20.25586,25.70885 -11.19857,0 -22.64985,-11.1587 -22.64985,-25.36306 0,-14.19108 11.45128,-26.04136 22.64985,-26.04136 11.18529,0 20.25586,11.50449 20.25586,25.69557"
         id="path114" /></g><g
       id="g116"
       transform="translate(8.4513249,-12.676987)"><path
         style="fill:#4cacac;fill-opacity:1;fill-rule:nonzero;stroke:none;stroke-width:2.39542"
         d="m 311.00986,623.98141 c 0.10006,-0.98099 -9.48644,-16.53672 -0.95964,-37.83827 l -5.75784,12.05219 c 0,0 4.15844,-44.84535 11.19581,-50.7313 7.03736,-5.88596 -7.67713,8.12822 -7.67713,8.12822 0,0 1.91928,-31.11147 12.47533,-34.75515 10.55605,-3.64369 -6.3976,2.52255 -6.3976,2.52255 0,0 10.87593,-43.72422 64.93569,-81.28221 -1.91928,-0.84085 -3.83856,0.28029 -3.83856,0.28029 0,0 51.18085,-35.87629 86.0478,-42.04252 -0.31988,2.24227 -3.19881,4.48453 -4.47833,5.32538 -1.27952,0.84085 16.3139,-14.57474 63.97606,-10.37048 0,1.96198 -3.51868,3.3634 -3.51868,3.3634 0,0 31.34827,-10.37049 59.81761,8.68879 1.27952,1.12113 -11.19581,2.24226 -11.19581,2.24226 0,0 38.38564,1.6817 41.90432,9.24936 -11.83557,0 -15.67413,3.08312 -15.67413,3.08312 0,0 24.3109,1.6817 34.22719,17.65785 -4.79821,-1.12113 -10.55605,-0.56056 -10.55605,-0.56056 0,0 30.06874,13.73389 39.02539,28.58891 -3.83856,-2.24227 -12.15545,-2.24227 -12.15545,-2.24227 0,0 26.86994,28.02835 24.3109,29.42977 -2.55904,1.40141 -15.35425,-5.32539 -15.35425,-5.32539 0,0 19.83258,36.71713 15.03437,36.43685 -4.7982,-0.28028 -4.15844,-2.52255 -4.15844,-2.52255 0,0 21.75186,49.61017 17.27353,49.89045 -4.47832,0.28029 -5.75784,-2.52255 -5.75784,-2.52255 0,0 12.47533,35.03544 12.15545,45.12564 -0.31988,10.09021 -6.71749,-5.88595 -6.71749,-5.88595 0,0 7.03737,21.86211 4.15845,23.26353 -2.87893,1.40141 -2.87893,-1.6817 -2.87893,-1.6817 0,0 3.83857,15.97615 2.23917,17.65785 -1.5994,1.6817 -6.07773,-0.84085 -6.07773,-0.84085 0,0 9.59641,17.37758 0.95964,30.27062 -3.51868,-0.28029 -3.51868,-3.08312 -3.51868,-3.08312 0,0 0.31988,21.58183 -2.87892,25.50579 -3.19881,3.92397 -3.51869,-7.00708 -3.51869,-7.00708 0,0 0.31988,31.95231 -9.59641,33.35373 -1.91928,-1.40142 -1.91928,-4.20425 -1.91928,-4.20425 0,0 -1.91928,32.51288 -16.95365,33.07345 -0.95964,-2.52256 0.31988,-5.04511 0.31988,-5.04511 0,0 -19.19282,30.83118 -25.59042,29.42977 -0.63977,-1.12114 0,-2.52255 0,-2.52255 0,0 -17.27354,21.58182 -21.75186,20.46069 -4.47833,-1.12114 -21.1121,16.81701 -51.18085,19.90012 0,0 -45.74288,58.01868 31.02839,88.00901 45.10312,23.26353 -15.03438,28.30863 -13.43497,22.42268 -7.35725,7.84794 -39.5652,25.50579 -52.14049,19.05927 -24.95066,47.74454 -92.12552,14.57474 -30.48858,-12.79668 0,0 -26.13023,9.99385 -25.49047,27.09114 -23.03138,7.28737 -46.70252,-17.09729 -6.71749,-28.8692 0,0 -12.79521,1.12114 -22.39162,15.13531 -9.27653,2.52255 -15.35425,-29.71005 30.06875,-25.78608 0,0 35.18683,-22.14239 65.25558,-16.81701 -19.5127,-14.01417 -22.07174,-28.86919 -20.79222,-35.59599 0.31988,-2.52256 -2.55904,5.32538 -3.51868,5.32538 0,0 -6.23767,-29.28962 1.75934,-37.69812 1.11958,-3.78383 -3.19881,2.80283 -3.19881,2.80283 0,0 3.51869,-18.35857 13.43498,-24.24452 -3.51869,2.24227 -5.75785,4.76482 -5.75785,4.76482 0,0 -44.78324,-0.56057 -53.57995,-6.30638 -4.7982,-1.6817 1.11958,1.6817 0.15994,2.66269 -0.47982,0.70071 -42.22419,-14.29445 -49.26156,-26.06636 -5.59791,-3.64368 -0.7997,1.54156 -2.87892,1.6817 -2.07923,0.14014 -17.59342,-18.35856 -18.55306,-18.35856 -0.95964,0 -1.27952,2.94297 -1.91928,3.22326 -0.63976,0.28028 -13.91479,-13.73389 -11.99551,-19.19942 2.71898,-4.90496 18.55305,-19.90013 20.47234,-22.14239 -23.51121,21.86211 -31.82809,38.9594 -32.94767,40.6411 -0.31988,1.54156 1.75934,0.98099 2.23916,2.10212 0.47982,1.12114 -6.55755,17.23744 -8.63677,18.91914 -2.07922,1.6817 -1.27952,0.14014 -1.27952,0.14014 0,0 -0.95964,13.17332 -32.46785,14.29446 -17.75336,-1.40142 -18.713,-6.16624 -21.43198,-7.7078 -2.71898,-1.54156 2.07922,2.10213 0.15994,3.08312 -1.91928,0.98099 -27.5097,-6.40273 -29.90881,-16.53673 -3.24878,-1.16492 2.55905,5.46553 -0.15994,3.92397 -2.71898,-1.54156 -25.16058,-19.57605 -25.43048,-34.75515 -1.11958,-7.52386 -0.7997,4.76482 -0.7997,4.76482 0,0 -19.99252,-37.55798 4.47832,-61.52222 0.31988,-1.6817 0.63977,-2.24227 0.63977,-2.24227 0,0 36.78623,-32.37274 35.50671,-32.51288 -1.27952,-0.14014 -4.47833,1.54156 -5.27803,0.84085 -0.7997,-0.70071 40.94468,-45.26578 43.18384,-45.12563 2.07922,-0.84085 1.97927,-0.14015 2.07922,-1.12114"
         id="path15" /><path
         style="fill:#f3a142;fill-opacity:1;fill-rule:nonzero;stroke:none;stroke-width:2.39542"
         d="m 451.43731,817.93757 c 0,0 -21.43198,23.26353 3.51868,58.85952 15.99402,1.12114 15.03438,2.38241 16.3139,3.64369 4.31838,-0.56057 39.98503,18.77899 -5.11809,19.61984 -14.07473,1.40142 -16.31389,20.18041 -58.53809,15.69588 -20.47234,35.31571 -67.81462,23.26352 -39.66516,-7.56766 0,0 -8.58679,6.89323 -8.90667,19.50598 -7.03736,11.77191 -56.98867,-1.28755 -16.04399,-23.99051 -9.17657,5.7896 -8.47683,4.86117 -13.80483,10.65077 -17.59341,3.78383 -4.42834,-33.07345 28.83921,-21.02126 16.47383,-7.56765 47.98204,-19.61984 62.69653,-15.13531 -0.37986,-0.28028 0.99961,0.97223 0.63976,0.70071 -8.24692,-6.16624 -14.31464,-10.86098 -12.47533,-22.00225 -1.43946,-1.12113 -2.3991,4.62468 -3.51868,3.64368 -1.11958,-0.98099 -3.19881,-22.14239 3.1988,-30.55089 -0.47982,-1.40142 -3.03886,2.52255 -3.1988,1.6817 -0.15994,-0.84085 1.91928,-17.09729 12.47533,-24.66495 16.63377,7.28737 21.1121,11.49162 33.58743,10.93106"
         id="path16" /><path
         style="fill:#f3a142;fill-opacity:1;fill-rule:nonzero;stroke:none;stroke-width:2.39542"
         d="m 451.43731,817.93757 c 0,0 -21.43198,23.26353 3.51868,58.85952 15.99402,1.12114 15.03438,2.38241 16.3139,3.64369 4.31838,-0.56057 39.98503,18.77899 -5.11809,19.61984 -14.07473,1.40142 -16.31389,20.18041 -58.53809,15.69588 -20.47234,35.31571 -67.81462,23.26352 -39.66516,-7.56766 0,0 -8.58679,6.89323 -8.90667,19.50598 -7.03736,11.77191 -56.98867,-1.28755 -16.04399,-23.99051 -9.17657,5.7896 -8.47683,4.86117 -13.80483,10.65077 -17.59341,3.78383 -4.42834,-33.07345 28.83921,-21.02126 16.47383,-7.56765 47.98204,-19.61984 62.69653,-15.13531 -0.37986,-0.28028 0.99961,0.97223 0.63976,0.70071 -8.24692,-6.16624 -14.31464,-10.86098 -12.47533,-22.00225 -1.43946,-1.12113 -2.3991,4.62468 -3.51868,3.64368 -1.11958,-0.98099 -3.19881,-22.14239 3.1988,-30.55089 -0.47982,-1.40142 -3.03886,2.52255 -3.1988,1.6817 -0.15994,-0.84085 1.91928,-17.09729 12.47533,-24.66495 16.63377,7.28737 21.1121,11.49162 33.58743,10.93106"
         id="path17" /><path
         style="fill:#4cacac;fill-opacity:1;fill-rule:nonzero;stroke:none;stroke-width:2.39542"
         d="m 451.43731,817.93757 c 0,0 -21.43198,23.26353 3.51868,58.85952 15.99402,1.12114 15.03438,2.38241 16.3139,3.64369 4.31838,-0.56057 39.98503,18.77899 -5.11809,19.61984 -14.07473,1.40142 -16.31389,20.18041 -58.53809,15.69588 -20.47234,35.31571 -67.81462,23.26352 -39.66516,-7.56766 0,0 -8.58679,6.89323 -8.90667,19.50598 -7.03736,11.77191 -56.98867,-1.28755 -16.04399,-23.99051 -9.17657,5.7896 -8.47683,4.86117 -13.80483,10.65077 -17.59341,3.78383 -4.42834,-33.07345 28.83921,-21.02126 16.47383,-7.56765 47.98204,-19.61984 62.69653,-15.13531 -0.37986,-0.28028 0.99961,0.97223 0.63976,0.70071 -8.24692,-6.16624 -14.31464,-10.86098 -12.47533,-22.00225 -1.43946,-1.12113 -2.3991,4.62468 -3.51868,3.64368 -1.11958,-0.98099 -3.19881,-22.14239 3.1988,-30.55089 -0.47982,-1.40142 -3.03886,2.52255 -3.1988,1.6817 -0.15994,-0.84085 1.91928,-17.09729 12.47533,-24.66495 16.63377,7.28737 21.1121,11.49162 33.58743,10.93106"
         id="path18" /><path
         style="fill:none;stroke:#211e1e;stroke-width:2.39542;stroke-linecap:butt;stroke-linejoin:miter;stroke-miterlimit:4;stroke-opacity:1"
         d="m 451.43731,817.93757 c 0,0 -21.43198,23.26353 3.51868,58.85952 15.99402,1.12114 15.03438,2.38241 16.3139,3.64369 4.31838,-0.56057 39.98503,18.77899 -5.11809,19.61984 -14.07473,1.40142 -16.31389,20.18041 -58.53809,15.69588 -20.47234,35.31571 -67.81462,23.26352 -39.66516,-7.56766 0,0 -8.58679,6.89323 -8.90667,19.50598 -7.03736,11.77191 -56.98867,-1.28755 -16.04399,-23.99051 -9.17657,5.7896 -8.47683,4.86117 -13.80483,10.65077 -17.59341,3.78383 -4.42834,-33.07345 28.83921,-21.02126 16.47383,-7.56765 47.98204,-19.61984 62.69653,-15.13531 -0.37986,-0.28028 0.99964,0.97223 0.63976,0.70071 -8.24692,-6.16624 -14.31464,-10.86098 -12.47533,-22.00225 -1.43946,-1.12113 -2.3991,4.62468 -3.51868,3.64368 -1.11958,-0.98099 -3.19881,-22.14239 3.1988,-30.55089 -0.47982,-1.40142 -3.03886,2.52255 -3.1988,1.6817 -0.15994,-0.84085 1.91928,-17.09729 12.47533,-24.66495 16.63377,7.28737 21.1121,11.49162 33.58743,10.93106 z m 0,0"
         id="path19" /><path
         style="fill:none;stroke:#211e1e;stroke-width:2.39542;stroke-linecap:butt;stroke-linejoin:miter;stroke-miterlimit:4;stroke-opacity:1"
         d="m 311.00986,623.98141 c 0.10006,-0.98099 -9.48644,-16.53672 -0.95964,-37.83827 l -5.75784,12.05219 c 0,0 4.15844,-44.84535 11.19581,-50.7313 7.03736,-5.88596 -7.67713,8.12822 -7.67713,8.12822 0,0 1.91928,-31.11147 12.47533,-34.75515 10.55605,-3.64369 -6.3976,2.52255 -6.3976,2.52255 0,0 10.87593,-43.72422 64.93569,-81.28221 -1.91928,-0.84085 -3.83856,0.28029 -3.83856,0.28029 0,0 51.18085,-35.87629 86.0478,-42.04252 -0.31988,2.24227 -3.19881,4.48453 -4.47833,5.32538 -1.27952,0.84085 16.3139,-14.57474 63.97606,-10.37048 0,1.96198 -3.51868,3.3634 -3.51868,3.3634 0,0 31.34827,-10.37049 59.81761,8.68879 1.27952,1.12113 -11.19581,2.24226 -11.19581,2.24226 0,0 38.38564,1.6817 41.90432,9.24936 -11.83557,0 -15.67413,3.08312 -15.67413,3.08312 0,0 24.3109,1.6817 34.22719,17.65785 -4.79821,-1.12113 -10.55605,-0.56056 -10.55605,-0.56056 0,0 30.06874,13.73389 39.02539,28.58891 -3.83856,-2.24227 -12.15545,-2.24227 -12.15545,-2.24227 0,0 26.86994,28.02835 24.3109,29.42977 -2.55904,1.40141 -15.35425,-5.32539 -15.35425,-5.32539 0,0 19.83258,36.71713 15.03437,36.43685 -4.7982,-0.28028 -4.15844,-2.52255 -4.15844,-2.52255 0,0 21.75186,49.61017 17.27353,49.89045 -4.47832,0.28029 -5.75784,-2.52255 -5.75784,-2.52255 0,0 12.47533,35.03544 12.15545,45.12564 -0.31988,10.09021 -6.71749,-5.88595 -6.71749,-5.88595 0,0 7.03737,21.86211 4.15845,23.26353 -2.87893,1.40141 -2.87893,-1.6817 -2.87893,-1.6817 0,0 3.83857,15.97615 2.23917,17.65785 -1.5994,1.6817 -6.07773,-0.84085 -6.07773,-0.84085 0,0 9.59641,17.37758 0.95964,30.27062 -3.51868,-0.28029 -3.51868,-3.08312 -3.51868,-3.08312 0,0 0.31988,21.58183 -2.87892,25.50579 -3.19881,3.92397 -3.51869,-7.00708 -3.51869,-7.00708 0,0 0.31988,31.95231 -9.59641,33.35373 -1.91928,-1.40142 -1.91928,-4.20425 -1.91928,-4.20425 0,0 -1.91928,32.51288 -16.95365,33.07345 -0.95964,-2.52256 0.31988,-5.04511 0.31988,-5.04511 0,0 -19.19282,30.83118 -25.59042,29.42977 -0.63977,-1.12114 0,-2.52255 0,-2.52255 0,0 -17.27354,21.58182 -21.75186,20.46069 -4.47833,-1.12114 -21.1121,16.81701 -51.18085,19.90012 0,0 -45.74288,58.01868 31.02839,88.00901 45.10312,23.26353 -15.03438,28.30863 -13.43497,22.42268 -7.35725,7.84794 -39.5652,25.50579 -52.14049,19.05927 -24.95066,47.74454 -92.12552,14.57474 -30.48858,-12.79668 0,0 -26.13023,9.99385 -25.49047,27.09114 -23.03138,7.28737 -46.70252,-17.09729 -6.71749,-28.8692 0,0 -12.79521,1.12114 -22.39162,15.13531 -9.27653,2.52255 -15.35425,-29.71005 30.06875,-25.78608 0,0 35.18683,-22.14239 65.25558,-16.81701 -19.5127,-14.01417 -22.07174,-28.86919 -20.79222,-35.59599 0.31988,-2.52256 -2.55904,5.32538 -3.51868,5.32538 0,0 -6.23767,-29.28962 1.75934,-37.69812 1.11958,-3.78383 -3.19881,2.80283 -3.19881,2.80283 0,0 3.51869,-18.35857 13.43498,-24.24452 -3.51869,2.24227 -5.75785,4.76482 -5.75785,4.76482 0,0 -44.78324,-0.56057 -53.57995,-6.30638 -4.7982,-1.6817 1.11958,1.6817 0.15994,2.66269 -0.47982,0.70071 -42.22419,-14.29445 -49.26156,-26.06636 -5.59791,-3.64368 -0.7997,1.54156 -2.87892,1.6817 -2.07923,0.14014 -17.59342,-18.35856 -18.55306,-18.35856 -0.95964,0 -1.27952,2.94297 -1.91928,3.22326 -0.63976,0.28028 -13.91479,-13.73389 -11.99551,-19.19942 2.71898,-4.90496 18.55305,-19.90013 20.47234,-22.14239 -23.51121,21.86211 -31.82809,38.9594 -32.94767,40.6411 -0.31988,1.54156 1.75934,0.98099 2.23916,2.10212 0.47982,1.12114 -6.55755,17.23744 -8.63677,18.91914 -2.07922,1.6817 -1.27952,0.14014 -1.27952,0.14014 0,0 -0.95964,13.17332 -32.46785,14.29446 -17.75336,-1.40142 -18.713,-6.16624 -21.43198,-7.7078 -2.71898,-1.54156 2.07922,2.10213 0.15994,3.08312 -1.91928,0.98099 -27.5097,-6.40273 -29.90881,-16.53673 -3.24878,-1.16492 2.55905,5.46553 -0.15994,3.92397 -2.71898,-1.54156 -25.16058,-19.57605 -25.43048,-34.75515 -1.11958,-7.52386 -0.7997,4.76482 -0.7997,4.76482 0,0 -19.99252,-37.55798 4.47832,-61.52222 0.31988,-1.6817 0.63977,-2.24227 0.63977,-2.24227 0,0 36.78623,-32.37274 35.50671,-32.51288 -1.27952,-0.14014 -4.47833,1.54156 -5.27803,0.84085 -0.7997,-0.70071 40.94468,-45.26578 43.18384,-45.12563 2.07922,-0.84085 1.97927,-0.14015 2.07922,-1.12114 z m 0,0"
         id="path20" /><path
         style="fill:none;stroke:#211e1e;stroke-width:2.39542;stroke-linecap:butt;stroke-linejoin:miter;stroke-miterlimit:4;stroke-opacity:1"
         d="m 451.43731,817.93757 c 0,0 -21.43198,23.26353 3.51868,58.85952 15.99402,1.12114 15.03438,2.38241 16.3139,3.64369 4.31838,-0.56057 39.98503,18.77899 -5.11809,19.61984 -14.07473,1.40142 -16.31389,20.18041 -58.53809,15.69588 -20.47234,35.31571 -67.81462,23.26352 -39.66516,-7.56766 0,0 -8.58679,6.89323 -8.90667,19.50598 -7.03736,11.77191 -56.98867,-1.28755 -16.04399,-23.99051 -9.17657,5.7896 -8.47683,4.86117 -13.80483,10.65077 -17.59341,3.78383 -4.42834,-33.07345 28.83921,-21.02126 16.47383,-7.56765 47.98204,-19.61984 62.69653,-15.13531 -0.37986,-0.28028 0.99964,0.97223 0.63976,0.70071 -8.24692,-6.16624 -14.31464,-10.86098 -12.47533,-22.00225 -1.43946,-1.12113 -2.3991,4.62468 -3.51868,3.64368 -1.11958,-0.98099 -3.19881,-22.14239 3.1988,-30.55089 -0.47982,-1.40142 -3.03886,2.52255 -3.1988,1.6817 -0.15994,-0.84085 1.91928,-17.09729 12.47533,-24.66495 16.63377,7.28737 21.1121,11.49162 33.58743,10.93106 z m 0,0"
         id="path21" /><path
         style="fill:none;stroke:#211e1e;stroke-width:2.39542;stroke-linecap:butt;stroke-linejoin:miter;stroke-miterlimit:4;stroke-opacity:1"
         d="m 451.43731,817.93757 c 0,0 -21.43198,23.26353 3.51868,58.85952 15.99402,1.12114 15.03438,2.38241 16.3139,3.64369 4.31838,-0.56057 39.98503,18.77899 -5.11809,19.61984 -14.07473,1.40142 -16.31389,20.18041 -58.53809,15.69588 -20.47234,35.31571 -67.81462,23.26352 -39.66516,-7.56766 0,0 -8.58679,6.89323 -8.90667,19.50598 -7.03736,11.77191 -56.98867,-1.28755 -16.04399,-23.99051 -9.17657,5.7896 -8.47683,4.86117 -13.80483,10.65077 -17.59341,3.78383 -4.42834,-33.07345 28.83921,-21.02126 16.47383,-7.56765 47.98204,-19.61984 62.69653,-15.13531 -0.37986,-0.28028 0.99964,0.97223 0.63976,0.70071 -8.24692,-6.16624 -14.31464,-10.86098 -12.47533,-22.00225 -1.43946,-1.12113 -2.3991,4.62468 -3.51868,3.64368 -1.11958,-0.98099 -3.19881,-22.14239 3.1988,-30.55089 -0.47982,-1.40142 -3.03886,2.52255 -3.1988,1.6817 -0.15994,-0.84085 1.91928,-17.09729 12.47533,-24.66495 16.63377,7.28737 21.1121,11.49162 33.58743,10.93106 z m 0,0"
         id="path22" /><path
         style="fill:none;stroke:#211e1e;stroke-width:2.39542;stroke-linecap:butt;stroke-linejoin:miter;stroke-miterlimit:4;stroke-opacity:1"
         d="m 451.43731,817.93757 c 0,0 -21.43198,23.26353 3.51868,58.85952 15.99402,1.12114 15.03438,2.38241 16.3139,3.64369 4.31838,-0.56057 39.98503,18.77899 -5.11809,19.61984 -14.07473,1.40142 -16.31389,20.18041 -58.53809,15.69588 -20.47234,35.31571 -67.81462,23.26352 -39.66516,-7.56766 0,0 -8.58679,6.89323 -8.90667,19.50598 -7.03736,11.77191 -56.98867,-1.28755 -16.04399,-23.99051 -9.17657,5.7896 -8.47683,4.86117 -13.80483,10.65077 -17.59341,3.78383 -4.42834,-33.07345 28.83921,-21.02126 16.47383,-7.56765 47.98204,-19.61984 62.69653,-15.13531 -0.37986,-0.28028 0.99964,0.97223 0.63976,0.70071 -8.24692,-6.16624 -14.31464,-10.86098 -12.47533,-22.00225 -1.43946,-1.12113 -2.3991,4.62468 -3.51868,3.64368 -1.11958,-0.98099 -3.19881,-22.14239 3.1988,-30.55089 -0.47982,-1.40142 -3.03886,2.52255 -3.1988,1.6817 -0.15994,-0.84085 1.91928,-17.09729 12.47533,-24.66495 16.63377,7.28737 21.1121,11.49162 33.58743,10.93106 z m 0,0"
         id="path23" /><path
         style="fill:#ffffff;fill-opacity:1;fill-rule:nonzero;stroke:none;stroke-width:2.39542"
         d="m 432.02457,534.93885 c 0,42.10385 -28.30941,68.7658 -49.04164,68.7658 -20.73224,0 -37.52595,-26.66195 -37.52595,-68.7658 0,-42.10382 31.72813,-76.60496 52.46036,-76.60496 20.72223,0 34.10723,34.50114 34.10723,76.60496"
         id="path24" /><path
         style="fill:none;stroke:#211e1e;stroke-width:2.39542;stroke-linecap:butt;stroke-linejoin:miter;stroke-miterlimit:4;stroke-opacity:1"
         d="m 432.02457,534.93885 c 0,42.10385 -28.30941,68.7658 -49.04164,68.7658 -20.73224,0 -37.52595,-26.66195 -37.52595,-68.7658 0,-42.10382 31.72813,-76.60496 52.46036,-76.60496 20.72223,0 34.10723,34.50114 34.10723,76.60496 z m 0,0"
         id="path25" /><path
         style="fill:#ffffff;fill-opacity:1;fill-rule:nonzero;stroke:none;stroke-width:2.39542"
         d="m 536.9453,539.80879 c 0,42.09506 -35.13685,70.2548 -55.85908,70.2548 -20.73226,0 -36.26644,-21.05631 -36.26644,-63.16013 0,-42.10382 35.14686,-84.27774 55.87909,-84.27774 20.73224,0 36.24643,35.07048 36.24643,77.18307"
         id="path26" /><path
         style="fill:none;stroke:#211e1e;stroke-width:2.39542;stroke-linecap:butt;stroke-linejoin:miter;stroke-miterlimit:4;stroke-opacity:1"
         d="m 536.9453,539.80879 c 0,42.09506 -35.13685,70.2548 -55.85908,70.2548 -20.73224,0 -36.26644,-21.05631 -36.26644,-63.16013 0,-42.10382 35.14686,-84.27774 55.87909,-84.27774 20.73224,0 36.24643,35.07048 36.24643,77.18307 z m 0,0"
         id="path27" /><path
         style="fill:#211e1e;fill-opacity:1;fill-rule:nonzero;stroke:none;stroke-width:2.39542"
         d="m 515.0335,578.19009 c -1.37948,11.59674 -1.37948,11.87702 -7.13732,20.70595 -5.11808,3.64369 -5.11808,4.20425 -11.67563,7.42751 -3.83856,2.52255 -10.37612,3.74004 -15.13433,3.74004 -7.57717,-0.9372 -14.93442,-4.44075 -14.93442,-4.44075 0,0 -4.31838,-2.80283 -7.59715,-8.04938 -1.23955,-3.52108 -1.93927,-7.53263 -1.93927,-12.00839 0,-20.13662 18.72297,-43.006 33.17757,-43.006 14.4546,0 25.24055,15.50317 25.24055,35.63102"
         id="path28" /><path
         style="fill:#211e1e;fill-opacity:1;fill-rule:nonzero;stroke:none;stroke-width:2.39542"
         d="m 414.27121,571.88371 c 0,7.30491 -2.02924,14.32074 -5.318,20.30304 -5.01812,5.30787 -12.37537,7.83043 -15.09435,9.23184 -2.71899,1.40142 -8.64678,2.10213 -12.47533,2.10213 -6.17769,0 -8.62674,-1.6817 -13.59492,-5.46553 -4.04848,-3.08312 -5.91778,-4.62468 -9.43646,-8.96907 -2.39911,-4.34439 -2.49906,-5.31662 -2.49906,-9.82743 0,-20.13662 18.72297,-43.006 33.17757,-43.006 14.4546,0 25.24055,15.50317 25.24055,35.63102"
         id="path29" /><path
         style="fill:#ffffff;fill-opacity:1;fill-rule:nonzero;stroke:none;stroke-width:2.39542"
         d="m 396.35792,558.1148 c 0,8.07566 -5.7678,15.27545 -11.15582,15.27545 -5.39799,0 -10.63602,-4.2393 -10.63602,-12.32371 0,-8.06692 6.98739,-17.2462 12.37535,-17.2462 5.398,0 9.41649,6.2188 9.41649,14.29446"
         id="path30" /><path
         style="fill:#ffffff;fill-opacity:1;fill-rule:nonzero;stroke:none;stroke-width:2.39542"
         d="m 496.56042,564.07082 c 0,8.07566 -5.7678,15.27545 -11.15582,15.27545 -5.39799,0 -10.63602,-4.24804 -10.63602,-12.31496 0,-8.08443 6.98739,-17.25495 12.37535,-17.25495 5.398,0 9.41649,6.2188 9.41649,14.29446"
         id="path31" /><path
         style="fill:#211e1e;fill-opacity:1;fill-rule:nonzero;stroke:none;stroke-width:2.39542"
         d="m 397.85736,442.70808 c 1.33951,0.51678 11.51569,-5.0451 26.86995,-3.22326 1.5994,-5.18524 0.0798,-6.58666 -1.51944,-7.2173 -1.5994,-0.63063 -25.67039,7.42752 -25.67039,7.42752 0,0 -1.01962,2.49627 0.31988,3.01304"
         id="path32" /><path
         style="fill:#211e1e;fill-opacity:1;fill-rule:nonzero;stroke:none;stroke-width:2.39542"
         d="m 500.47895,440.95631 c 0,0 13.87482,0.56057 23.89106,7.65524 3.19881,0.3854 3.61864,-0.92844 3.61864,-0.92844 0,0 -20.67225,-20.18041 -28.98913,-12.52517 -2.13921,6.9195 1.47943,5.79837 1.47943,5.79837"
         id="path33" /><path
         id="path45"
         style="fill:#211e1e;fill-opacity:1;fill-rule:nonzero;stroke:none;stroke-width:2.39542"
         d="m 259.95117,727.74316 c -4.61141,-0.0688 -9.14722,1.31095 -12.5874,5.4712 -1.87804,0.86622 -3.7106,1.99832 -4.03272,2.75244 -0.63976,1.49776 -1.91946,13.45423 -0.85986,14.19873 1.0596,0.75327 12.36499,23.35886 15.78369,23.91943 3.40875,0.56056 10.23606,9.71339 20.68213,8.03174 0.0212,0.0145 22.24923,15.16875 33.25781,1.85596 1.87804,-0.86623 3.7106,-1.99832 4.03272,-2.75245 0.63976,-1.49776 1.91946,-13.45276 0.85986,-14.19726 -1.0596,-0.75327 -12.36499,-23.36033 -15.78369,-23.9209 -3.40874,-0.56056 -10.23605,-9.71339 -20.68213,-8.03174 -0.0146,-0.01 -10.52531,-7.17568 -20.67041,-7.32715 z"
         sodipodi:nodetypes="scsccccscccs" /><path
         style="fill:#211e1e;fill-opacity:1;fill-rule:nonzero;stroke:none;stroke-width:2.39542"
         d="m 295.54567,718.62087 c 0,0 8.31689,-2.24227 14.28463,3.74004 3.83856,0.56056 3.41872,-1.6817 3.41872,-1.6817 0,0 -4.89816,-6.35894 -16.63377,-5.42174 -2.98886,1.8744 -1.06958,3.3634 -1.06958,3.3634"
         id="path47" /><path
         style="fill:#211e1e;fill-opacity:1;fill-rule:nonzero;stroke:none;stroke-width:2.39542"
         d="m 334.78096,731.32998 c 0,0 6.61753,1.31383 5.97777,13.26967 2.13921,1.12113 2.55904,0.18387 3.61864,-0.9372 1.07961,-1.12113 -3.82853,-15.50317 -7.87704,-14.75867 -2.55904,1.489 -1.71937,2.4262 -1.71937,2.4262"
         id="path49" /></g></g><g
     inkscape:groupmode="layer"
     id="layer3"
     inkscape:label="Layer"
     style="display:inline" /><g
     inkscape:label="BORDER"
     inkscape:groupmode="layer"
     id="layer1"
     transform="translate(50.25,211.52169)"
     style="display:none"
     sodipodi:insensitive="true"><path
       inkscape:connector-curvature="0"
       d="m 301.95446,-211.52169 319.59108,0 c 101.4156,0 152.12339,0 206.7084,17.25959 59.59748,21.69173 106.54481,68.63899 128.23654,128.236542 C 973.75,-11.44076 973.75,39.267072 973.75,140.68273 l 0,319.59116 c 0,101.41566 0,152.12349 -17.25952,206.70829 -21.69173,59.59758 -68.63906,106.54477 -128.23654,128.23654 -54.58501,17.25959 -105.2928,17.25959 -206.7084,17.25959 l -319.59108,0 c -101.4156,0 -152.12339,0 -206.708396,-17.25959 C 35.648581,773.52695 -11.298747,726.57976 -32.99048,666.98218 -50.25,612.39738 -50.25,561.68955 -50.25,460.27389 l 0,-319.59116 c 0,-101.415658 0,-152.12349 17.25952,-206.708254 21.691733,-59.597546 68.639061,-106.544846 128.236544,-128.236576 54.585006,-17.25959 105.292796,-17.25959 206.708396,-17.25959 l 0,0"
       id="path5"
       style="fill:none;stroke:#000000;stroke-opacity:1" /></g><g
     inkscape:groupmode="layer"
     id="layer6"
     inkscape:label="MASK"
     style="display:inline"
     sodipodi:insensitive="true"><path
       style="color:#000000;fill:#ffffff;fill-opacity:1;fill-rule:nonzero;stroke:none;stroke-width:2;marker:none;visibility:visible;display:inline;overflow:visible;enable-background:accumulate"
       d="m -0.03515625,708.40625 c 0.05564213,38.75762 0.61632351,71.02215 3.48917125,100.18549 0.8757813,8.89038 2.0231286,17.50673 3.364698,25.91301 2.7291509,17.10087 6.251639,30.63186 10.624705,44.6288 0.983104,3.14664 2.343873,6.00913 3.546782,8.89844 4.954414,11.90016 10.441772,22.62502 16.75229,32.23106 7.482354,11.38984 16.590926,23.44234 26.690428,33.79613 11.282296,11.56636 22.163363,20.60638 34.238258,28.7856 7.753914,5.2523 15.167714,9.80978 23.655414,13.91931 3.34329,1.61873 6.78353,3.25751 10.45545,4.87471 6.01057,2.6472 12.64725,5.2405 20.38236,7.4312 16.33865,4.6274 37.83594,9.5058 66.67436,11.7859 26.04947,2.0596 58.07248,3.2184 99.20801,3.1754 l -319.08192625,0 z"
       id="path4146"
       inkscape:connector-curvature="0"
       sodipodi:nodetypes="csssssssssssccc" /><path
       style="color:#000000;fill:#ffffff;fill-opacity:1;fill-rule:nonzero;stroke:none;stroke-width:2;marker:none;visibility:visible;display:inline;overflow:visible;enable-background:accumulate"
       d="m 1024,708.375 c -0.028,33.52476 -0.3641,57.51886 -2.1872,86.13032 -2.1429,33.63123 -7.6767,62.03085 -16.1313,85.82727 -5.1582,14.5187 -11.40374,27.32387 -18.62968,38.55822 -10.39312,16.15845 -22.65083,31.16786 -36.89519,44.46448 -6.86448,6.40775 -13.96935,11.81612 -21.91877,17.50161 -10.37402,7.41958 -20.2254,13.06198 -32.1818,18.6383 -10.69022,4.9858 -23.165,9.4996 -39.90567,13.451 -11.58454,2.7344 -25.21186,5.3376 -41.70422,7.0737 -27.23282,2.8667 -62.17789,3.4121 -108.25867,3.9801 L 1024,1024 z"
       id="path4146-5"
       inkscape:connector-curvature="0"
       sodipodi:nodetypes="cssssssssccc" /><path
       style="color:#000000;fill:#ffffff;fill-opacity:1;fill-rule:nonzero;stroke:none;stroke-width:2;marker:none;visibility:visible;display:inline;overflow:visible;enable-background:accumulate"
       d="m 1023.9571,318.26274 c 0.1837,-39.14081 -0.2997,-73.55855 -3.476,-103.94061 -1.4113,-13.49969 -3.8539,-26.31006 -5.9548,-38.18792 -3.6187,-20.45841 -10.1174,-38.44655 -17.2973,-52.70888 -2.12747,-4.22606 -3.90726,-7.55456 -5.77779,-10.81658 -1.49793,-2.61224 -3.05404,-5.18185 -4.89348,-8.13563 -1.96035,-3.14791 -3.87346,-6.195884 -5.993,-9.197124 C 974.88453,87.232938 968.40279,79.35023 961.65509,72.082687 951.58996,61.242143 940.4011,51.100793 927.77306,42.698049 909.73264,30.693887 894.47219,21.390417 866.08729,13.614807 853.18652,10.080839 837.40303,6.7460486 817.42751,4.3881848 790.09127,1.1614792 754.65731,0.08073128 706.1875,0 L 1024,0 z"
       id="path4146-5-3"
       inkscape:connector-curvature="0"
       sodipodi:nodetypes="cssssssssssccc" /><path
       style="color:#000000;fill:#ffffff;fill-opacity:1;fill-rule:nonzero;stroke:none;stroke-width:2;marker:none;visibility:visible;display:inline;overflow:visible;enable-background:accumulate"
       d="M 0,318.48 C 0.04438432,264.21497 1.9515494,215.42652 8.7981727,178.4577 14.754939,146.29372 24.640519,123.97857 37.889606,103.37989 53.29125,79.434582 73.01483,58.195063 97.250401,42.030991 111.80438,32.324119 124.48551,25.310001 143.39137,18.055461 153.25339,14.271217 164.74156,11.469151 178.08885,8.8727346 208.3231,2.9913388 250.69975,-0.29260813 319.08193,0 L 0,0 z"
       id="path4146-5-3-7"
       inkscape:connector-curvature="0"
       sodipodi:nodetypes="csssssccc" /></g><g
     inkscape:groupmode="layer"
     id="layer4"
     inkscape:label="FULL MASK to BG"
     style="display:none"><g
       id="g3108"
       transform="matrix(0.5649724,0,0,0.5649724,445.54508,-1009.2323)"
       style="fill:#ffffff"><path
         style="fill:#ffffff;fill-opacity:1"
         d="m -255.18484,3598.5738 c -65.89075,-0.4253 -133.31625,-3.6429 -171.28383,-8.1738 -35.62761,-4.2516 -75.24646,-12.6237 -101.97363,-21.5486 -19.91256,-6.6493 -47.54459,-19.4411 -66.12352,-30.6108 -37.44793,-22.5137 -72.20796,-52.2487 -98.54251,-84.2969 -24.29731,-29.5689 -41.20817,-56.8511 -55.47181,-89.4924 -6.61929,-15.1478 -8.38704,-19.8689 -11.92879,-31.8579 -16.20259,-54.8465 -23.54268,-107.7838 -26.58122,-191.706 -1.42838,-39.4507 -1.67596,-120.9647 -1.45114,-477.7704 0.16145,-256.2384 0.41117,-371.6315 0.83443,-385.5878 4.03548,-133.0627 14.45033,-200.8155 39.80624,-258.9554 22.87778,-52.4577 63.32922,-104.9173 108.81811,-141.1212 12.25925,-9.757 31.66981,-22.9097 46.90669,-31.7844 24.79601,-14.4423 54.99637,-27.5472 78.82329,-34.2039 41.36425,-11.5562 93.35603,-18.869 158.31851,-22.2681 28.5354,-1.493 42.80966,-1.8693 92.94472,-2.45 66.71195,-0.7727 774.97059,-0.3507 803.30789,0.4786 74.58713,2.1828 111.22328,5.1416 152.96045,12.3533 34.90069,6.0305 66.10255,14.5431 92.14805,25.1403 28.90007,11.7586 67.93807,35.6951 94.27249,57.8041 24.08118,20.2172 52.39634,51.696 69.50417,77.2697 27.40876,40.9722 44.92544,81.5642 54.48975,126.2709 2.0427,9.5481 7.5352,40.5742 9.5433,53.9079 4.7447,31.5043 7.3924,66.4897 8.9033,117.6415 0.8272,28.0023 1.2273,742.0895 0.4567,814.9924 -0.6825,64.5731 -1.8558,98.6886 -4.564,132.7029 -5.9213,74.3703 -21.87168,136.2374 -47.80384,185.4176 -7.83137,14.852 -18.80155,31.9295 -30.54535,47.5505 -23.00313,30.5976 -46.50391,54.389 -74.58963,75.5123 -48.63111,36.5753 -94.65909,56.7768 -158.32303,69.4872 -51.86283,10.3544 -93.05381,13.1537 -222.7503,15.1381 -27.97184,0.4279 -676.86617,0.5685 -740.10549,0.1603 z"
         id="path3124"
         inkscape:connector-curvature="0" /><path
         style="fill:#ffffff;fill-opacity:1"
         d="m -255.18484,3598.5738 c -65.89075,-0.4253 -133.31625,-3.6429 -171.28383,-8.1738 -35.62761,-4.2516 -75.24646,-12.6237 -101.97363,-21.5486 -19.91256,-6.6493 -47.54459,-19.4411 -66.12352,-30.6108 -37.44793,-22.5137 -72.20796,-52.2487 -98.54251,-84.2969 -24.29731,-29.5689 -41.20817,-56.8511 -55.47181,-89.4924 -6.61929,-15.1478 -8.38704,-19.8689 -11.92879,-31.8579 -16.20259,-54.8465 -23.54268,-107.7838 -26.58122,-191.706 -1.42838,-39.4507 -1.67596,-120.9647 -1.45114,-477.7704 0.16145,-256.2384 0.41117,-371.6315 0.83443,-385.5878 4.03548,-133.0627 14.45033,-200.8155 39.80624,-258.9554 22.87778,-52.4577 63.32922,-104.9173 108.81811,-141.1212 12.25925,-9.757 31.66981,-22.9097 46.90669,-31.7844 24.79601,-14.4423 54.99637,-27.5472 78.82329,-34.2039 41.36425,-11.5562 93.35603,-18.869 158.31851,-22.2681 28.5354,-1.493 42.80966,-1.8693 92.94472,-2.45 66.71195,-0.7727 774.97059,-0.3507 803.30789,0.4786 74.58713,2.1828 111.22328,5.1416 152.96045,12.3533 34.90069,6.0305 66.10255,14.5431 92.14805,25.1403 28.90007,11.7586 67.93807,35.6951 94.27249,57.8041 24.08118,20.2172 52.39634,51.696 69.50417,77.2697 27.40876,40.9722 44.92544,81.5642 54.48975,126.2709 2.0427,9.5481 7.5352,40.5742 9.5433,53.9079 4.7447,31.5043 7.3924,66.4897 8.9033,117.6415 0.8272,28.0023 1.2273,742.0895 0.4567,814.9924 -0.6825,64.5731 -1.8558,98.6886 -4.564,132.7029 -5.9213,74.3703 -21.87168,136.2374 -47.80384,185.4176 -7.83137,14.852 -18.80155,31.9295 -30.54535,47.5505 -23.00313,30.5976 -46.50391,54.389 -74.58963,75.5123 -48.63111,36.5753 -94.65909,56.7768 -158.32303,69.4872 -51.86283,10.3544 -93.05381,13.1537 -222.7503,15.1381 -27.97184,0.4279 -676.86617,0.5685 -740.10549,0.1603 z"
         id="path3122"
         inkscape:connector-curvature="0" /><path
         style="fill:#ffffff;fill-opacity:1"
         d="m -255.18484,3598.5738 c -65.89075,-0.4253 -133.31625,-3.6429 -171.28383,-8.1738 -35.62761,-4.2516 -75.24646,-12.6237 -101.97363,-21.5486 -19.91256,-6.6493 -47.54459,-19.4411 -66.12352,-30.6108 -37.44793,-22.5137 -72.20796,-52.2487 -98.54251,-84.2969 -24.29731,-29.5689 -41.20817,-56.8511 -55.47181,-89.4924 -6.61929,-15.1478 -8.38704,-19.8689 -11.92879,-31.8579 -16.20259,-54.8465 -23.54268,-107.7838 -26.58122,-191.706 -1.42838,-39.4507 -1.67596,-120.9647 -1.45114,-477.7704 0.16145,-256.2384 0.41117,-371.6315 0.83443,-385.5878 4.03548,-133.0627 14.45033,-200.8155 39.80624,-258.9554 22.87778,-52.4577 63.32922,-104.9173 108.81811,-141.1212 12.25925,-9.757 31.66981,-22.9097 46.90669,-31.7844 24.79601,-14.4423 54.99637,-27.5472 78.82329,-34.2039 41.36425,-11.5562 93.35603,-18.869 158.31851,-22.2681 28.5354,-1.493 42.80966,-1.8693 92.94472,-2.45 66.71195,-0.7727 774.97059,-0.3507 803.30789,0.4786 74.58713,2.1828 111.22328,5.1416 152.96045,12.3533 34.90069,6.0305 66.10255,14.5431 92.14805,25.1403 28.90007,11.7586 67.93807,35.6951 94.27249,57.8041 24.08118,20.2172 52.39634,51.696 69.50417,77.2697 27.40876,40.9722 44.92544,81.5642 54.48975,126.2709 2.0427,9.5481 7.5352,40.5742 9.5433,53.9079 4.7447,31.5043 7.3924,66.4897 8.9033,117.6415 0.8272,28.0023 1.2273,742.0895 0.4567,814.9924 -0.6825,64.5731 -1.8558,98.6886 -4.564,132.7029 -5.9213,74.3703 -21.87168,136.2374 -47.80384,185.4176 -7.83137,14.852 -18.80155,31.9295 -30.54535,47.5505 -23.00313,30.5976 -46.50391,54.389 -74.58963,75.5123 -48.63111,36.5753 -94.65909,56.7768 -158.32303,69.4872 -51.86283,10.3544 -93.05381,13.1537 -222.7503,15.1381 -27.97184,0.4279 -676.86617,0.5685 -740.10549,0.1603 z"
         id="path3120"
         inkscape:connector-curvature="0" /><path
         style="fill:#ffffff;fill-opacity:1"
         d="m -255.18484,3598.5738 c -65.89075,-0.4253 -133.31625,-3.6429 -171.28383,-8.1738 -35.62761,-4.2516 -75.24646,-12.6237 -101.97363,-21.5486 -19.91256,-6.6493 -47.54459,-19.4411 -66.12352,-30.6108 -37.44793,-22.5137 -72.20796,-52.2487 -98.54251,-84.2969 -24.29731,-29.5689 -41.20817,-56.8511 -55.47181,-89.4924 -6.61929,-15.1478 -8.38704,-19.8689 -11.92879,-31.8579 -16.20259,-54.8465 -23.54268,-107.7838 -26.58122,-191.706 -1.42838,-39.4507 -1.67596,-120.9647 -1.45114,-477.7704 0.16145,-256.2384 0.41117,-371.6315 0.83443,-385.5878 4.03548,-133.0627 14.45033,-200.8155 39.80624,-258.9554 22.87778,-52.4577 63.32922,-104.9173 108.81811,-141.1212 12.25925,-9.757 31.66981,-22.9097 46.90669,-31.7844 24.79601,-14.4423 54.99637,-27.5472 78.82329,-34.2039 41.36425,-11.5562 93.35603,-18.869 158.31851,-22.2681 28.5354,-1.493 42.80966,-1.8693 92.94472,-2.45 66.71195,-0.7727 774.97059,-0.3507 803.30789,0.4786 74.58713,2.1828 111.22328,5.1416 152.96045,12.3533 34.90069,6.0305 66.10255,14.5431 92.14805,25.1403 28.90007,11.7586 67.93807,35.6951 94.27249,57.8041 24.08118,20.2172 52.39634,51.696 69.50417,77.2697 27.40876,40.9722 44.92544,81.5642 54.48975,126.2709 2.0427,9.5481 7.5352,40.5742 9.5433,53.9079 4.7447,31.5043 7.3924,66.4897 8.9033,117.6415 0.8272,28.0023 1.2273,742.0895 0.4567,814.9924 -0.6825,64.5731 -1.8558,98.6886 -4.564,132.7029 -5.9213,74.3703 -21.87168,136.2374 -47.80384,185.4176 -7.83137,14.852 -18.80155,31.9295 -30.54535,47.5505 -23.00313,30.5976 -46.50391,54.389 -74.58963,75.5123 -48.63111,36.5753 -94.65909,56.7768 -158.32303,69.4872 -51.86283,10.3544 -93.05381,13.1537 -222.7503,15.1381 -27.97184,0.4279 -676.86617,0.5685 -740.10549,0.1603 z"
         id="path3118"
         inkscape:connector-curvature="0" /><path
         style="fill:#ffffff;fill-opacity:1"
         d="m -255.18484,3598.5738 c -65.89075,-0.4253 -133.31625,-3.6429 -171.28383,-8.1738 -35.62761,-4.2516 -75.24646,-12.6237 -101.97363,-21.5486 -19.91256,-6.6493 -47.54459,-19.4411 -66.12352,-30.6108 -37.44793,-22.5137 -72.20796,-52.2487 -98.54251,-84.2969 -24.29731,-29.5689 -41.20817,-56.8511 -55.47181,-89.4924 -6.61929,-15.1478 -8.38704,-19.8689 -11.92879,-31.8579 -16.20259,-54.8465 -23.54268,-107.7838 -26.58122,-191.706 -1.42838,-39.4507 -1.67596,-120.9647 -1.45114,-477.7704 0.16145,-256.2384 0.41117,-371.6315 0.83443,-385.5878 4.03548,-133.0627 14.45033,-200.8155 39.80624,-258.9554 22.87778,-52.4577 63.32922,-104.9173 108.81811,-141.1212 12.25925,-9.757 31.66981,-22.9097 46.90669,-31.7844 24.79601,-14.4423 54.99637,-27.5472 78.82329,-34.2039 41.36425,-11.5562 93.35603,-18.869 158.31851,-22.2681 28.5354,-1.493 42.80966,-1.8693 92.94472,-2.45 66.71195,-0.7727 774.97059,-0.3507 803.30789,0.4786 74.58713,2.1828 111.22328,5.1416 152.96045,12.3533 34.90069,6.0305 66.10255,14.5431 92.14805,25.1403 28.90007,11.7586 67.93807,35.6951 94.27249,57.8041 24.08118,20.2172 52.39634,51.696 69.50417,77.2697 27.40876,40.9722 44.92544,81.5642 54.48975,126.2709 2.0427,9.5481 7.5352,40.5742 9.5433,53.9079 4.7447,31.5043 7.3924,66.4897 8.9033,117.6415 0.8272,28.0023 1.2273,742.0895 0.4567,814.9924 -0.6825,64.5731 -1.8558,98.6886 -4.564,132.7029 -5.9213,74.3703 -21.87168,136.2374 -47.80384,185.4176 -7.83137,14.852 -18.80155,31.9295 -30.54535,47.5505 -23.00313,30.5976 -46.50391,54.389 -74.58963,75.5123 -48.63111,36.5753 -94.65909,56.7768 -158.32303,69.4872 -51.86283,10.3544 -93.05381,13.1537 -222.7503,15.1381 -27.97184,0.4279 -676.86617,0.5685 -740.10549,0.1603 z"
         id="path3116"
         inkscape:connector-curvature="0" /><path
         style="fill:#ffffff;fill-opacity:1"
         d="m -255.18484,3598.5738 c -65.89075,-0.4253 -133.31625,-3.6429 -171.28383,-8.1738 -35.62761,-4.2516 -75.24646,-12.6237 -101.97363,-21.5486 -19.91256,-6.6493 -47.54459,-19.4411 -66.12352,-30.6108 -37.44793,-22.5137 -72.20796,-52.2487 -98.54251,-84.2969 -24.29731,-29.5689 -41.20817,-56.8511 -55.47181,-89.4924 -6.61929,-15.1478 -8.38704,-19.8689 -11.92879,-31.8579 -16.20259,-54.8465 -23.54268,-107.7838 -26.58122,-191.706 -1.42838,-39.4507 -1.67596,-120.9647 -1.45114,-477.7704 0.16145,-256.2384 0.41117,-371.6315 0.83443,-385.5878 4.03548,-133.0627 14.45033,-200.8155 39.80624,-258.9554 22.87778,-52.4577 63.32922,-104.9173 108.81811,-141.1212 12.25925,-9.757 31.66981,-22.9097 46.90669,-31.7844 24.79601,-14.4423 54.99637,-27.5472 78.82329,-34.2039 41.36425,-11.5562 93.35603,-18.869 158.31851,-22.2681 28.5354,-1.493 42.80966,-1.8693 92.94472,-2.45 66.71195,-0.7727 774.97059,-0.3507 803.30789,0.4786 74.58713,2.1828 111.22328,5.1416 152.96045,12.3533 34.90069,6.0305 66.10255,14.5431 92.14805,25.1403 28.90007,11.7586 67.93807,35.6951 94.27249,57.8041 24.08118,20.2172 52.39634,51.696 69.50417,77.2697 27.40876,40.9722 44.92544,81.5642 54.48975,126.2709 2.0427,9.5481 7.5352,40.5742 9.5433,53.9079 4.7447,31.5043 7.3924,66.4897 8.9033,117.6415 0.8272,28.0023 1.2273,742.0895 0.4567,814.9924 -0.6825,64.5731 -1.8558,98.6886 -4.564,132.7029 -5.9213,74.3703 -21.87168,136.2374 -47.80384,185.4176 -7.83137,14.852 -18.80155,31.9295 -30.54535,47.5505 -23.00313,30.5976 -46.50391,54.389 -74.58963,75.5123 -48.63111,36.5753 -94.65909,56.7768 -158.32303,69.4872 -51.86283,10.3544 -93.05381,13.1537 -222.7503,15.1381 -27.97184,0.4279 -676.86617,0.5685 -740.10549,0.1603 z"
         id="path3114"
         inkscape:connector-curvature="0" /><path
         style="fill:#ffffff;fill-opacity:1"
         d="m -255.18484,3598.5738 c -65.89075,-0.4253 -133.31625,-3.6429 -171.28383,-8.1738 -35.62761,-4.2516 -75.24646,-12.6237 -101.97363,-21.5486 -19.91256,-6.6493 -47.54459,-19.4411 -66.12352,-30.6108 -37.44793,-22.5137 -72.20796,-52.2487 -98.54251,-84.2969 -24.29731,-29.5689 -41.20817,-56.8511 -55.47181,-89.4924 -6.61929,-15.1478 -8.38704,-19.8689 -11.92879,-31.8579 -16.20259,-54.8465 -23.54268,-107.7838 -26.58122,-191.706 -1.42838,-39.4507 -1.67596,-120.9647 -1.45114,-477.7704 0.16145,-256.2384 0.41117,-371.6315 0.83443,-385.5878 4.03548,-133.0627 14.45033,-200.8155 39.80624,-258.9554 22.87778,-52.4577 63.32922,-104.9173 108.81811,-141.1212 12.25925,-9.757 31.66981,-22.9097 46.90669,-31.7844 24.79601,-14.4423 54.99637,-27.5472 78.82329,-34.2039 41.36425,-11.5562 93.35603,-18.869 158.31851,-22.2681 28.5354,-1.493 42.80966,-1.8693 92.94472,-2.45 66.71195,-0.7727 774.97059,-0.3507 803.30789,0.4786 74.58713,2.1828 111.22328,5.1416 152.96045,12.3533 34.90069,6.0305 66.10255,14.5431 92.14805,25.1403 28.90007,11.7586 67.93807,35.6951 94.27249,57.8041 24.08118,20.2172 52.39634,51.696 69.50417,77.2697 27.40876,40.9722 44.92544,81.5642 54.48975,126.2709 2.0427,9.5481 7.5352,40.5742 9.5433,53.9079 4.7447,31.5043 7.3924,66.4897 8.9033,117.6415 0.8272,28.0023 1.2273,742.0895 0.4567,814.9924 -0.6825,64.5731 -1.8558,98.6886 -4.564,132.7029 -5.9213,74.3703 -21.87168,136.2374 -47.80384,185.4176 -7.83137,14.852 -18.80155,31.9295 -30.54535,47.5505 -23.00313,30.5976 -46.50391,54.389 -74.58963,75.5123 -48.63111,36.5753 -94.65909,56.7768 -158.32303,69.4872 -51.86283,10.3544 -93.05381,13.1537 -222.7503,15.1381 -27.97184,0.4279 -676.86617,0.5685 -740.10549,0.1603 z"
         id="path3112"
         inkscape:connector-curvature="0" /><path
         style="fill:#ffffff;fill-opacity:1"
         d="m -255.18484,3598.5738 c -65.89075,-0.4253 -133.31625,-3.6429 -171.28383,-8.1738 -35.62761,-4.2516 -75.24646,-12.6237 -101.97363,-21.5486 -19.91256,-6.6493 -47.54459,-19.4411 -66.12352,-30.6108 -37.44793,-22.5137 -72.20796,-52.2487 -98.54251,-84.2969 -24.29731,-29.5689 -41.20817,-56.8511 -55.47181,-89.4924 -6.61929,-15.1478 -8.38704,-19.8689 -11.92879,-31.8579 -16.20259,-54.8465 -23.54268,-107.7838 -26.58122,-191.706 -1.42838,-39.4507 -1.67596,-120.9647 -1.45114,-477.7704 0.16145,-256.2384 0.41117,-371.6315 0.83443,-385.5878 4.03548,-133.0627 14.45033,-200.8155 39.80624,-258.9554 22.87778,-52.4577 63.32922,-104.9173 108.81811,-141.1212 12.25925,-9.757 31.66981,-22.9097 46.90669,-31.7844 24.79601,-14.4423 54.99637,-27.5472 78.82329,-34.2039 41.36425,-11.5562 93.35603,-18.869 158.31851,-22.2681 28.5354,-1.493 42.80966,-1.8693 92.94472,-2.45 66.71195,-0.7727 774.97059,-0.3507 803.30789,0.4786 74.58713,2.1828 111.22328,5.1416 152.96045,12.3533 34.90069,6.0305 66.10255,14.5431 92.14805,25.1403 28.90007,11.7586 67.93807,35.6951 94.27249,57.8041 24.08118,20.2172 52.39634,51.696 69.50417,77.2697 27.40876,40.9722 44.92544,81.5642 54.48975,126.2709 2.0427,9.5481 7.5352,40.5742 9.5433,53.9079 4.7447,31.5043 7.3924,66.4897 8.9033,117.6415 0.8272,28.0023 1.2273,742.0895 0.4567,814.9924 -0.6825,64.5731 -1.8558,98.6886 -4.564,132.7029 -5.9213,74.3703 -21.87168,136.2374 -47.80384,185.4176 -7.83137,14.852 -18.80155,31.9295 -30.54535,47.5505 -23.00313,30.5976 -46.50391,54.389 -74.58963,75.5123 -48.63111,36.5753 -94.65909,56.7768 -158.32303,69.4872 -51.86283,10.3544 -93.05381,13.1537 -222.7503,15.1381 -27.97184,0.4279 -676.86617,0.5685 -740.10549,0.1603 z"
         id="path3110"
         inkscape:connector-curvature="0" /></g></g><g
     inkscape:groupmode="layer"
     id="layer2"
     inkscape:label="GUIDES"
     style="display:none"
     transform="translate(0,-2.2054443)"
     sodipodi:insensitive="true"><path
       style="color:#000000;display:inline;overflow:visible;visibility:visible;fill:none;stroke:#000000;stroke-width:2;stroke-linecap:butt;stroke-linejoin:miter;stroke-miterlimit:4;stroke-dasharray:none;stroke-dashoffset:0;stroke-opacity:1;marker:none;enable-background:accumulate"
       d="M 0.99801512,321.03518 V 707.31187"
       id="path4024"
       inkscape:connector-curvature="0" /><circle
       style="color:#000000;display:inline;overflow:visible;visibility:visible;fill:none;stroke:#000000;stroke-width:1.00571;stroke-linecap:butt;stroke-linejoin:miter;stroke-miterlimit:4;stroke-dasharray:none;stroke-dashoffset:0;stroke-opacity:1;marker:none;enable-background:accumulate"
       id="path3129"
       transform="matrix(1.988799,0,0,1.988471,-407.91018,-80.585593)"
       cx="462.32144"
       cy="298.86218"
       r="138" /><circle
       style="color:#000000;display:inline;overflow:visible;visibility:visible;fill:none;stroke:#000000;stroke-width:0.620861;stroke-linecap:butt;stroke-linejoin:miter;stroke-miterlimit:4;stroke-dasharray:none;stroke-dashoffset:0;stroke-opacity:1;marker:none;enable-background:accumulate"
       id="path3129-9"
       transform="matrix(3.2215081,0,0,3.2211587,-977.38931,-448.55899)"
       cx="462.32144"
       cy="298.86218"
       r="138" /><path
       style="color:#000000;display:inline;overflow:visible;visibility:visible;fill:none;stroke:#000000;stroke-width:2;stroke-linecap:butt;stroke-linejoin:miter;stroke-miterlimit:4;stroke-dasharray:none;stroke-dashoffset:0;stroke-opacity:1;marker:none;enable-background:accumulate"
       d="M 67.351921,69.489974 956.5625,958.70544"
       id="path4011"
       inkscape:connector-curvature="0"
       sodipodi:nodetypes="cc" /><path
       style="color:#000000;display:inline;overflow:visible;visibility:visible;fill:none;stroke:#000000;stroke-width:2;stroke-linecap:butt;stroke-linejoin:miter;stroke-miterlimit:4;stroke-dasharray:none;stroke-dashoffset:0;stroke-opacity:1;marker:none;enable-background:accumulate"
       d="M 0.99801467,707.31189 H 1023.001"
       id="path4028"
       inkscape:connector-curvature="0" /><path
       style="color:#000000;display:inline;overflow:visible;visibility:visible;fill:none;stroke:#000000;stroke-width:2;stroke-linecap:butt;stroke-linejoin:miter;stroke-miterlimit:4;stroke-dasharray:none;stroke-dashoffset:0;stroke-opacity:1;marker:none;enable-background:accumulate"
       d="M 0.99801467,513.69318 H 1023.001"
       id="path4030"
       inkscape:connector-curvature="0" /><path
       style="color:#000000;display:inline;overflow:visible;visibility:visible;fill:none;stroke:#000000;stroke-width:2;stroke-linecap:butt;stroke-linejoin:miter;stroke-miterlimit:4;stroke-dasharray:none;stroke-dashoffset:0;stroke-opacity:1;marker:none;enable-background:accumulate"
       d="M 0.99801467,321.0352 H 1023.001"
       id="path4032"
       inkscape:connector-curvature="0" /><path
       style="color:#000000;display:inline;overflow:visible;visibility:visible;fill:none;stroke:#000000;stroke-width:2;stroke-linecap:butt;stroke-linejoin:miter;stroke-miterlimit:4;stroke-dasharray:none;stroke-dashoffset:0;stroke-opacity:1;marker:none;enable-background:accumulate"
       d="M 319.08193,1026.2054 V 2.2054443"
       id="path4034"
       inkscape:connector-curvature="0"
       sodipodi:nodetypes="cc" /><path
       style="color:#000000;display:inline;overflow:visible;visibility:visible;fill:none;stroke:#000000;stroke-width:2;stroke-linecap:butt;stroke-linejoin:miter;stroke-miterlimit:4;stroke-dasharray:none;stroke-dashoffset:0;stroke-opacity:1;marker:none;enable-background:accumulate"
       d="M 511.68014,2.2054443 V 1026.2054"
       id="path4036"
       inkscape:connector-curvature="0"
       sodipodi:nodetypes="cc" /><path
       style="color:#000000;display:inline;overflow:visible;visibility:visible;fill:none;stroke:#000000;stroke-width:2;stroke-linecap:butt;stroke-linejoin:miter;stroke-miterlimit:4;stroke-dasharray:none;stroke-dashoffset:0;stroke-opacity:1;marker:none;enable-background:accumulate"
       d="M 706.1875,1026.2054 V 2.2054443"
       id="path4038"
       inkscape:connector-curvature="0"
       sodipodi:nodetypes="cc" /><path
       style="color:#000000;display:inline;overflow:visible;visibility:visible;fill:none;stroke:#000000;stroke-width:2;stroke-linecap:butt;stroke-linejoin:miter;stroke-miterlimit:4;stroke-dasharray:none;stroke-dashoffset:0;stroke-opacity:1;marker:none;enable-background:accumulate"
       d="M 67.351921,958.70544 956.5625,69.489974"
       id="path4001"
       inkscape:connector-curvature="0"
       sodipodi:nodetypes="cc" /><path
       style="color:#000000;display:inline;overflow:visible;visibility:visible;fill:none;stroke:#000000;stroke-width:2;stroke-linecap:butt;stroke-linejoin:miter;stroke-miterlimit:4;stroke-dasharray:none;stroke-dashoffset:0;stroke-opacity:1;marker:none;enable-background:accumulate"
       d="M 956.5625,69.489974 V 958.70544"
       id="path4003"
       inkscape:connector-curvature="0"
       sodipodi:nodetypes="cc" /><path
       style="color:#000000;display:inline;overflow:visible;visibility:visible;fill:none;stroke:#000000;stroke-width:2;stroke-linecap:butt;stroke-linejoin:miter;stroke-miterlimit:4;stroke-dasharray:none;stroke-dashoffset:0;stroke-opacity:1;marker:none;enable-background:accumulate"
       d="M 67.351921,69.489974 H 956.5625"
       id="path4009"
       inkscape:connector-curvature="0"
       sodipodi:nodetypes="cc" /><path
       style="color:#000000;display:inline;overflow:visible;visibility:visible;fill:none;stroke:#000000;stroke-width:2;stroke-linecap:butt;stroke-linejoin:miter;stroke-miterlimit:4;stroke-dasharray:none;stroke-dashoffset:0;stroke-opacity:1;marker:none;enable-background:accumulate"
       d="M 67.351921,958.70544 V 69.489974"
       id="path4007"
       inkscape:connector-curvature="0"
       sodipodi:nodetypes="cc" /><path
       style="color:#000000;display:inline;overflow:visible;visibility:visible;fill:none;stroke:#000000;stroke-width:2;stroke-linecap:butt;stroke-linejoin:miter;stroke-miterlimit:4;stroke-dasharray:none;stroke-dashoffset:0;stroke-opacity:1;marker:none;enable-background:accumulate"
       d="m 956.5625,958.70544 -889.210579,-3e-5"
       id="path4005"
       inkscape:connector-curvature="0"
       sodipodi:nodetypes="cc" /><circle
       style="color:#000000;display:inline;overflow:visible;visibility:visible;fill:none;stroke:#000000;stroke-width:1.42908;stroke-linecap:butt;stroke-linejoin:miter;stroke-miterlimit:4;stroke-dasharray:none;stroke-dashoffset:0;stroke-opacity:1;marker:none;enable-background:accumulate"
       id="path3129-7"
       transform="matrix(1.4025564,0,0,1.3964479,-135.79717,96.569794)"
       cx="462.32144"
       cy="298.86218"
       r="138" /></g></svg>
