<?xml version="1.0" encoding="UTF-8" standalone="no"?>
<!-- Created with Inkscape (http://www.inkscape.org/) -->

<svg
   width="48"
   height="48"
   viewBox="0 0 12.7 12.7"
   version="1.1"
   id="svg1"
   inkscape:version="1.4.2 (ebf0e940, 2025-05-08)"
   sodipodi:docname="favicon.svg"
   xmlns:inkscape="http://www.inkscape.org/namespaces/inkscape"
   xmlns:sodipodi="http://sodipodi.sourceforge.net/DTD/sodipodi-0.dtd"
   xmlns="http://www.w3.org/2000/svg"
   xmlns:svg="http://www.w3.org/2000/svg">
  <sodipodi:namedview
     id="namedview1"
     pagecolor="#ffffff"
     bordercolor="#000000"
     borderopacity="0.25"
     inkscape:showpageshadow="2"
     inkscape:pageopacity="0.0"
     inkscape:pagecheckerboard="0"
     inkscape:deskcolor="#d1d1d1"
     inkscape:document-units="mm"
     inkscape:zoom="15.645833"
     inkscape:cx="23.968043"
     inkscape:cy="24"
     inkscape:window-width="1712"
     inkscape:window-height="970"
     inkscape:window-x="0"
     inkscape:window-y="39"
     inkscape:window-maximized="1"
     inkscape:current-layer="layer1" />
  <defs
     id="defs1" />
  <g
     inkscape:label="Layer 1"
     inkscape:groupmode="layer"
     id="layer1"
     transform="translate(51.858334,-71.702083)">
    <g
       id="g116"
       transform="matrix(0.01690185,0,0,0.01690185,-52.808288,66.663876)">
      <path
         style="fill:#4cacac;fill-opacity:1;fill-rule:nonzero;stroke:none;stroke-width:2.39542"
         d="m 311.00986,623.98141 c 0.10006,-0.98099 -9.48644,-16.53672 -0.95964,-37.83827 l -5.75784,12.05219 c 0,0 4.15844,-44.84535 11.19581,-50.7313 7.03736,-5.88596 -7.67713,8.12822 -7.67713,8.12822 0,0 1.91928,-31.11147 12.47533,-34.75515 10.55605,-3.64369 -6.3976,2.52255 -6.3976,2.52255 0,0 10.87593,-43.72422 64.93569,-81.28221 -1.91928,-0.84085 -3.83856,0.28029 -3.83856,0.28029 0,0 51.18085,-35.87629 86.0478,-42.04252 -0.31988,2.24227 -3.19881,4.48453 -4.47833,5.32538 -1.27952,0.84085 16.3139,-14.57474 63.97606,-10.37048 0,1.96198 -3.51868,3.3634 -3.51868,3.3634 0,0 31.34827,-10.37049 59.81761,8.68879 1.27952,1.12113 -11.19581,2.24226 -11.19581,2.24226 0,0 38.38564,1.6817 41.90432,9.24936 -11.83557,0 -15.67413,3.08312 -15.67413,3.08312 0,0 24.3109,1.6817 34.22719,17.65785 -4.79821,-1.12113 -10.55605,-0.56056 -10.55605,-0.56056 0,0 30.06874,13.73389 39.02539,28.58891 -3.83856,-2.24227 -12.15545,-2.24227 -12.15545,-2.24227 0,0 26.86994,28.02835 24.3109,29.42977 -2.55904,1.40141 -15.35425,-5.32539 -15.35425,-5.32539 0,0 19.83258,36.71713 15.03437,36.43685 -4.7982,-0.28028 -4.15844,-2.52255 -4.15844,-2.52255 0,0 21.75186,49.61017 17.27353,49.89045 -4.47832,0.28029 -5.75784,-2.52255 -5.75784,-2.52255 0,0 12.47533,35.03544 12.15545,45.12564 -0.31988,10.09021 -6.71749,-5.88595 -6.71749,-5.88595 0,0 7.03737,21.86211 4.15845,23.26353 -2.87893,1.40141 -2.87893,-1.6817 -2.87893,-1.6817 0,0 3.83857,15.97615 2.23917,17.65785 -1.5994,1.6817 -6.07773,-0.84085 -6.07773,-0.84085 0,0 9.59641,17.37758 0.95964,30.27062 -3.51868,-0.28029 -3.51868,-3.08312 -3.51868,-3.08312 0,0 0.31988,21.58183 -2.87892,25.50579 -3.19881,3.92397 -3.51869,-7.00708 -3.51869,-7.00708 0,0 0.31988,31.95231 -9.59641,33.35373 -1.91928,-1.40142 -1.91928,-4.20425 -1.91928,-4.20425 0,0 -1.91928,32.51288 -16.95365,33.07345 -0.95964,-2.52256 0.31988,-5.04511 0.31988,-5.04511 0,0 -19.19282,30.83118 -25.59042,29.42977 -0.63977,-1.12114 0,-2.52255 0,-2.52255 0,0 -17.27354,21.58182 -21.75186,20.46069 -4.47833,-1.12114 -21.1121,16.81701 -51.18085,19.90012 0,0 -45.74288,58.01868 31.02839,88.00901 45.10312,23.26353 -15.03438,28.30863 -13.43497,22.42268 -7.35725,7.84794 -39.5652,25.50579 -52.14049,19.05927 -24.95066,47.74454 -92.12552,14.57474 -30.48858,-12.79668 0,0 -26.13023,9.99385 -25.49047,27.09114 -23.03138,7.28737 -46.70252,-17.09729 -6.71749,-28.8692 0,0 -12.79521,1.12114 -22.39162,15.13531 -9.27653,2.52255 -15.35425,-29.71005 30.06875,-25.78608 0,0 35.18683,-22.14239 65.25558,-16.81701 -19.5127,-14.01417 -22.07174,-28.86919 -20.79222,-35.59599 0.31988,-2.52256 -2.55904,5.32538 -3.51868,5.32538 0,0 -6.23767,-29.28962 1.75934,-37.69812 1.11958,-3.78383 -3.19881,2.80283 -3.19881,2.80283 0,0 3.51869,-18.35857 13.43498,-24.24452 -3.51869,2.24227 -5.75785,4.76482 -5.75785,4.76482 0,0 -44.78324,-0.56057 -53.57995,-6.30638 -4.7982,-1.6817 1.11958,1.6817 0.15994,2.66269 -0.47982,0.70071 -42.22419,-14.29445 -49.26156,-26.06636 -5.59791,-3.64368 -0.7997,1.54156 -2.87892,1.6817 -2.07923,0.14014 -17.59342,-18.35856 -18.55306,-18.35856 -0.95964,0 -1.27952,2.94297 -1.91928,3.22326 -0.63976,0.28028 -13.91479,-13.73389 -11.99551,-19.19942 2.71898,-4.90496 18.55305,-19.90013 20.47234,-22.14239 -23.51121,21.86211 -31.82809,38.9594 -32.94767,40.6411 -0.31988,1.54156 1.75934,0.98099 2.23916,2.10212 0.47982,1.12114 -6.55755,17.23744 -8.63677,18.91914 -2.07922,1.6817 -1.27952,0.14014 -1.27952,0.14014 0,0 -0.95964,13.17332 -32.46785,14.29446 -17.75336,-1.40142 -18.713,-6.16624 -21.43198,-7.7078 -2.71898,-1.54156 2.07922,2.10213 0.15994,3.08312 -1.91928,0.98099 -27.5097,-6.40273 -29.90881,-16.53673 -3.24878,-1.16492 2.55905,5.46553 -0.15994,3.92397 -2.71898,-1.54156 -25.16058,-19.57605 -25.43048,-34.75515 -1.11958,-7.52386 -0.7997,4.76482 -0.7997,4.76482 0,0 -19.99252,-37.55798 4.47832,-61.52222 0.31988,-1.6817 0.63977,-2.24227 0.63977,-2.24227 0,0 36.78623,-32.37274 35.50671,-32.51288 -1.27952,-0.14014 -4.47833,1.54156 -5.27803,0.84085 -0.7997,-0.70071 40.94468,-45.26578 43.18384,-45.12563 2.07922,-0.84085 1.97927,-0.14015 2.07922,-1.12114"
         id="path15" />
      <path
         style="fill:#f3a142;fill-opacity:1;fill-rule:nonzero;stroke:none;stroke-width:2.39542"
         d="m 451.43731,817.93757 c 0,0 -21.43198,23.26353 3.51868,58.85952 15.99402,1.12114 15.03438,2.38241 16.3139,3.64369 4.31838,-0.56057 39.98503,18.77899 -5.11809,19.61984 -14.07473,1.40142 -16.31389,20.18041 -58.53809,15.69588 -20.47234,35.31571 -67.81462,23.26352 -39.66516,-7.56766 0,0 -8.58679,6.89323 -8.90667,19.50598 -7.03736,11.77191 -56.98867,-1.28755 -16.04399,-23.99051 -9.17657,5.7896 -8.47683,4.86117 -13.80483,10.65077 -17.59341,3.78383 -4.42834,-33.07345 28.83921,-21.02126 16.47383,-7.56765 47.98204,-19.61984 62.69653,-15.13531 -0.37986,-0.28028 0.99961,0.97223 0.63976,0.70071 -8.24692,-6.16624 -14.31464,-10.86098 -12.47533,-22.00225 -1.43946,-1.12113 -2.3991,4.62468 -3.51868,3.64368 -1.11958,-0.98099 -3.19881,-22.14239 3.1988,-30.55089 -0.47982,-1.40142 -3.03886,2.52255 -3.1988,1.6817 -0.15994,-0.84085 1.91928,-17.09729 12.47533,-24.66495 16.63377,7.28737 21.1121,11.49162 33.58743,10.93106"
         id="path16" />
      <path
         style="fill:#f3a142;fill-opacity:1;fill-rule:nonzero;stroke:none;stroke-width:2.39542"
         d="m 451.43731,817.93757 c 0,0 -21.43198,23.26353 3.51868,58.85952 15.99402,1.12114 15.03438,2.38241 16.3139,3.64369 4.31838,-0.56057 39.98503,18.77899 -5.11809,19.61984 -14.07473,1.40142 -16.31389,20.18041 -58.53809,15.69588 -20.47234,35.31571 -67.81462,23.26352 -39.66516,-7.56766 0,0 -8.58679,6.89323 -8.90667,19.50598 -7.03736,11.77191 -56.98867,-1.28755 -16.04399,-23.99051 -9.17657,5.7896 -8.47683,4.86117 -13.80483,10.65077 -17.59341,3.78383 -4.42834,-33.07345 28.83921,-21.02126 16.47383,-7.56765 47.98204,-19.61984 62.69653,-15.13531 -0.37986,-0.28028 0.99961,0.97223 0.63976,0.70071 -8.24692,-6.16624 -14.31464,-10.86098 -12.47533,-22.00225 -1.43946,-1.12113 -2.3991,4.62468 -3.51868,3.64368 -1.11958,-0.98099 -3.19881,-22.14239 3.1988,-30.55089 -0.47982,-1.40142 -3.03886,2.52255 -3.1988,1.6817 -0.15994,-0.84085 1.91928,-17.09729 12.47533,-24.66495 16.63377,7.28737 21.1121,11.49162 33.58743,10.93106"
         id="path17" />
      <path
         style="fill:#4cacac;fill-opacity:1;fill-rule:nonzero;stroke:none;stroke-width:2.39542"
         d="m 451.43731,817.93757 c 0,0 -21.43198,23.26353 3.51868,58.85952 15.99402,1.12114 15.03438,2.38241 16.3139,3.64369 4.31838,-0.56057 39.98503,18.77899 -5.11809,19.61984 -14.07473,1.40142 -16.31389,20.18041 -58.53809,15.69588 -20.47234,35.31571 -67.81462,23.26352 -39.66516,-7.56766 0,0 -8.58679,6.89323 -8.90667,19.50598 -7.03736,11.77191 -56.98867,-1.28755 -16.04399,-23.99051 -9.17657,5.7896 -8.47683,4.86117 -13.80483,10.65077 -17.59341,3.78383 -4.42834,-33.07345 28.83921,-21.02126 16.47383,-7.56765 47.98204,-19.61984 62.69653,-15.13531 -0.37986,-0.28028 0.99961,0.97223 0.63976,0.70071 -8.24692,-6.16624 -14.31464,-10.86098 -12.47533,-22.00225 -1.43946,-1.12113 -2.3991,4.62468 -3.51868,3.64368 -1.11958,-0.98099 -3.19881,-22.14239 3.1988,-30.55089 -0.47982,-1.40142 -3.03886,2.52255 -3.1988,1.6817 -0.15994,-0.84085 1.91928,-17.09729 12.47533,-24.66495 16.63377,7.28737 21.1121,11.49162 33.58743,10.93106"
         id="path18" />
      <path
         style="fill:none;stroke:#211e1e;stroke-width:2.39542;stroke-linecap:butt;stroke-linejoin:miter;stroke-miterlimit:4;stroke-opacity:1"
         d="m 451.43731,817.93757 c 0,0 -21.43198,23.26353 3.51868,58.85952 15.99402,1.12114 15.03438,2.38241 16.3139,3.64369 4.31838,-0.56057 39.98503,18.77899 -5.11809,19.61984 -14.07473,1.40142 -16.31389,20.18041 -58.53809,15.69588 -20.47234,35.31571 -67.81462,23.26352 -39.66516,-7.56766 0,0 -8.58679,6.89323 -8.90667,19.50598 -7.03736,11.77191 -56.98867,-1.28755 -16.04399,-23.99051 -9.17657,5.7896 -8.47683,4.86117 -13.80483,10.65077 -17.59341,3.78383 -4.42834,-33.07345 28.83921,-21.02126 16.47383,-7.56765 47.98204,-19.61984 62.69653,-15.13531 -0.37986,-0.28028 0.99964,0.97223 0.63976,0.70071 -8.24692,-6.16624 -14.31464,-10.86098 -12.47533,-22.00225 -1.43946,-1.12113 -2.3991,4.62468 -3.51868,3.64368 -1.11958,-0.98099 -3.19881,-22.14239 3.1988,-30.55089 -0.47982,-1.40142 -3.03886,2.52255 -3.1988,1.6817 -0.15994,-0.84085 1.91928,-17.09729 12.47533,-24.66495 16.63377,7.28737 21.1121,11.49162 33.58743,10.93106 z m 0,0"
         id="path19" />
      <path
         style="fill:none;stroke:#211e1e;stroke-width:2.39542;stroke-linecap:butt;stroke-linejoin:miter;stroke-miterlimit:4;stroke-opacity:1"
         d="m 311.00986,623.98141 c 0.10006,-0.98099 -9.48644,-16.53672 -0.95964,-37.83827 l -5.75784,12.05219 c 0,0 4.15844,-44.84535 11.19581,-50.7313 7.03736,-5.88596 -7.67713,8.12822 -7.67713,8.12822 0,0 1.91928,-31.11147 12.47533,-34.75515 10.55605,-3.64369 -6.3976,2.52255 -6.3976,2.52255 0,0 10.87593,-43.72422 64.93569,-81.28221 -1.91928,-0.84085 -3.83856,0.28029 -3.83856,0.28029 0,0 51.18085,-35.87629 86.0478,-42.04252 -0.31988,2.24227 -3.19881,4.48453 -4.47833,5.32538 -1.27952,0.84085 16.3139,-14.57474 63.97606,-10.37048 0,1.96198 -3.51868,3.3634 -3.51868,3.3634 0,0 31.34827,-10.37049 59.81761,8.68879 1.27952,1.12113 -11.19581,2.24226 -11.19581,2.24226 0,0 38.38564,1.6817 41.90432,9.24936 -11.83557,0 -15.67413,3.08312 -15.67413,3.08312 0,0 24.3109,1.6817 34.22719,17.65785 -4.79821,-1.12113 -10.55605,-0.56056 -10.55605,-0.56056 0,0 30.06874,13.73389 39.02539,28.58891 -3.83856,-2.24227 -12.15545,-2.24227 -12.15545,-2.24227 0,0 26.86994,28.02835 24.3109,29.42977 -2.55904,1.40141 -15.35425,-5.32539 -15.35425,-5.32539 0,0 19.83258,36.71713 15.03437,36.43685 -4.7982,-0.28028 -4.15844,-2.52255 -4.15844,-2.52255 0,0 21.75186,49.61017 17.27353,49.89045 -4.47832,0.28029 -5.75784,-2.52255 -5.75784,-2.52255 0,0 12.47533,35.03544 12.15545,45.12564 -0.31988,10.09021 -6.71749,-5.88595 -6.71749,-5.88595 0,0 7.03737,21.86211 4.15845,23.26353 -2.87893,1.40141 -2.87893,-1.6817 -2.87893,-1.6817 0,0 3.83857,15.97615 2.23917,17.65785 -1.5994,1.6817 -6.07773,-0.84085 -6.07773,-0.84085 0,0 9.59641,17.37758 0.95964,30.27062 -3.51868,-0.28029 -3.51868,-3.08312 -3.51868,-3.08312 0,0 0.31988,21.58183 -2.87892,25.50579 -3.19881,3.92397 -3.51869,-7.00708 -3.51869,-7.00708 0,0 0.31988,31.95231 -9.59641,33.35373 -1.91928,-1.40142 -1.91928,-4.20425 -1.91928,-4.20425 0,0 -1.91928,32.51288 -16.95365,33.07345 -0.95964,-2.52256 0.31988,-5.04511 0.31988,-5.04511 0,0 -19.19282,30.83118 -25.59042,29.42977 -0.63977,-1.12114 0,-2.52255 0,-2.52255 0,0 -17.27354,21.58182 -21.75186,20.46069 -4.47833,-1.12114 -21.1121,16.81701 -51.18085,19.90012 0,0 -45.74288,58.01868 31.02839,88.00901 45.10312,23.26353 -15.03438,28.30863 -13.43497,22.42268 -7.35725,7.84794 -39.5652,25.50579 -52.14049,19.05927 -24.95066,47.74454 -92.12552,14.57474 -30.48858,-12.79668 0,0 -26.13023,9.99385 -25.49047,27.09114 -23.03138,7.28737 -46.70252,-17.09729 -6.71749,-28.8692 0,0 -12.79521,1.12114 -22.39162,15.13531 -9.27653,2.52255 -15.35425,-29.71005 30.06875,-25.78608 0,0 35.18683,-22.14239 65.25558,-16.81701 -19.5127,-14.01417 -22.07174,-28.86919 -20.79222,-35.59599 0.31988,-2.52256 -2.55904,5.32538 -3.51868,5.32538 0,0 -6.23767,-29.28962 1.75934,-37.69812 1.11958,-3.78383 -3.19881,2.80283 -3.19881,2.80283 0,0 3.51869,-18.35857 13.43498,-24.24452 -3.51869,2.24227 -5.75785,4.76482 -5.75785,4.76482 0,0 -44.78324,-0.56057 -53.57995,-6.30638 -4.7982,-1.6817 1.11958,1.6817 0.15994,2.66269 -0.47982,0.70071 -42.22419,-14.29445 -49.26156,-26.06636 -5.59791,-3.64368 -0.7997,1.54156 -2.87892,1.6817 -2.07923,0.14014 -17.59342,-18.35856 -18.55306,-18.35856 -0.95964,0 -1.27952,2.94297 -1.91928,3.22326 -0.63976,0.28028 -13.91479,-13.73389 -11.99551,-19.19942 2.71898,-4.90496 18.55305,-19.90013 20.47234,-22.14239 -23.51121,21.86211 -31.82809,38.9594 -32.94767,40.6411 -0.31988,1.54156 1.75934,0.98099 2.23916,2.10212 0.47982,1.12114 -6.55755,17.23744 -8.63677,18.91914 -2.07922,1.6817 -1.27952,0.14014 -1.27952,0.14014 0,0 -0.95964,13.17332 -32.46785,14.29446 -17.75336,-1.40142 -18.713,-6.16624 -21.43198,-7.7078 -2.71898,-1.54156 2.07922,2.10213 0.15994,3.08312 -1.91928,0.98099 -27.5097,-6.40273 -29.90881,-16.53673 -3.24878,-1.16492 2.55905,5.46553 -0.15994,3.92397 -2.71898,-1.54156 -25.16058,-19.57605 -25.43048,-34.75515 -1.11958,-7.52386 -0.7997,4.76482 -0.7997,4.76482 0,0 -19.99252,-37.55798 4.47832,-61.52222 0.31988,-1.6817 0.63977,-2.24227 0.63977,-2.24227 0,0 36.78623,-32.37274 35.50671,-32.51288 -1.27952,-0.14014 -4.47833,1.54156 -5.27803,0.84085 -0.7997,-0.70071 40.94468,-45.26578 43.18384,-45.12563 2.07922,-0.84085 1.97927,-0.14015 2.07922,-1.12114 z m 0,0"
         id="path20" />
      <path
         style="fill:none;stroke:#211e1e;stroke-width:2.39542;stroke-linecap:butt;stroke-linejoin:miter;stroke-miterlimit:4;stroke-opacity:1"
         d="m 451.43731,817.93757 c 0,0 -21.43198,23.26353 3.51868,58.85952 15.99402,1.12114 15.03438,2.38241 16.3139,3.64369 4.31838,-0.56057 39.98503,18.77899 -5.11809,19.61984 -14.07473,1.40142 -16.31389,20.18041 -58.53809,15.69588 -20.47234,35.31571 -67.81462,23.26352 -39.66516,-7.56766 0,0 -8.58679,6.89323 -8.90667,19.50598 -7.03736,11.77191 -56.98867,-1.28755 -16.04399,-23.99051 -9.17657,5.7896 -8.47683,4.86117 -13.80483,10.65077 -17.59341,3.78383 -4.42834,-33.07345 28.83921,-21.02126 16.47383,-7.56765 47.98204,-19.61984 62.69653,-15.13531 -0.37986,-0.28028 0.99964,0.97223 0.63976,0.70071 -8.24692,-6.16624 -14.31464,-10.86098 -12.47533,-22.00225 -1.43946,-1.12113 -2.3991,4.62468 -3.51868,3.64368 -1.11958,-0.98099 -3.19881,-22.14239 3.1988,-30.55089 -0.47982,-1.40142 -3.03886,2.52255 -3.1988,1.6817 -0.15994,-0.84085 1.91928,-17.09729 12.47533,-24.66495 16.63377,7.28737 21.1121,11.49162 33.58743,10.93106 z m 0,0"
         id="path21" />
      <path
         style="fill:none;stroke:#211e1e;stroke-width:2.39542;stroke-linecap:butt;stroke-linejoin:miter;stroke-miterlimit:4;stroke-opacity:1"
         d="m 451.43731,817.93757 c 0,0 -21.43198,23.26353 3.51868,58.85952 15.99402,1.12114 15.03438,2.38241 16.3139,3.64369 4.31838,-0.56057 39.98503,18.77899 -5.11809,19.61984 -14.07473,1.40142 -16.31389,20.18041 -58.53809,15.69588 -20.47234,35.31571 -67.81462,23.26352 -39.66516,-7.56766 0,0 -8.58679,6.89323 -8.90667,19.50598 -7.03736,11.77191 -56.98867,-1.28755 -16.04399,-23.99051 -9.17657,5.7896 -8.47683,4.86117 -13.80483,10.65077 -17.59341,3.78383 -4.42834,-33.07345 28.83921,-21.02126 16.47383,-7.56765 47.98204,-19.61984 62.69653,-15.13531 -0.37986,-0.28028 0.99964,0.97223 0.63976,0.70071 -8.24692,-6.16624 -14.31464,-10.86098 -12.47533,-22.00225 -1.43946,-1.12113 -2.3991,4.62468 -3.51868,3.64368 -1.11958,-0.98099 -3.19881,-22.14239 3.1988,-30.55089 -0.47982,-1.40142 -3.03886,2.52255 -3.1988,1.6817 -0.15994,-0.84085 1.91928,-17.09729 12.47533,-24.66495 16.63377,7.28737 21.1121,11.49162 33.58743,10.93106 z m 0,0"
         id="path22" />
      <path
         style="fill:none;stroke:#211e1e;stroke-width:2.39542;stroke-linecap:butt;stroke-linejoin:miter;stroke-miterlimit:4;stroke-opacity:1"
         d="m 451.43731,817.93757 c 0,0 -21.43198,23.26353 3.51868,58.85952 15.99402,1.12114 15.03438,2.38241 16.3139,3.64369 4.31838,-0.56057 39.98503,18.77899 -5.11809,19.61984 -14.07473,1.40142 -16.31389,20.18041 -58.53809,15.69588 -20.47234,35.31571 -67.81462,23.26352 -39.66516,-7.56766 0,0 -8.58679,6.89323 -8.90667,19.50598 -7.03736,11.77191 -56.98867,-1.28755 -16.04399,-23.99051 -9.17657,5.7896 -8.47683,4.86117 -13.80483,10.65077 -17.59341,3.78383 -4.42834,-33.07345 28.83921,-21.02126 16.47383,-7.56765 47.98204,-19.61984 62.69653,-15.13531 -0.37986,-0.28028 0.99964,0.97223 0.63976,0.70071 -8.24692,-6.16624 -14.31464,-10.86098 -12.47533,-22.00225 -1.43946,-1.12113 -2.3991,4.62468 -3.51868,3.64368 -1.11958,-0.98099 -3.19881,-22.14239 3.1988,-30.55089 -0.47982,-1.40142 -3.03886,2.52255 -3.1988,1.6817 -0.15994,-0.84085 1.91928,-17.09729 12.47533,-24.66495 16.63377,7.28737 21.1121,11.49162 33.58743,10.93106 z m 0,0"
         id="path23" />
      <path
         style="fill:#ffffff;fill-opacity:1;fill-rule:nonzero;stroke:none;stroke-width:2.39542"
         d="m 432.02457,534.93885 c 0,42.10385 -28.30941,68.7658 -49.04164,68.7658 -20.73224,0 -37.52595,-26.66195 -37.52595,-68.7658 0,-42.10382 31.72813,-76.60496 52.46036,-76.60496 20.72223,0 34.10723,34.50114 34.10723,76.60496"
         id="path24" />
      <path
         style="fill:none;stroke:#211e1e;stroke-width:2.39542;stroke-linecap:butt;stroke-linejoin:miter;stroke-miterlimit:4;stroke-opacity:1"
         d="m 432.02457,534.93885 c 0,42.10385 -28.30941,68.7658 -49.04164,68.7658 -20.73224,0 -37.52595,-26.66195 -37.52595,-68.7658 0,-42.10382 31.72813,-76.60496 52.46036,-76.60496 20.72223,0 34.10723,34.50114 34.10723,76.60496 z m 0,0"
         id="path25" />
      <path
         style="fill:#ffffff;fill-opacity:1;fill-rule:nonzero;stroke:none;stroke-width:2.39542"
         d="m 536.9453,539.80879 c 0,42.09506 -35.13685,70.2548 -55.85908,70.2548 -20.73226,0 -36.26644,-21.05631 -36.26644,-63.16013 0,-42.10382 35.14686,-84.27774 55.87909,-84.27774 20.73224,0 36.24643,35.07048 36.24643,77.18307"
         id="path26" />
      <path
         style="fill:none;stroke:#211e1e;stroke-width:2.39542;stroke-linecap:butt;stroke-linejoin:miter;stroke-miterlimit:4;stroke-opacity:1"
         d="m 536.9453,539.80879 c 0,42.09506 -35.13685,70.2548 -55.85908,70.2548 -20.73224,0 -36.26644,-21.05631 -36.26644,-63.16013 0,-42.10382 35.14686,-84.27774 55.87909,-84.27774 20.73224,0 36.24643,35.07048 36.24643,77.18307 z m 0,0"
         id="path27" />
      <path
         style="fill:#211e1e;fill-opacity:1;fill-rule:nonzero;stroke:none;stroke-width:2.39542"
         d="m 515.0335,578.19009 c -1.37948,11.59674 -1.37948,11.87702 -7.13732,20.70595 -5.11808,3.64369 -5.11808,4.20425 -11.67563,7.42751 -3.83856,2.52255 -10.37612,3.74004 -15.13433,3.74004 -7.57717,-0.9372 -14.93442,-4.44075 -14.93442,-4.44075 0,0 -4.31838,-2.80283 -7.59715,-8.04938 -1.23955,-3.52108 -1.93927,-7.53263 -1.93927,-12.00839 0,-20.13662 18.72297,-43.006 33.17757,-43.006 14.4546,0 25.24055,15.50317 25.24055,35.63102"
         id="path28" />
      <path
         style="fill:#211e1e;fill-opacity:1;fill-rule:nonzero;stroke:none;stroke-width:2.39542"
         d="m 414.27121,571.88371 c 0,7.30491 -2.02924,14.32074 -5.318,20.30304 -5.01812,5.30787 -12.37537,7.83043 -15.09435,9.23184 -2.71899,1.40142 -8.64678,2.10213 -12.47533,2.10213 -6.17769,0 -8.62674,-1.6817 -13.59492,-5.46553 -4.04848,-3.08312 -5.91778,-4.62468 -9.43646,-8.96907 -2.39911,-4.34439 -2.49906,-5.31662 -2.49906,-9.82743 0,-20.13662 18.72297,-43.006 33.17757,-43.006 14.4546,0 25.24055,15.50317 25.24055,35.63102"
         id="path29" />
      <path
         style="fill:#ffffff;fill-opacity:1;fill-rule:nonzero;stroke:none;stroke-width:2.39542"
         d="m 396.35792,558.1148 c 0,8.07566 -5.7678,15.27545 -11.15582,15.27545 -5.39799,0 -10.63602,-4.2393 -10.63602,-12.32371 0,-8.06692 6.98739,-17.2462 12.37535,-17.2462 5.398,0 9.41649,6.2188 9.41649,14.29446"
         id="path30" />
      <path
         style="fill:#ffffff;fill-opacity:1;fill-rule:nonzero;stroke:none;stroke-width:2.39542"
         d="m 496.56042,564.07082 c 0,8.07566 -5.7678,15.27545 -11.15582,15.27545 -5.39799,0 -10.63602,-4.24804 -10.63602,-12.31496 0,-8.08443 6.98739,-17.25495 12.37535,-17.25495 5.398,0 9.41649,6.2188 9.41649,14.29446"
         id="path31" />
      <path
         style="fill:#211e1e;fill-opacity:1;fill-rule:nonzero;stroke:none;stroke-width:2.39542"
         d="m 397.85736,442.70808 c 1.33951,0.51678 11.51569,-5.0451 26.86995,-3.22326 1.5994,-5.18524 0.0798,-6.58666 -1.51944,-7.2173 -1.5994,-0.63063 -25.67039,7.42752 -25.67039,7.42752 0,0 -1.01962,2.49627 0.31988,3.01304"
         id="path32" />
      <path
         style="fill:#211e1e;fill-opacity:1;fill-rule:nonzero;stroke:none;stroke-width:2.39542"
         d="m 500.47895,440.95631 c 0,0 13.87482,0.56057 23.89106,7.65524 3.19881,0.3854 3.61864,-0.92844 3.61864,-0.92844 0,0 -20.67225,-20.18041 -28.98913,-12.52517 -2.13921,6.9195 1.47943,5.79837 1.47943,5.79837"
         id="path33" />
      <path
         id="path45"
         style="fill:#211e1e;fill-opacity:1;fill-rule:nonzero;stroke:none;stroke-width:2.39542"
         d="m 259.95117,727.74316 c -4.61141,-0.0688 -9.14722,1.31095 -12.5874,5.4712 -1.87804,0.86622 -3.7106,1.99832 -4.03272,2.75244 -0.63976,1.49776 -1.91946,13.45423 -0.85986,14.19873 1.0596,0.75327 12.36499,23.35886 15.78369,23.91943 3.40875,0.56056 10.23606,9.71339 20.68213,8.03174 0.0212,0.0145 22.24923,15.16875 33.25781,1.85596 1.87804,-0.86623 3.7106,-1.99832 4.03272,-2.75245 0.63976,-1.49776 1.91946,-13.45276 0.85986,-14.19726 -1.0596,-0.75327 -12.36499,-23.36033 -15.78369,-23.9209 -3.40874,-0.56056 -10.23605,-9.71339 -20.68213,-8.03174 -0.0146,-0.01 -10.52531,-7.17568 -20.67041,-7.32715 z"
         sodipodi:nodetypes="scsccccscccs" />
      <path
         style="fill:#211e1e;fill-opacity:1;fill-rule:nonzero;stroke:none;stroke-width:2.39542"
         d="m 295.54567,718.62087 c 0,0 8.31689,-2.24227 14.28463,3.74004 3.83856,0.56056 3.41872,-1.6817 3.41872,-1.6817 0,0 -4.89816,-6.35894 -16.63377,-5.42174 -2.98886,1.8744 -1.06958,3.3634 -1.06958,3.3634"
         id="path47" />
      <path
         style="fill:#211e1e;fill-opacity:1;fill-rule:nonzero;stroke:none;stroke-width:2.39542"
         d="m 334.78096,731.32998 c 0,0 6.61753,1.31383 5.97777,13.26967 2.13921,1.12113 2.55904,0.18387 3.61864,-0.9372 1.07961,-1.12113 -3.82853,-15.50317 -7.87704,-14.75867 -2.55904,1.489 -1.71937,2.4262 -1.71937,2.4262"
         id="path49" />
    </g>
  </g>
</svg>
