<?xml version="1.0" encoding="UTF-8" standalone="no"?>
<!-- Created with Inkscape (http://www.inkscape.org/) -->

<svg
   width="1024"
   height="1024"
   id="svg2"
   version="1.1"
   inkscape:version="1.4.2 (ebf0e940, 2025-05-08)"
   sodipodi:docname="hearbert.svg"
   inkscape:export-filename="hearbert.png"
   inkscape:export-xdpi="300"
   inkscape:export-ydpi="300"
   xml:space="preserve"
   xmlns:inkscape="http://www.inkscape.org/namespaces/inkscape"
   xmlns:sodipodi="http://sodipodi.sourceforge.net/DTD/sodipodi-0.dtd"
   xmlns:xlink="http://www.w3.org/1999/xlink"
   xmlns="http://www.w3.org/2000/svg"
   xmlns:svg="http://www.w3.org/2000/svg"
   xmlns:rdf="http://www.w3.org/1999/02/22-rdf-syntax-ns#"
   xmlns:cc="http://creativecommons.org/ns#"
   xmlns:dc="http://purl.org/dc/elements/1.1/"><defs
     id="defs4"><linearGradient
       id="linearGradient3902"><stop
         style="stop-color:#ffffff;stop-opacity:1;"
         offset="0"
         id="stop3904" /><stop
         style="stop-color:#fff9f9;stop-opacity:0.72868216;"
         offset="1"
         id="stop3906" /></linearGradient><linearGradient
       id="linearGradient4110"><stop
         style="stop-color:#86a8a8;stop-opacity:0.69803923;"
         offset="0"
         id="stop4112" /><stop
         style="stop-color:#ffffff;stop-opacity:1;"
         offset="1"
         id="stop4114" /></linearGradient><inkscape:perspective
       sodipodi:type="inkscape:persp3d"
       inkscape:vp_x="-1018.799 : 1355.2208 : 1"
       inkscape:vp_y="0 : 1971.1104 : 0"
       inkscape:vp_z="966.66748 : 1433.6212 : 1"
       inkscape:persp3d-origin="-233.90998 : 1118.9963 : 1"
       id="perspective4094" /><linearGradient
       id="linearGradient4483"><stop
         style="stop-color:#056aff;stop-opacity:1;"
         offset="0"
         id="stop4485" /><stop
         style="stop-color:#ffffff;stop-opacity:0;"
         offset="1"
         id="stop4487" /></linearGradient><linearGradient
       inkscape:collect="always"
       xlink:href="#linearGradient4110"
       id="linearGradient4116"
       x1="537.46191"
       y1="621.09766"
       x2="372.2811"
       y2="-270.99075"
       gradientUnits="userSpaceOnUse"
       gradientTransform="matrix(1,0,0,1.001095,6.1962891e-7,-3.4627221e-5)" /><linearGradient
       inkscape:collect="always"
       xlink:href="#linearGradient3902"
       id="linearGradient3908"
       x1="509.1376"
       y1="513.90118"
       x2="467.15973"
       y2="1029.1136"
       gradientUnits="userSpaceOnUse"
       gradientTransform="matrix(1.2524295,0,0,1.2524296,-146.91309,-129.30104)" /><linearGradient
       id="linearGradient116"
       inkscape:collect="always"><stop
         style="stop-color:#e0e0e0;stop-opacity:0.9215017;"
         offset="0.51073164"
         id="stop119" /><stop
         style="stop-color:#86a8a8;stop-opacity:0.69795221;"
         offset="1"
         id="stop117" /></linearGradient><radialGradient
       inkscape:collect="always"
       xlink:href="#linearGradient116"
       id="radialGradient117"
       cx="512"
       cy="512"
       fx="512"
       fy="512"
       r="512"
       gradientUnits="userSpaceOnUse"
       gradientTransform="matrix(1.0888544,0.26460712,-0.2772061,1.1406988,96.436066,-207.51661)" /></defs><sodipodi:namedview
     id="base"
     pagecolor="#ffffff"
     bordercolor="#666666"
     borderopacity="1.0"
     inkscape:pageopacity="0.0"
     inkscape:pageshadow="2"
     inkscape:zoom="0.23373104"
     inkscape:cx="248.14847"
     inkscape:cy="314.46401"
     inkscape:document-units="px"
     inkscape:current-layer="layer5"
     showgrid="false"
     showguides="false"
     inkscape:guide-bbox="true"
     fit-margin-top="0"
     fit-margin-left="0"
     fit-margin-right="0"
     fit-margin-bottom="0"
     inkscape:window-width="1712"
     inkscape:window-height="970"
     inkscape:window-x="0"
     inkscape:window-y="39"
     inkscape:window-maximized="1"
     inkscape:showpageshadow="false"
     borderlayer="true"
     showborder="false"
     inkscape:snap-global="false"
     inkscape:snap-page="false"
     inkscape:snap-bbox="true"
     inkscape:pagecheckerboard="0"
     inkscape:deskcolor="#d1d1d1"><sodipodi:guide
       orientation="0,1"
       position="-10.429825,956.71547"
       id="guide3101"
       inkscape:locked="false" /><sodipodi:guide
       orientation="1,0"
       position="956.5625,59.8125"
       id="guide3103"
       inkscape:locked="false" /><sodipodi:guide
       orientation="0,1"
       position="1246.875,315.625"
       id="guide3105"
       inkscape:locked="false" /><sodipodi:guide
       orientation="1,0"
       position="67.351921,64.523494"
       id="guide3107"
       inkscape:locked="false" /><sodipodi:guide
       orientation="0,1"
       position="961.5,67.5"
       id="guide3109"
       inkscape:locked="false" /><sodipodi:guide
       orientation="1,0"
       position="319.08193,67.707547"
       id="guide3111"
       inkscape:locked="false" /><sodipodi:guide
       orientation="1,0"
       position="511.68014,67.707547"
       id="guide3113"
       inkscape:locked="false" /><sodipodi:guide
       orientation="1,0"
       position="706.1875,64.734375"
       id="guide3115"
       inkscape:locked="false" /><sodipodi:guide
       orientation="0,1"
       position="-21.213203,1024"
       id="guide3117"
       inkscape:locked="false" /><sodipodi:guide
       orientation="0,1"
       position="0,0"
       id="guide3119"
       inkscape:locked="false" /><sodipodi:guide
       orientation="1,0"
       position="0,1042.6289"
       id="guide3121"
       inkscape:locked="false" /><sodipodi:guide
       orientation="0,1"
       position="-6.8942911,705"
       id="guide3123"
       inkscape:locked="false" /><sodipodi:guide
       orientation="1,0"
       position="1024,1037.75"
       id="guide3125"
       inkscape:locked="false" /><sodipodi:guide
       orientation="0,1"
       position="-27.223611,512.65241"
       id="guide3127"
       inkscape:locked="false" /><inkscape:grid
       type="xygrid"
       id="grid4235"
       empspacing="5"
       visible="false"
       enabled="true"
       snapvisiblegridlinesonly="true"
       originx="0"
       originy="0"
       spacingy="1"
       spacingx="1"
       units="px" /><sodipodi:guide
       orientation="1,0"
       position="511.68014,430.8932"
       id="guide4003"
       inkscape:locked="false" /></sodipodi:namedview><metadata
     id="metadata7"><rdf:RDF><cc:Work
         rdf:about=""><dc:format>image/svg+xml</dc:format><dc:type
           rdf:resource="http://purl.org/dc/dcmitype/StillImage" /></cc:Work></rdf:RDF></metadata><g
     inkscape:groupmode="layer"
     id="layer5"
     inkscape:label="Background"
     style="display:inline"><rect
       style="fill:#ffffff;fill-opacity:1;stroke-width:13.3313;stroke-linecap:round"
       id="rect119"
       width="1024"
       height="1024"
       x="4.2632564e-14"
       y="5.6843419e-14" /><rect
       style="color:#000000;display:inline;overflow:visible;visibility:visible;fill:url(#linearGradient4116);fill-opacity:1;fill-rule:nonzero;stroke:none;stroke-width:2;marker:none;enable-background:accumulate"
       id="rect4108"
       width="1024"
       height="1024"
       x="0"
       y="3.1583717e-05" /><rect
       style="fill:url(#radialGradient117);fill-opacity:1;stroke-width:13.3313;stroke-linecap:round"
       id="rect116"
       width="1024"
       height="1024"
       x="0"
       y="0" /><path
       id="path2"
       style="fill:#ffffff;stroke:#211e1e;stroke-width:8;stroke-linecap:butt;stroke-linejoin:miter;stroke-miterlimit:4;stroke-dasharray:none;stroke-opacity:1"
       d="m 751.74724,361.57124 47.05833,71.11734 -79.27105,7.89211 67.89724,68.01 -97.49755,8.23032 64.56025,85.76297 C 694.37636,590.71725 616.76336,584.50127 516.81086,585.98633 90.980931,579.70884 95.085711,718.4646 95.121411,719.47852 c -7.51449,20.46867 -10.91983,43.93094 -9.58985,70.79687 15.906799,110.09719 137.336199,194.08639 430.148399,190.68159 310.9667,6.7963 438.6465,-84.8682 438.6465,-189.53901 0,-65.15517 -6.79432,-130.99082 -115.20712,-170.04688 l -64.53741,-70.10978 113.86781,-29.00953 -91.97596,-43.74006 76.44371,-39.20569 z"
       sodipodi:nodetypes="ccccccccccscccccc" /><g
       id="g113"
       transform="translate(0,515.46087)"><path
         style="fill:#211e1e;fill-opacity:1;fill-rule:nonzero;stroke:none;stroke-width:3.40479"
         d="m 282.71195,162.53459 c 0,0 -129.94075,-24.97736 -138.45273,109.51199 14.17776,86.26364 60.99367,81.71504 87.93941,89.08322 0,0 88.81725,-1.40979 76.47487,-101 -31.49434,-80.43825 -117.89098,-49.36951 -115.76298,5.95839 -2.9792,46.81591 64.26548,84.26864 79.58705,15.74717 0,0 5.53279,-31.49434 -24.25916,-32.77114 -29.79194,-1.2768 -23.83355,20.00316 -23.83355,20.00316 0,0 0.4256,13.19358 12.76797,11.06558 6.38399,-6.80959 7.66079,-10.63998 7.66079,-10.63998 0,0 10.63998,0.8512 10.21438,6.80959 -0.4256,5.95839 -3.40479,21.27996 -16.17277,21.70556 -12.76798,0.4256 -33.62234,-3.4048 -25.53595,-42.55992 17.87516,-30.21755 40.43192,-21.70556 40.43192,-21.70556 0,0 22.98236,-0.4256 34.47354,45.11351 8.08638,47.24151 -46.39032,55.3279 -53.1999,55.3279 -6.80959,0 -57.0303,4.68159 -65.54228,-72.77746 13.19358,-68.52147 49.36951,-64.98369 53.91811,-65.96788 4.53529,-0.98419 50.35369,-4.25599 61.84487,4.25599 3.4048,-29.79194 -2.55359,-37.16012 -2.55359,-37.16012"
         id="path3" /><path
         style="fill:#211e1e;fill-opacity:1;fill-rule:nonzero;stroke:none;stroke-width:3.40479"
         d="m 326.76147,312.9041 -5.74559,-162.3661 2.12799,-10.21438 c 0,0 21.91836,-31.70714 41.92152,1.7024 0,3.83039 -0.2128,7.23519 -0.2128,7.23519 l -16.59837,164.70689 -21.49275,-1.064"
         id="path5-7" /><path
         style="fill:#211e1e;fill-opacity:1;fill-rule:nonzero;stroke:none;stroke-width:3.40479"
         d="m 381.74357,344.39844 43.6771,-196.06824 c 0,0 20.72137,0.8512 28.66145,5.67909 -6.53029,20.70806 -26.10785,79.16146 -46.24401,195.77564 -13.61917,0.5719 -26.09454,-5.38649 -26.09454,-5.38649"
         id="path6" /><path
         style="fill:#211e1e;fill-opacity:1;fill-rule:nonzero;stroke:none;stroke-width:3.40479"
         d="m 443.02986,357.16642 c 0,0 43.69041,-198.04994 47.3745,-198.90113 3.68409,-0.8512 27.23835,7.66078 27.23835,9.64247 0,1.99501 -50.7793,192.66345 -46.24401,193.51465 4.53528,0.8512 -28.36884,-3.11219 -28.36884,-4.25599"
         id="path7" /><path
         style="fill:#211e1e;fill-opacity:1;fill-rule:nonzero;stroke:none;stroke-width:3.40479"
         d="m 370.94397,275.45137 c 0,0 123.15779,21.83855 154.08023,37.16012 7.66078,-22.41045 7.94008,-30.64314 7.94008,-30.64314 0,0 -151.79261,-36.88083 -158.8815,-32.34554 -2.8462,12.76798 -3.13881,25.82856 -3.13881,25.82856"
         id="path8" /><path
         style="fill:#211e1e;fill-opacity:1;fill-rule:nonzero;stroke:none;stroke-width:3.40479"
         d="m 379.18998,220.68206 c 0,0 127.66644,13.06059 155.75599,29.79195 11.35819,-15.32157 8.51198,-27.23835 8.51198,-27.23835 0,0 -92.20872,-27.79694 -162.00699,-30.92244 -7.66078,16.45207 -2.26098,28.36884 -2.26098,28.36884"
         id="path9" /><path
         style="fill:#211e1e;fill-opacity:1;fill-rule:nonzero;stroke:none;stroke-width:3.40479"
         d="m 573.8218,311.54749 c 0,0 -6.4638,-79.00183 -2.72649,-82.40662 0.34579,-4.0831 3.07228,-8.51199 3.07228,-8.51199 0,0 56.51161,-11.22519 58.214,-47.99962 1.7024,-36.77443 -33.70214,-28.26244 -33.70214,-28.26244 0,0 -17.36976,4.42888 -17.02397,34.04793 -3.40479,22.80946 -31.66723,11.57099 -33.71542,7.15538 -2.03491,-4.42889 -20.42876,-44.9539 49.7153,-68.44166 0,0 45.96471,-8.84448 65.03687,41.88161 0,0 5.4397,25.53596 -2.7265,38.80934 -8.17947,13.28666 -14.98905,32.69133 -55.50079,45.28641 1.0241,18.04806 -1.02409,67.76336 -1.02409,67.76336 0,0 -14.29748,3.73731 -29.61905,0.6783"
         id="path11" /><path
         style="fill:#211e1e;fill-opacity:1;fill-rule:nonzero;stroke:none;stroke-width:3.40479"
         d="m 660.98983,355.46402 c 0,0 47.99962,13.27338 87.83305,2.04819 39.84671,-11.23848 73.89464,-44.60811 78.65604,-103.84621 -0.6783,-61.63207 -40.51173,-85.81142 -79.33434,-85.46563 -38.80934,0.34579 -76.60786,20.42876 -80.69096,62.98868 -4.08309,42.55992 4.42889,79.33435 61.96459,83.41745 57.54898,4.08309 61.63208,-62.31038 61.63208,-62.31038 0,0 4.08309,-42.89243 -45.28641,-46.97553 -49.36951,-4.09638 -45.96472,40.16594 -45.96472,40.16594 0,0 -1.70239,35.41782 30.98894,36.44192 32.67805,1.01081 30.64314,-27.58414 30.64314,-27.58414 0,0 0,-17.36976 -19.41795,-22.47695 -15.65408,0 -8.84449,13.28666 -8.84449,13.28666 0,0 16.67817,17.70227 -2.04819,19.05888 -18.72637,1.36988 -15.99987,-23.14198 -15.99987,-23.14198 0,0 6.13128,-23.83355 27.91665,-20.42876 21.79864,3.40479 24.51186,8.8445 29.96484,31.65396 5.45298,22.82274 -24.85765,44.26231 -43.23823,43.9298 -15.32157,-3.07228 -42.55992,-1.70239 -43.58401,-51.7502 -1.02409,-50.06109 59.92968,-54.4767 59.92968,-54.4767 0,0 52.7743,-2.39398 57.88149,63.66698 5.10719,66.04769 -62.31038,76.26207 -72.87055,76.26207 -32.67805,1.36988 -55.8333,-8.1662 -62.31038,-13.27339 -5.10719,4.0831 -9.5228,39.15513 -7.8204,38.80934"
         id="path12" /><path
         style="fill:#211e1e;fill-opacity:1;fill-rule:nonzero;stroke:none;stroke-width:3.40479"
         d="m 857.44376,350.01104 c 0,14.20435 -9.07057,25.70885 -20.25586,25.70885 -11.19857,0 -22.64985,-11.1587 -22.64985,-25.36306 0,-14.19108 11.45128,-26.04136 22.64985,-26.04136 11.18529,0 20.25586,11.50449 20.25586,25.69557"
         id="path13" /><path
         style="fill:#211e1e;fill-opacity:1;fill-rule:nonzero;stroke:none;stroke-width:3.40479"
         d="m 833.61021,311.2017 11.57098,-138.57244 3.4048,-5.78549 c 0,0 24.17934,-34.04793 42.22741,6.46379 -0.34579,3.75059 -0.69159,8.1662 -0.69159,8.1662 0,0 -36.76114,134.15683 -38.46354,134.15683 -1.7024,0 -18.04806,-2.04819 -18.04806,-4.42889"
         id="path14" /><path
         style="fill:#211e1e;fill-opacity:1;fill-rule:nonzero;stroke:none;stroke-width:3.40479"
         d="m 606.0147,347.67041 c 0,13.16699 -9.72228,23.83356 -21.70556,23.83356 -11.98327,0 -21.70556,-10.66657 -21.70556,-23.83356 0,-13.16698 9.72229,-23.83355 21.70556,-23.83355 11.98328,0 21.70556,10.66657 21.70556,23.83355"
         id="path4" /><path
         style="fill:#211e1e;fill-opacity:1;fill-rule:nonzero;stroke:none;stroke-width:3.40479"
         d="m 359.72264,348.65115 c 0,14.20435 -9.07057,25.70885 -20.25586,25.70885 -11.19857,0 -22.64985,-11.1587 -22.64985,-25.36306 0,-14.19108 11.45128,-26.04136 22.64985,-26.04136 11.18529,0 20.25586,11.50449 20.25586,25.69557"
         id="path114" /></g><path
       id="path10"
       style="fill:#4cacac;fill-opacity:1;fill-rule:nonzero;stroke:none;stroke-width:2.39542"
       d="m 549.91474,73.8496 c -29.51049,-0.4272 -44.52535,7.1557 -49.01562,10.0313 1.3193,-1.0905 2.83721,-2.6825 3.06445,-4.2754 -34.86695,6.1662 -86.04688,42.041 -86.04688,42.041 0,0 1.91862,-1.1201 3.8379,-0.2793 -54.05976,37.558 -64.93555,81.2813 -64.93555,81.2813 0,0 2.44942,-0.8906 4.90625,-1.795 -9.24786,5.8935 -10.98438,34.0293 -10.98438,34.0293 0,0 3.15613,-3.0058 5.84571,-5.6484 -5.92122,11.1268 -9.36328,48.25 -9.36328,48.25 l 5.75781,-12.0508 c -6.8731,17.1703 -1.97811,30.6056 0.12695,35.6856 1.7e-4,4e-4 -1.7e-4,0 0,0 l 16.68555,16.2207 26.25781,52.51759 10.8125,56.38086 -3.29883,14.84766 c 1.7e-4,6.4e-4 -1.6e-4,0.001 0,0.002 1.63849,6.38308 11.40464,16.57733 11.95117,16.33789 0.63976,-0.28029 0.96029,-3.22461 1.91993,-3.22461 0.95964,0 16.4735,18.49952 18.55273,18.35938 2.07922,-0.14014 -2.719,-5.32532 2.87891,-1.68164 7.03737,11.77191 48.7819,26.76711 49.26172,26.0664 0.95964,-0.98099 -4.95836,-4.3438 -0.16016,-2.6621 8.79671,5.74581 53.58008,6.30468 53.58008,6.30468 0,0 1.57285,-1.77193 4.15429,-3.66601 -8.6955,6.78226 -11.83203,23.14648 -11.83203,23.14648 0,0 4.3188,-6.58656 3.19922,-2.80273 -7.99701,8.4085 -1.75976,37.69726 -1.75976,37.69726 0.95964,0 3.83941,-7.84678 3.51953,-5.32422 -1.27952,6.7268 1.28027,21.58154 20.79297,35.59571 -30.06875,-5.32538 -65.25586,16.8164 -65.25586,16.8164 -45.423,-3.92397 -39.34489,28.30966 -30.06836,25.78711 0.69312,-1.01221 1.40257,-1.95772 2.12304,-2.83984 -6.08995,10.92389 10.60828,21.75383 26.98438,16.57226 -0.0399,-1.06744 0.0258,-2.10582 0.18164,-3.11718 0.35778,16.04758 38.37456,22.16657 55.79883,-11.17578 12.57529,6.44652 44.78337,-11.21261 52.14062,-19.06055 -1.59941,5.88595 58.53672,0.84165 13.4336,-22.42188 -76.77127,-29.99033 -31.02735,-88.00976 -31.02735,-88.00976 30.06875,-3.08311 46.70136,-21.02153 51.17969,-19.90039 4.47832,1.12113 21.75195,-20.45899 21.75195,-20.45899 0,0 -0.63977,1.40035 0,2.52149 6.3976,1.40141 25.5918,-29.42969 25.5918,-29.42969 0,0 -1.27995,2.52236 -0.32031,5.04492 15.03437,-0.56057 16.95312,-33.07226 16.95312,-33.07226 0,0 6.5e-4,2.8017 1.91993,4.20312 9.91628,-1.40142 9.5957,-33.35351 9.5957,-33.35351 0,0 0.32072,10.93178 3.51953,7.00781 3.16072,-3.87726 2.88589,-24.99588 2.87891,-25.49798 0.004,0.1745 0.11593,2.8032 3.51757,3.0742 8.63677,-12.8931 -0.95898,-30.2695 -0.95898,-30.2695 0,0 4.47872,2.5215 6.07812,0.8398 1.32789,-1.3962 -1.09304,-12.6447 -1.95312,-16.4238 0.33174,0.6613 1.04696,1.1992 2.5918,0.4473 2.87892,-1.4016 -4.15821,-23.2618 -4.15821,-23.2618 0,0 6.39887,15.975 6.71875,5.8848 0.31988,-10.0902 -12.15625,-45.125 -12.15625,-45.125 0,0 1.2795,2.8018 5.75782,2.5215 4.00297,-0.2506 -12.95137,-39.9146 -16.59571,-48.3321 0.58011,0.4528 1.62257,0.8564 3.48047,0.9649 4.79821,0.2802 -15.03516,-36.4375 -15.03516,-36.4375 0,0 12.79643,6.7277 15.35547,5.3262 2.55904,-1.4014 -24.31054,-29.4297 -24.31054,-29.4297 0,0 8.31573,0 12.15429,2.2422 -8.95665,-14.855 -39.02539,-28.5899 -39.02539,-28.5899 0,0 5.75843,-0.5605 10.55664,0.5606 -9.91629,-15.9762 -34.22656,-17.6563 -34.22656,-17.6563 0,0 3.83826,-3.0841 15.67383,-3.0841 -3.51868,-7.5676 -41.9043,-9.25 -41.9043,-9.25 0,0 12.47484,-1.1211 11.19532,-2.2421 -28.46935,-19.0593 -59.81836,-8.6875 -59.81836,-8.6875 0,0 3.51953,-1.4012 3.51953,-3.3632 -4.81898,-0.4251 -9.33109,-0.6499 -13.54688,-0.711 z m -63.22461,538.85354 c -5.32178,1.56678 -9.51623,3.35837 -12.73437,5.26758 6.8097,-4.74708 12.73437,-5.26758 12.73437,-5.26758 z m 32.20899,1.7793 c -3.71456,1.64954 -6.96297,3.31951 -9.7793,4.99219 5.2441,-3.25892 9.7793,-4.99219 9.7793,-4.99219 z" /><path
       style="fill:#4cacac;fill-opacity:1;stroke:#211e1e;stroke-width:2.39542;stroke-linecap:butt;stroke-linejoin:miter;stroke-miterlimit:4;stroke-opacity:1"
       d="m 346.83081,279.1541 5.75784,-12.0522 -10.34157,25.7287 9.8995,-7.7782 -3.53554,16.2635 2.12132,2.1213 1.21707,9.0824 c 1.54484,0.7519 2.26006,0.214 2.5918,-0.4473 -0.86008,3.7791 -3.28101,15.0276 -1.95312,16.4238 1.5994,1.6817 6.07812,-0.8398 6.07812,-0.8398 0,0 -9.59575,17.3764 -0.95898,30.2695 3.40164,-0.271 3.51357,-2.8997 3.51757,-3.0742 -0.007,0.5021 -0.28181,21.62077 2.87891,25.49803 3.19881,3.92397 3.51953,-7.00781 3.51953,-7.00781 0,0 -0.32058,31.95209 9.5957,33.35351 1.91928,-1.40142 1.91993,-4.20312 1.91993,-4.20312 0,0 1.91875,32.51169 16.95312,33.07226 0.95964,-2.52256 -0.32031,-5.04492 -0.32031,-5.04492 0,0 14.27574,31.89165 20.20252,26.65387 1.28252,-5.73022 22.17215,16.02083 22.17215,16.02083 l 0.33014,-0.64453 c 7.03737,11.77191 48.78174,26.76707 49.26156,26.06636 0.95964,-0.98099 -4.95814,-4.34439 -0.15994,-2.66269 8.79671,5.74581 53.57995,6.30638 53.57995,6.30638 0,0 2.23916,-2.52255 5.75785,-4.76482 -9.91629,5.88595 -13.43498,24.24452 -13.43498,24.24452 0,0 4.31839,-6.58666 3.19881,-2.80283 -7.99701,8.4085 -1.75934,37.69812 -1.75934,37.69812 0.95964,0 3.83856,-7.84794 3.51868,-5.32538 -1.27952,6.7268 1.27952,21.58182 20.79222,35.59599 -30.06875,-5.32538 -65.25558,16.81701 -65.25558,16.81701 -45.423,-3.92397 -39.34528,28.30863 -30.06875,25.78608 9.59641,-14.01417 22.39162,-15.13531 22.39162,-15.13531 -39.98503,11.77191 -16.31389,36.15657 6.71749,28.8692 -0.63976,-17.09729 25.49047,-27.09114 25.49047,-27.09114 -61.63694,27.37142 5.53792,60.54122 30.48858,12.79668 12.57529,6.44652 44.78324,-11.21133 52.14049,-19.05927 -1.59941,5.88595 58.53809,0.84085 13.43497,-22.42268 -76.77127,-29.99033 -31.02839,-88.00901 -31.02839,-88.00901 30.06875,-3.08311 46.70252,-21.02126 51.18085,-19.90012 4.47832,1.12113 21.75186,-20.46069 21.75186,-20.46069 0,0 -0.63977,1.40141 0,2.52255 6.3976,1.40141 25.59042,-29.42977 25.59042,-29.42977 0,0 -1.27952,2.52255 -0.31988,5.04511 15.03437,-0.56057 16.95365,-33.07345 16.95365,-33.07345 0,0 0,2.80283 1.91928,4.20425 9.91629,-1.40142 9.59641,-33.35373 9.59641,-33.35373 0,0 0.31988,10.93105 3.51869,7.00708 3.1988,-3.92396 2.87892,-25.50576 2.87892,-25.50576 0,0 0,2.8028 3.51868,3.0831 8.63677,-12.8931 -0.95964,-30.2706 -0.95964,-30.2706 0,0 4.47833,2.5225 6.07773,0.8408 1.5994,-1.6817 -2.23917,-17.6578 -2.23917,-17.6578 0,0 0,3.0831 2.87893,1.6817 2.87892,-1.4015 -4.15845,-23.2636 -4.15845,-23.2636 0,0 6.39761,15.9762 6.71749,5.886 0.31988,-10.0902 -12.15545,-45.1257 -12.15545,-45.1257 0,0 1.27952,2.8029 5.75784,2.5226 C 726.52871,253.9286 608.173,90.5234 608.173,90.5234 c 0,0 12.47533,-1.1212 11.19581,-2.2423 -28.46934,-19.0593 -59.81761,-8.6888 -59.81761,-8.6888 0,0 3.51868,-1.4014 3.51868,-3.3634 -47.66216,-4.2043 -65.25558,11.2113 -63.97606,10.3705 1.27952,-0.8409 4.15845,-3.0831 4.47833,-5.3254 -34.86695,6.1662 -86.0478,42.0425 -86.0478,42.0425 0,0 1.91928,-1.1211 3.83856,-0.2803 -54.05976,37.558 -64.93569,81.2822 -64.93569,81.2822 0,0 16.95365,-6.1662 6.3976,-2.5225 -10.55605,3.6437 -12.47533,34.7551 -12.47533,34.7551 0,0 14.71449,-14.0141 7.67713,-8.1282 -7.03737,5.886 -11.19581,50.7313 -11.19581,50.7313"
       id="path68"
       sodipodi:nodetypes="ccccccccccccscccsccccccccccccccccccccccscccccccscccscscscsccccsccccscsc" /><path
       style="fill:#f3a142;fill-opacity:1;fill-rule:nonzero;stroke:none;stroke-width:2.39542"
       d="m 494.36748,497.22727 c 0,0 -21.43198,23.26353 3.51868,58.85952 15.99402,1.12114 15.03438,2.38241 16.3139,3.64369 4.31838,-0.56057 39.98503,18.77899 -5.11809,19.61984 -14.07473,1.40142 -16.31389,20.18041 -58.53809,15.69588 -20.47234,35.31571 -67.81462,23.26352 -39.66516,-7.56766 0,0 -8.58679,6.89323 -8.90667,19.50598 -7.03736,11.77191 -56.98867,-1.28755 -16.04399,-23.99051 -9.17657,5.7896 -8.47683,4.86117 -13.80483,10.65077 -17.59341,3.78383 -4.42834,-33.07345 28.83921,-21.02126 16.47383,-7.56765 47.98204,-19.61984 62.69653,-15.13531 -0.37986,-0.28028 0.99961,0.97223 0.63976,0.70071 -8.24692,-6.16624 -14.31464,-10.86098 -12.47533,-22.00225 -1.43946,-1.12113 -2.3991,4.62468 -3.51868,3.64368 -1.11958,-0.98099 -3.19881,-22.14239 3.1988,-30.55089 -0.47982,-1.40142 -3.03886,2.52255 -3.1988,1.6817 -0.15994,-0.84085 1.91928,-17.09729 12.47533,-24.66495 16.63377,7.28737 21.1121,11.49162 33.58743,10.93106"
       id="path34" /><path
       style="fill:#f3a142;fill-opacity:1;fill-rule:nonzero;stroke:none;stroke-width:2.39542"
       d="m 494.36748,497.22727 c 0,0 -21.43198,23.26353 3.51868,58.85952 15.99402,1.12114 15.03438,2.38241 16.3139,3.64369 4.31838,-0.56057 39.98503,18.77899 -5.11809,19.61984 -14.07473,1.40142 -16.31389,20.18041 -58.53809,15.69588 -20.47234,35.31571 -67.81462,23.26352 -39.66516,-7.56766 0,0 -8.58679,6.89323 -8.90667,19.50598 -7.03736,11.77191 -56.98867,-1.28755 -16.04399,-23.99051 -9.17657,5.7896 -8.47683,4.86117 -13.80483,10.65077 -17.59341,3.78383 -4.42834,-33.07345 28.83921,-21.02126 16.47383,-7.56765 47.98204,-19.61984 62.69653,-15.13531 -0.37986,-0.28028 0.99961,0.97223 0.63976,0.70071 -8.24692,-6.16624 -14.31464,-10.86098 -12.47533,-22.00225 -1.43946,-1.12113 -2.3991,4.62468 -3.51868,3.64368 -1.11958,-0.98099 -3.19881,-22.14239 3.1988,-30.55089 -0.47982,-1.40142 -3.03886,2.52255 -3.1988,1.6817 -0.15994,-0.84085 1.91928,-17.09729 12.47533,-24.66495 16.63377,7.28737 21.1121,11.49162 33.58743,10.93106"
       id="path35" /><path
       style="fill:#4cacac;fill-opacity:1;fill-rule:nonzero;stroke:none;stroke-width:2.39542"
       d="m 494.36748,497.22727 c 0,0 -21.43198,23.26353 3.51868,58.85952 15.99402,1.12114 15.03438,2.38241 16.3139,3.64369 4.31838,-0.56057 39.98503,18.77899 -5.11809,19.61984 -14.07473,1.40142 -16.31389,20.18041 -58.53809,15.69588 -20.47234,35.31571 -67.81462,23.26352 -39.66516,-7.56766 0,0 -8.58679,6.89323 -8.90667,19.50598 -7.03736,11.77191 -56.98867,-1.28755 -16.04399,-23.99051 -9.17657,5.7896 -8.47683,4.86117 -13.80483,10.65077 -17.59341,3.78383 -4.42834,-33.07345 28.83921,-21.02126 16.47383,-7.56765 47.98204,-19.61984 62.69653,-15.13531 -0.37986,-0.28028 0.99961,0.97223 0.63976,0.70071 -8.24692,-6.16624 -14.31464,-10.86098 -12.47533,-22.00225 -1.43946,-1.12113 -2.3991,4.62468 -3.51868,3.64368 -1.11958,-0.98099 -3.19881,-22.14239 3.1988,-30.55089 -0.47982,-1.40142 -3.03886,2.52255 -3.1988,1.6817 -0.15994,-0.84085 1.91928,-17.09729 12.47533,-24.66495 16.63377,7.28737 21.1121,11.49162 33.58743,10.93106"
       id="path36" /><path
       style="fill:none;stroke:#211e1e;stroke-width:2.39542;stroke-linecap:butt;stroke-linejoin:miter;stroke-miterlimit:4;stroke-opacity:1"
       d="m 494.36748,497.22727 c 0,0 -21.43198,23.26353 3.51868,58.85952 15.99402,1.12114 15.03438,2.38241 16.3139,3.64369 4.31838,-0.56057 39.98503,18.77899 -5.11809,19.61984 -14.07473,1.40142 -16.31389,20.18041 -58.53809,15.69588 -20.47234,35.31571 -67.81462,23.26352 -39.66516,-7.56766 0,0 -8.58679,6.89323 -8.90667,19.50598 -7.03736,11.77191 -56.98867,-1.28755 -16.04399,-23.99051 -9.17657,5.7896 -8.47683,4.86117 -13.80483,10.65077 -17.59341,3.78383 -4.42834,-33.07345 28.83921,-21.02126 16.47383,-7.56765 47.98204,-19.61984 62.69653,-15.13531 -0.37986,-0.28028 0.99964,0.97223 0.63976,0.70071 -8.24692,-6.16624 -14.31464,-10.86098 -12.47533,-22.00225 -1.43946,-1.12113 -2.3991,4.62468 -3.51868,3.64368 -1.11958,-0.98099 -3.19881,-22.14239 3.1988,-30.55089 -0.47982,-1.40142 -3.03886,2.52255 -3.1988,1.6817 -0.15994,-0.84085 1.91928,-17.09729 12.47533,-24.66495 16.63377,7.28737 21.1121,11.49162 33.58743,10.93106 z m 0,0"
       id="path37" /><path
       style="fill:none;stroke:#211e1e;stroke-width:2.39542;stroke-linecap:butt;stroke-linejoin:miter;stroke-miterlimit:4;stroke-opacity:1"
       d="m 494.36748,497.22727 c 0,0 -21.43198,23.26353 3.51868,58.85952 15.99402,1.12114 15.03438,2.38241 16.3139,3.64369 4.31838,-0.56057 39.98503,18.77899 -5.11809,19.61984 -14.07473,1.40142 -16.31389,20.18041 -58.53809,15.69588 -20.47234,35.31571 -67.81462,23.26352 -39.66516,-7.56766 0,0 -8.58679,6.89323 -8.90667,19.50598 -7.03736,11.77191 -56.98867,-1.28755 -16.04399,-23.99051 -9.17657,5.7896 -8.47683,4.86117 -13.80483,10.65077 -17.59341,3.78383 -4.42834,-33.07345 28.83921,-21.02126 16.47383,-7.56765 47.98204,-19.61984 62.69653,-15.13531 -0.37986,-0.28028 0.99964,0.97223 0.63976,0.70071 -8.24692,-6.16624 -14.31464,-10.86098 -12.47533,-22.00225 -1.43946,-1.12113 -2.3991,4.62468 -3.51868,3.64368 -1.11958,-0.98099 -3.19881,-22.14239 3.1988,-30.55089 -0.47982,-1.40142 -3.03886,2.52255 -3.1988,1.6817 -0.15994,-0.84085 1.91928,-17.09729 12.47533,-24.66495 16.63377,7.28737 21.1121,11.49162 33.58743,10.93106 z m 0,0"
       id="path39" /><path
       style="fill:none;stroke:#211e1e;stroke-width:2.39542;stroke-linecap:butt;stroke-linejoin:miter;stroke-miterlimit:4;stroke-opacity:1"
       d="m 494.36748,497.22727 c 0,0 -21.43198,23.26353 3.51868,58.85952 15.99402,1.12114 15.03438,2.38241 16.3139,3.64369 4.31838,-0.56057 39.98503,18.77899 -5.11809,19.61984 -14.07473,1.40142 -16.31389,20.18041 -58.53809,15.69588 -20.47234,35.31571 -67.81462,23.26352 -39.66516,-7.56766 0,0 -8.58679,6.89323 -8.90667,19.50598 -7.03736,11.77191 -56.98867,-1.28755 -16.04399,-23.99051 -9.17657,5.7896 -8.47683,4.86117 -13.80483,10.65077 -17.59341,3.78383 -4.42834,-33.07345 28.83921,-21.02126 16.47383,-7.56765 47.98204,-19.61984 62.69653,-15.13531 -0.37986,-0.28028 0.99964,0.97223 0.63976,0.70071 -8.24692,-6.16624 -14.31464,-10.86098 -12.47533,-22.00225 -1.43946,-1.12113 -2.3991,4.62468 -3.51868,3.64368 -1.11958,-0.98099 -3.19881,-22.14239 3.1988,-30.55089 -0.47982,-1.40142 -3.03886,2.52255 -3.1988,1.6817 -0.15994,-0.84085 1.91928,-17.09729 12.47533,-24.66495 16.63377,7.28737 21.1121,11.49162 33.58743,10.93106 z m 0,0"
       id="path40" /><path
       style="fill:none;stroke:#211e1e;stroke-width:2.39542;stroke-linecap:butt;stroke-linejoin:miter;stroke-miterlimit:4;stroke-opacity:1"
       d="m 494.36748,497.22727 c 0,0 -21.43198,23.26353 3.51868,58.85952 15.99402,1.12114 15.03438,2.38241 16.3139,3.64369 4.31838,-0.56057 39.98503,18.77899 -5.11809,19.61984 -14.07473,1.40142 -16.31389,20.18041 -58.53809,15.69588 -20.47234,35.31571 -67.81462,23.26352 -39.66516,-7.56766 0,0 -8.58679,6.89323 -8.90667,19.50598 -7.03736,11.77191 -56.98867,-1.28755 -16.04399,-23.99051 -9.17657,5.7896 -8.47683,4.86117 -13.80483,10.65077 -17.59341,3.78383 -4.42834,-33.07345 28.83921,-21.02126 16.47383,-7.56765 47.98204,-19.61984 62.69653,-15.13531 -0.37986,-0.28028 0.99964,0.97223 0.63976,0.70071 -8.24692,-6.16624 -14.31464,-10.86098 -12.47533,-22.00225 -1.43946,-1.12113 -2.3991,4.62468 -3.51868,3.64368 -1.11958,-0.98099 -3.19881,-22.14239 3.1988,-30.55089 -0.47982,-1.40142 -3.03886,2.52255 -3.1988,1.6817 -0.15994,-0.84085 1.91928,-17.09729 12.47533,-24.66495 16.63377,7.28737 21.1121,11.49162 33.58743,10.93106 z m 0,0"
       id="path41" /><path
       style="fill:#211e1e;fill-opacity:1;fill-rule:nonzero;stroke:none;stroke-width:2.39542"
       d="m 440.78753,121.9978 c 1.33951,0.5168 11.51569,-5.0451 26.86995,-3.2233 1.5994,-5.1852 0.0798,-6.5866 -1.51944,-7.2173 -1.5994,-0.6306 -25.67039,7.4275 -25.67039,7.4275 0,0 -1.01962,2.4963 0.31988,3.0131"
       id="path53" /><path
       style="fill:#211e1e;fill-opacity:1;fill-rule:nonzero;stroke:none;stroke-width:2.39542"
       d="m 543.40912,120.246 c 0,0 13.87482,0.5606 23.89106,7.6552 3.19881,0.3854 3.61864,-0.9284 3.61864,-0.9284 0,0 -20.67225,-20.1804 -28.98913,-12.5252 -2.13921,6.9195 1.47943,5.7984 1.47943,5.7984"
       id="path54" /><path
       sodipodi:nodetypes="csccccssccssccc"
       inkscape:connector-curvature="0"
       id="path4375"
       d="m 426.35297,199.13399 c -14.87838,3.77279 -36.31872,14.78273 -47.18736,28.19588 -2.2749,2.80753 -5.85162,6.32297 -9.12088,8.86449 -5.84926,-8.42938 -4.86799,-23.12108 -0.12726,-32.13077 -23.68471,2.46346 -35.60166,-17.20119 -16.37028,-26.07608 C 339.76457,66.165524 423.68533,-3.3761737 587.26469,19.256144 741.77007,42.815928 743.824,147.23579 741.17277,197.73517 c 7.34714,9.87825 9.63369,18.69094 -8.45962,26.15815 -13.84606,3.51101 -44.09275,5.86902 -70.54446,2.70032 -13.25039,-10.24786 -16.36136,-34.98515 16.232,-33.22641 22.21083,9.04605 6.47819,-129.755175 -102.8347,-145.533444 -58.35855,-8.423514 -99.50586,4.827958 -131.00309,28.45427 -33.14124,24.859334 -43.39695,71.068014 -34.06673,98.575254 17.68645,-2.53936 24.88387,18.61669 12.47755,22.59617 z"
       style="color:#000000;clip-rule:nonzero;display:inline;overflow:visible;visibility:visible;isolation:auto;mix-blend-mode:normal;color-interpolation:sRGB;color-interpolation-filters:linearRGB;solid-color:#000000;solid-opacity:1;fill:#000000;fill-opacity:1;fill-rule:nonzero;stroke:none;stroke-width:1.41285;stroke-linecap:round;stroke-linejoin:round;stroke-miterlimit:4;stroke-dasharray:none;stroke-dashoffset:0;stroke-opacity:1;color-rendering:auto;image-rendering:auto;shape-rendering:auto;text-rendering:auto;enable-background:accumulate" /><path
       sodipodi:nodetypes="ccccccccccc"
       inkscape:connector-curvature="0"
       id="path4369"
       d="m 715.2509,184.5617 c 5.1115,4.1531 18.7541,19.3888 18.3523,30.6386 7.69,6.2483 19.3477,27.848 10.3506,43.1175 -1.0061,-5.7731 -6.7956,-17.8215 -12.7563,-23.4664 -1.0418,-2.2661 -0.042,-9.126 -5.8706,-9.3324 -20.0669,0.7074 -45.5108,53.9752 -47.9369,76.602 -1.826,6.907 -23.7616,12.3212 -22.5377,-1.6641 2.1336,-24.0333 19.002,-53.7335 33.7605,-73.6435 3.9728,-9.9509 -7.7753,-16.0567 -10.2903,-18.1003 -6.8733,-4.5699 -1.8157,-9.5335 0.1739,-11.0453 z"
       style="color:#000000;clip-rule:nonzero;display:inline;overflow:visible;visibility:visible;isolation:auto;mix-blend-mode:normal;color-interpolation:sRGB;color-interpolation-filters:linearRGB;solid-color:#000000;solid-opacity:1;fill:#000000;fill-opacity:1;fill-rule:nonzero;stroke:none;stroke-width:1.13453;stroke-linecap:round;stroke-linejoin:round;stroke-miterlimit:4;stroke-dasharray:none;stroke-dashoffset:0;stroke-opacity:1;color-rendering:auto;image-rendering:auto;shape-rendering:auto;text-rendering:auto;enable-background:accumulate" /><path
       style="fill:#4cacac;fill-opacity:1;stroke:#211e1e;stroke-width:2.39542;stroke-linecap:butt;stroke-linejoin:miter;stroke-miterlimit:4;stroke-opacity:1"
       d="m 346.83081,279.1541 5.75784,-12.0522 -10.34157,25.7287 9.8995,-7.7782 -3.53554,16.2635 2.12132,2.1213 1.21707,9.0824 c 1.54484,0.7519 2.26006,0.214 2.5918,-0.4473 -0.86008,3.7791 -3.28101,15.0276 -1.95312,16.4238 1.5994,1.6817 6.07812,-0.8398 6.07812,-0.8398 0,0 -9.59575,17.3764 -0.95898,30.2695 3.40164,-0.271 3.51357,-2.8997 3.51757,-3.0742 -0.007,0.5021 -0.28181,21.62077 2.87891,25.49803 3.19881,3.92397 3.51953,-7.00781 3.51953,-7.00781 0,0 -0.32058,31.95209 9.5957,33.35351 1.91928,-1.40142 1.91993,-4.20312 1.91993,-4.20312 0,0 1.91875,32.51169 16.95312,33.07226 0.95964,-2.52256 -0.32031,-5.04492 -0.32031,-5.04492 0,0 14.27574,31.89165 20.20252,26.65387 1.28252,-5.73022 22.17215,16.02083 22.17215,16.02083 l 0.33014,-0.64453 c 7.03737,11.77191 48.78174,26.76707 49.26156,26.06636 0.95964,-0.98099 -4.95814,-4.34439 -0.15994,-2.66269 8.79671,5.74581 53.57995,6.30638 53.57995,6.30638 0,0 2.23916,-2.52255 5.75785,-4.76482 -9.91629,5.88595 -13.43498,24.24452 -13.43498,24.24452 0,0 4.31839,-6.58666 3.19881,-2.80283 -7.99701,8.4085 -1.75934,37.69812 -1.75934,37.69812 0.95964,0 3.83856,-7.84794 3.51868,-5.32538 -1.27952,6.7268 1.27952,21.58182 20.79222,35.59599 -30.06875,-5.32538 -65.25558,16.81701 -65.25558,16.81701 -45.423,-3.92397 -39.34528,28.30863 -30.06875,25.78608 9.59641,-14.01417 22.39162,-15.13531 22.39162,-15.13531 -39.98503,11.77191 -16.31389,36.15657 6.71749,28.8692 -0.63976,-17.09729 25.49047,-27.09114 25.49047,-27.09114 -61.63694,27.37142 5.53792,60.54122 30.48858,12.79668 12.57529,6.44652 44.78324,-11.21133 52.14049,-19.05927 -1.59941,5.88595 58.53809,0.84085 13.43497,-22.42268 -76.77127,-29.99033 -31.02839,-88.00901 -31.02839,-88.00901 30.06875,-3.08311 46.70252,-21.02126 51.18085,-19.90012 4.47832,1.12113 21.75186,-20.46069 21.75186,-20.46069 0,0 -0.63977,1.40141 0,2.52255 6.3976,1.40141 25.59042,-29.42977 25.59042,-29.42977 0,0 -1.27952,2.52255 -0.31988,5.04511 15.03437,-0.56057 16.95365,-33.07345 16.95365,-33.07345 0,0 0,2.80283 1.91928,4.20425 9.91629,-1.40142 9.59641,-33.35373 9.59641,-33.35373 0,0 0.31988,10.93105 3.51869,7.00708 3.1988,-3.92396 2.87892,-25.50576 2.87892,-25.50576 0,0 0,2.8028 3.51868,3.0831 8.63677,-12.8931 -0.95964,-30.2706 -0.95964,-30.2706 0,0 4.47833,2.5225 6.07773,0.8408 1.5994,-1.6817 -2.23917,-17.6578 -2.23917,-17.6578 0,0 0,3.0831 2.87893,1.6817 2.87892,-1.4015 -4.15845,-23.2636 -4.15845,-23.2636 0,0 6.39761,15.9762 6.71749,5.886 0.31988,-10.0902 -12.15545,-45.1257 -12.15545,-45.1257 0,0 1.27952,2.8029 5.75784,2.5226 4.47833,-0.2803 -17.27353,-49.8905 -17.27353,-49.8905 0,0 -0.63976,2.2423 4.15844,2.5226 4.79821,0.2803 -15.03437,-36.4369 -15.03437,-36.4369 0,0 12.79521,6.7268 15.35425,5.3254 2.55904,-1.4014 -24.3109,-29.4297 -24.3109,-29.4297 0,0 8.31689,0 12.15545,2.2422 -8.95665,-14.855 -39.02539,-28.5889 -39.02539,-28.5889 0,0 5.75784,-0.5605 10.55605,0.5606 -9.91629,-15.9762 -34.22719,-17.6579 -34.22719,-17.6579 0,0 3.83856,-3.0831 15.67413,-3.0831 -3.51868,-7.5676 -41.90432,-9.2493 -41.90432,-9.2493 0,0 12.47533,-1.1212 11.19581,-2.2423 -28.46934,-19.0593 -59.81761,-8.6888 -59.81761,-8.6888 0,0 3.51868,-1.4014 3.51868,-3.3634 -47.66216,-4.2043 -65.25558,11.2113 -63.97606,10.3705 1.27952,-0.8409 4.15845,-3.0831 4.47833,-5.3254 -34.86695,6.1662 -86.0478,42.0425 -86.0478,42.0425 0,0 1.91928,-1.1211 3.83856,-0.2803 -54.05976,37.558 -64.93569,81.2822 -64.93569,81.2822 0,0 16.95365,-6.1662 6.3976,-2.5225 -10.55605,3.6437 -12.47533,34.7551 -12.47533,34.7551 0,0 14.71449,-14.0141 7.67713,-8.1282 -7.03737,5.886 -11.19581,50.7313 -11.19581,50.7313"
       id="path137"
       sodipodi:nodetypes="ccccccccccccscccsccccccccccccccccccccccscccccccscccscscscscscsccccccccccsccccscsc" /><path
       sodipodi:nodetypes="cssccsc"
       inkscape:connector-curvature="0"
       id="path138"
       d="M 587.26469,19.256144 C 741.77007,42.815928 743.824,147.23579 741.17277,197.73517 c 7.34714,9.87825 9.63369,18.69094 -8.45962,26.15815 -13.84606,3.51101 -44.09275,5.86902 -70.54446,2.70032 -13.25039,-10.24786 -16.36136,-34.98515 16.232,-33.22641 22.21083,9.04605 6.47819,-129.755175 -102.8347,-145.533444 -58.35855,-8.423514 -151.88066,-51.2099597 11.6987,-28.577642 z"
       style="color:#000000;clip-rule:nonzero;display:inline;overflow:visible;visibility:visible;isolation:auto;mix-blend-mode:normal;color-interpolation:sRGB;color-interpolation-filters:linearRGB;solid-color:#000000;solid-opacity:1;fill:#000000;fill-opacity:1;fill-rule:nonzero;stroke:none;stroke-width:1.41285;stroke-linecap:round;stroke-linejoin:round;stroke-miterlimit:4;stroke-dasharray:none;stroke-dashoffset:0;stroke-opacity:1;color-rendering:auto;image-rendering:auto;shape-rendering:auto;text-rendering:auto;enable-background:accumulate" /><path
       id="ellipse4316"
       d="m 686.79777,200.68851 a 58.482728,92.96811 3.7733835 0 0 -66.38752,85.23309 58.482728,92.96811 3.7733835 0 0 49.78443,99.88283 l 19.36219,2.44122 a 58.482721,92.9681 3.7733836 0 1 -49.78463,-99.8829 58.482721,92.9681 3.7733836 0 1 66.38769,-85.23316 z"
       style="color:#000000;clip-rule:nonzero;display:inline;overflow:visible;visibility:visible;isolation:auto;mix-blend-mode:normal;color-interpolation:sRGB;color-interpolation-filters:linearRGB;solid-color:#000000;solid-opacity:1;fill:#000000;fill-opacity:1;fill-rule:evenodd;stroke:#211e1e;stroke-width:1.196;stroke-linecap:round;stroke-linejoin:miter;stroke-miterlimit:4;stroke-dasharray:none;stroke-dashoffset:0;stroke-opacity:1;color-rendering:auto;image-rendering:auto;shape-rendering:auto;text-rendering:auto;enable-background:accumulate"
       inkscape:connector-curvature="0" /><ellipse
       ry="92.928612"
       rx="58.545425"
       cy="206.20302"
       cx="721.9494"
       id="path4314"
       style="color:#000000;clip-rule:nonzero;display:inline;overflow:visible;visibility:visible;isolation:auto;mix-blend-mode:normal;color-interpolation:sRGB;color-interpolation-filters:linearRGB;solid-color:#000000;solid-opacity:1;fill:#6b9494;fill-opacity:1;fill-rule:evenodd;stroke:#211e1e;stroke-width:1.19639;stroke-linecap:round;stroke-linejoin:miter;stroke-miterlimit:4;stroke-dasharray:none;stroke-dashoffset:0;stroke-opacity:1;color-rendering:auto;image-rendering:auto;shape-rendering:auto;text-rendering:auto;enable-background:accumulate"
       transform="matrix(0.99214543,0.12508978,-0.08933144,0.99600195,0,0)" /><ellipse
       style="color:#000000;clip-rule:nonzero;display:inline;overflow:visible;visibility:visible;isolation:auto;mix-blend-mode:normal;color-interpolation:sRGB;color-interpolation-filters:linearRGB;solid-color:#000000;solid-opacity:1;fill:#3d7c7c;fill-opacity:1;fill-rule:evenodd;stroke:#211e1e;stroke-width:1.1849;stroke-linecap:round;stroke-linejoin:miter;stroke-miterlimit:4;stroke-dasharray:none;stroke-dashoffset:0;stroke-opacity:1;color-rendering:auto;image-rendering:auto;shape-rendering:auto;text-rendering:auto;enable-background:accumulate"
       id="ellipse4324"
       cx="742.35229"
       cy="201.60921"
       rx="37.879391"
       ry="66.185356"
       transform="matrix(0.99183465,0.12753047,-0.08760782,0.99615504,0,0)" /><path
       id="ellipse4329"
       d="m 706.15993,203.12959 a 58.482721,92.9681 3.7733836 0 0 -66.38769,85.23316 58.482721,92.9681 3.7733836 0 0 49.78463,99.8829 58.482721,92.9681 3.7733836 0 0 4.87152,0.23758 58.06852,92.967185 3.8046745 0 1 -44.76803,-98.87376 58.06852,92.967185 3.8046745 0 1 61.13366,-85.51905 58.482721,92.9681 3.7733836 0 0 -4.63409,-0.96083 z"
       style="color:#000000;clip-rule:nonzero;display:inline;overflow:visible;visibility:visible;isolation:auto;mix-blend-mode:normal;color-interpolation:sRGB;color-interpolation-filters:linearRGB;solid-color:#000000;solid-opacity:1;fill:#3d7c7c;fill-opacity:1;fill-rule:evenodd;stroke:#211e1e;stroke-width:1.196;stroke-linecap:round;stroke-linejoin:miter;stroke-miterlimit:4;stroke-dasharray:none;stroke-dashoffset:0;stroke-opacity:1;color-rendering:auto;image-rendering:auto;shape-rendering:auto;text-rendering:auto;enable-background:accumulate"
       inkscape:connector-curvature="0" /><path
       style="fill:#ffffff;fill-opacity:1;fill-rule:nonzero;stroke:none;stroke-width:2.39542"
       d="m 474.95474,214.2285 c 0,42.1039 -28.30941,68.7658 -49.04164,68.7658 -20.73224,0 -37.52595,-26.6619 -37.52595,-68.7658 0,-42.1038 31.72813,-76.6049 52.46036,-76.6049 20.72223,0 34.10723,34.5011 34.10723,76.6049"
       id="path42" /><path
       style="fill:none;stroke:#211e1e;stroke-width:2.39542;stroke-linecap:butt;stroke-linejoin:miter;stroke-miterlimit:4;stroke-opacity:1"
       d="m 474.95474,214.2285 c 0,42.1039 -28.30941,68.7658 -49.04164,68.7658 -20.73224,0 -37.52595,-26.6619 -37.52595,-68.7658 0,-42.1038 31.72813,-76.6049 52.46036,-76.6049 20.72223,0 34.10723,34.5011 34.10723,76.6049 z m 0,0"
       id="path43" /><path
       style="fill:#ffffff;fill-opacity:1;fill-rule:nonzero;stroke:none;stroke-width:2.39542"
       d="m 579.87547,219.0985 c 0,42.095 -35.13685,70.2548 -55.85908,70.2548 -20.73226,0 -36.26644,-21.0563 -36.26644,-63.1601 0,-42.1039 35.14686,-84.2778 55.87909,-84.2778 20.73224,0 36.24643,35.0705 36.24643,77.1831"
       id="path44" /><path
       style="fill:none;stroke:#211e1e;stroke-width:2.39542;stroke-linecap:butt;stroke-linejoin:miter;stroke-miterlimit:4;stroke-opacity:1"
       d="m 579.87547,219.0985 c 0,42.095 -35.13685,70.2548 -55.85908,70.2548 -20.73224,0 -36.26644,-21.0563 -36.26644,-63.1601 0,-42.1039 35.14686,-84.2778 55.87909,-84.2778 20.73224,0 36.24643,35.0705 36.24643,77.1831 z m 0,0"
       id="path46" /><path
       style="fill:#211e1e;fill-opacity:1;fill-rule:nonzero;stroke:none;stroke-width:2.39542"
       d="m 557.96367,257.4798 c -1.37948,11.5967 -1.37948,11.877 -7.13732,20.7059 -5.11808,3.6437 -5.11808,4.2043 -11.67563,7.4276 -3.83856,2.5225 -10.37612,3.74 -15.13433,3.74 -7.57717,-0.9372 -14.93442,-4.4408 -14.93442,-4.4408 0,0 -4.31838,-2.8028 -7.59715,-8.0493 -1.23955,-3.5211 -1.93927,-7.5327 -1.93927,-12.0084 0,-20.1366 18.72297,-43.006 33.17757,-43.006 14.4546,0 25.24055,15.5031 25.24055,35.631"
       id="path48" /><path
       style="fill:#211e1e;fill-opacity:1;fill-rule:nonzero;stroke:none;stroke-width:2.39542"
       d="m 457.20138,251.1734 c 0,7.3049 -2.02924,14.3207 -5.318,20.3031 -5.01812,5.3078 -12.37537,7.8304 -15.09435,9.2318 -2.71899,1.4014 -8.64678,2.1021 -12.47533,2.1021 -6.17769,0 -8.62674,-1.6817 -13.59492,-5.4655 -4.04848,-3.0831 -5.91778,-4.6247 -9.43646,-8.9691 -2.39911,-4.3444 -2.49906,-5.3166 -2.49906,-9.8274 0,-20.1366 18.72297,-43.006 33.17757,-43.006 14.4546,0 25.24055,15.5032 25.24055,35.631"
       id="path50" /><path
       style="fill:#ffffff;fill-opacity:1;fill-rule:nonzero;stroke:none;stroke-width:2.39542"
       d="m 439.28809,237.4045 c 0,8.0757 -5.7678,15.2754 -11.15582,15.2754 -5.39799,0 -10.63602,-4.2393 -10.63602,-12.3237 0,-8.0669 6.98739,-17.2462 12.37535,-17.2462 5.398,0 9.41649,6.2188 9.41649,14.2945"
       id="path51" /><path
       style="fill:#ffffff;fill-opacity:1;fill-rule:nonzero;stroke:none;stroke-width:2.39542"
       d="m 539.49059,243.3605 c 0,8.0757 -5.7678,15.2755 -11.15582,15.2755 -5.39799,0 -10.63602,-4.2481 -10.63602,-12.315 0,-8.0844 6.98739,-17.2549 12.37535,-17.2549 5.398,0 9.41649,6.2188 9.41649,14.2944"
       id="path52" /></g><g
     inkscape:groupmode="layer"
     id="layer3"
     inkscape:label="Layer"
     style="display:inline" /><g
     inkscape:label="BORDER"
     inkscape:groupmode="layer"
     id="layer1"
     transform="translate(50.25,211.52169)"
     style="display:none"
     sodipodi:insensitive="true"><path
       inkscape:connector-curvature="0"
       d="m 301.95446,-211.52169 319.59108,0 c 101.4156,0 152.12339,0 206.7084,17.25959 59.59748,21.69173 106.54481,68.63899 128.23654,128.236542 C 973.75,-11.44076 973.75,39.267072 973.75,140.68273 l 0,319.59116 c 0,101.41566 0,152.12349 -17.25952,206.70829 -21.69173,59.59758 -68.63906,106.54477 -128.23654,128.23654 -54.58501,17.25959 -105.2928,17.25959 -206.7084,17.25959 l -319.59108,0 c -101.4156,0 -152.12339,0 -206.708396,-17.25959 C 35.648581,773.52695 -11.298747,726.57976 -32.99048,666.98218 -50.25,612.39738 -50.25,561.68955 -50.25,460.27389 l 0,-319.59116 c 0,-101.415658 0,-152.12349 17.25952,-206.708254 21.691733,-59.597546 68.639061,-106.544846 128.236544,-128.236576 54.585006,-17.25959 105.292796,-17.25959 206.708396,-17.25959 l 0,0"
       id="path5"
       style="fill:none;stroke:#000000;stroke-opacity:1" /></g><g
     inkscape:groupmode="layer"
     id="layer6"
     inkscape:label="MASK"
     style="display:inline"
     sodipodi:insensitive="true"><path
       style="color:#000000;fill:#ffffff;fill-opacity:1;fill-rule:nonzero;stroke:none;stroke-width:2;marker:none;visibility:visible;display:inline;overflow:visible;enable-background:accumulate"
       d="m -0.03515625,708.40625 c 0.05564213,38.75762 0.61632351,71.02215 3.48917125,100.18549 0.8757813,8.89038 2.0231286,17.50673 3.364698,25.91301 2.7291509,17.10087 6.251639,30.63186 10.624705,44.6288 0.983104,3.14664 2.343873,6.00913 3.546782,8.89844 4.954414,11.90016 10.441772,22.62502 16.75229,32.23106 7.482354,11.38984 16.590926,23.44234 26.690428,33.79613 11.282296,11.56636 22.163363,20.60638 34.238258,28.7856 7.753914,5.2523 15.167714,9.80978 23.655414,13.91931 3.34329,1.61873 6.78353,3.25751 10.45545,4.87471 6.01057,2.6472 12.64725,5.2405 20.38236,7.4312 16.33865,4.6274 37.83594,9.5058 66.67436,11.7859 26.04947,2.0596 58.07248,3.2184 99.20801,3.1754 l -319.08192625,0 z"
       id="path4146"
       inkscape:connector-curvature="0"
       sodipodi:nodetypes="csssssssssssccc" /><path
       style="color:#000000;fill:#ffffff;fill-opacity:1;fill-rule:nonzero;stroke:none;stroke-width:2;marker:none;visibility:visible;display:inline;overflow:visible;enable-background:accumulate"
       d="m 1024,708.375 c -0.028,33.52476 -0.3641,57.51886 -2.1872,86.13032 -2.1429,33.63123 -7.6767,62.03085 -16.1313,85.82727 -5.1582,14.5187 -11.40374,27.32387 -18.62968,38.55822 -10.39312,16.15845 -22.65083,31.16786 -36.89519,44.46448 -6.86448,6.40775 -13.96935,11.81612 -21.91877,17.50161 -10.37402,7.41958 -20.2254,13.06198 -32.1818,18.6383 -10.69022,4.9858 -23.165,9.4996 -39.90567,13.451 -11.58454,2.7344 -25.21186,5.3376 -41.70422,7.0737 -27.23282,2.8667 -62.17789,3.4121 -108.25867,3.9801 L 1024,1024 z"
       id="path4146-5"
       inkscape:connector-curvature="0"
       sodipodi:nodetypes="cssssssssccc" /><path
       style="color:#000000;fill:#ffffff;fill-opacity:1;fill-rule:nonzero;stroke:none;stroke-width:2;marker:none;visibility:visible;display:inline;overflow:visible;enable-background:accumulate"
       d="m 1023.9571,318.26274 c 0.1837,-39.14081 -0.2997,-73.55855 -3.476,-103.94061 -1.4113,-13.49969 -3.8539,-26.31006 -5.9548,-38.18792 -3.6187,-20.45841 -10.1174,-38.44655 -17.2973,-52.70888 -2.12747,-4.22606 -3.90726,-7.55456 -5.77779,-10.81658 -1.49793,-2.61224 -3.05404,-5.18185 -4.89348,-8.13563 -1.96035,-3.14791 -3.87346,-6.195884 -5.993,-9.197124 C 974.88453,87.232938 968.40279,79.35023 961.65509,72.082687 951.58996,61.242143 940.4011,51.100793 927.77306,42.698049 909.73264,30.693887 894.47219,21.390417 866.08729,13.614807 853.18652,10.080839 837.40303,6.7460486 817.42751,4.3881848 790.09127,1.1614792 754.65731,0.08073128 706.1875,0 L 1024,0 z"
       id="path4146-5-3"
       inkscape:connector-curvature="0"
       sodipodi:nodetypes="cssssssssssccc" /><path
       style="color:#000000;fill:#ffffff;fill-opacity:1;fill-rule:nonzero;stroke:none;stroke-width:2;marker:none;visibility:visible;display:inline;overflow:visible;enable-background:accumulate"
       d="M 0,318.48 C 0.04438432,264.21497 1.9515494,215.42652 8.7981727,178.4577 14.754939,146.29372 24.640519,123.97857 37.889606,103.37989 53.29125,79.434582 73.01483,58.195063 97.250401,42.030991 111.80438,32.324119 124.48551,25.310001 143.39137,18.055461 153.25339,14.271217 164.74156,11.469151 178.08885,8.8727346 208.3231,2.9913388 250.69975,-0.29260813 319.08193,0 L 0,0 z"
       id="path4146-5-3-7"
       inkscape:connector-curvature="0"
       sodipodi:nodetypes="csssssccc" /></g><g
     inkscape:groupmode="layer"
     id="layer4"
     inkscape:label="FULL MASK to BG"
     style="display:none"><g
       id="g3108"
       transform="matrix(0.5649724,0,0,0.5649724,445.54508,-1009.2323)"
       style="fill:#ffffff"><path
         style="fill:#ffffff;fill-opacity:1"
         d="m -255.18484,3598.5738 c -65.89075,-0.4253 -133.31625,-3.6429 -171.28383,-8.1738 -35.62761,-4.2516 -75.24646,-12.6237 -101.97363,-21.5486 -19.91256,-6.6493 -47.54459,-19.4411 -66.12352,-30.6108 -37.44793,-22.5137 -72.20796,-52.2487 -98.54251,-84.2969 -24.29731,-29.5689 -41.20817,-56.8511 -55.47181,-89.4924 -6.61929,-15.1478 -8.38704,-19.8689 -11.92879,-31.8579 -16.20259,-54.8465 -23.54268,-107.7838 -26.58122,-191.706 -1.42838,-39.4507 -1.67596,-120.9647 -1.45114,-477.7704 0.16145,-256.2384 0.41117,-371.6315 0.83443,-385.5878 4.03548,-133.0627 14.45033,-200.8155 39.80624,-258.9554 22.87778,-52.4577 63.32922,-104.9173 108.81811,-141.1212 12.25925,-9.757 31.66981,-22.9097 46.90669,-31.7844 24.79601,-14.4423 54.99637,-27.5472 78.82329,-34.2039 41.36425,-11.5562 93.35603,-18.869 158.31851,-22.2681 28.5354,-1.493 42.80966,-1.8693 92.94472,-2.45 66.71195,-0.7727 774.97059,-0.3507 803.30789,0.4786 74.58713,2.1828 111.22328,5.1416 152.96045,12.3533 34.90069,6.0305 66.10255,14.5431 92.14805,25.1403 28.90007,11.7586 67.93807,35.6951 94.27249,57.8041 24.08118,20.2172 52.39634,51.696 69.50417,77.2697 27.40876,40.9722 44.92544,81.5642 54.48975,126.2709 2.0427,9.5481 7.5352,40.5742 9.5433,53.9079 4.7447,31.5043 7.3924,66.4897 8.9033,117.6415 0.8272,28.0023 1.2273,742.0895 0.4567,814.9924 -0.6825,64.5731 -1.8558,98.6886 -4.564,132.7029 -5.9213,74.3703 -21.87168,136.2374 -47.80384,185.4176 -7.83137,14.852 -18.80155,31.9295 -30.54535,47.5505 -23.00313,30.5976 -46.50391,54.389 -74.58963,75.5123 -48.63111,36.5753 -94.65909,56.7768 -158.32303,69.4872 -51.86283,10.3544 -93.05381,13.1537 -222.7503,15.1381 -27.97184,0.4279 -676.86617,0.5685 -740.10549,0.1603 z"
         id="path3124"
         inkscape:connector-curvature="0" /><path
         style="fill:#ffffff;fill-opacity:1"
         d="m -255.18484,3598.5738 c -65.89075,-0.4253 -133.31625,-3.6429 -171.28383,-8.1738 -35.62761,-4.2516 -75.24646,-12.6237 -101.97363,-21.5486 -19.91256,-6.6493 -47.54459,-19.4411 -66.12352,-30.6108 -37.44793,-22.5137 -72.20796,-52.2487 -98.54251,-84.2969 -24.29731,-29.5689 -41.20817,-56.8511 -55.47181,-89.4924 -6.61929,-15.1478 -8.38704,-19.8689 -11.92879,-31.8579 -16.20259,-54.8465 -23.54268,-107.7838 -26.58122,-191.706 -1.42838,-39.4507 -1.67596,-120.9647 -1.45114,-477.7704 0.16145,-256.2384 0.41117,-371.6315 0.83443,-385.5878 4.03548,-133.0627 14.45033,-200.8155 39.80624,-258.9554 22.87778,-52.4577 63.32922,-104.9173 108.81811,-141.1212 12.25925,-9.757 31.66981,-22.9097 46.90669,-31.7844 24.79601,-14.4423 54.99637,-27.5472 78.82329,-34.2039 41.36425,-11.5562 93.35603,-18.869 158.31851,-22.2681 28.5354,-1.493 42.80966,-1.8693 92.94472,-2.45 66.71195,-0.7727 774.97059,-0.3507 803.30789,0.4786 74.58713,2.1828 111.22328,5.1416 152.96045,12.3533 34.90069,6.0305 66.10255,14.5431 92.14805,25.1403 28.90007,11.7586 67.93807,35.6951 94.27249,57.8041 24.08118,20.2172 52.39634,51.696 69.50417,77.2697 27.40876,40.9722 44.92544,81.5642 54.48975,126.2709 2.0427,9.5481 7.5352,40.5742 9.5433,53.9079 4.7447,31.5043 7.3924,66.4897 8.9033,117.6415 0.8272,28.0023 1.2273,742.0895 0.4567,814.9924 -0.6825,64.5731 -1.8558,98.6886 -4.564,132.7029 -5.9213,74.3703 -21.87168,136.2374 -47.80384,185.4176 -7.83137,14.852 -18.80155,31.9295 -30.54535,47.5505 -23.00313,30.5976 -46.50391,54.389 -74.58963,75.5123 -48.63111,36.5753 -94.65909,56.7768 -158.32303,69.4872 -51.86283,10.3544 -93.05381,13.1537 -222.7503,15.1381 -27.97184,0.4279 -676.86617,0.5685 -740.10549,0.1603 z"
         id="path3122"
         inkscape:connector-curvature="0" /><path
         style="fill:#ffffff;fill-opacity:1"
         d="m -255.18484,3598.5738 c -65.89075,-0.4253 -133.31625,-3.6429 -171.28383,-8.1738 -35.62761,-4.2516 -75.24646,-12.6237 -101.97363,-21.5486 -19.91256,-6.6493 -47.54459,-19.4411 -66.12352,-30.6108 -37.44793,-22.5137 -72.20796,-52.2487 -98.54251,-84.2969 -24.29731,-29.5689 -41.20817,-56.8511 -55.47181,-89.4924 -6.61929,-15.1478 -8.38704,-19.8689 -11.92879,-31.8579 -16.20259,-54.8465 -23.54268,-107.7838 -26.58122,-191.706 -1.42838,-39.4507 -1.67596,-120.9647 -1.45114,-477.7704 0.16145,-256.2384 0.41117,-371.6315 0.83443,-385.5878 4.03548,-133.0627 14.45033,-200.8155 39.80624,-258.9554 22.87778,-52.4577 63.32922,-104.9173 108.81811,-141.1212 12.25925,-9.757 31.66981,-22.9097 46.90669,-31.7844 24.79601,-14.4423 54.99637,-27.5472 78.82329,-34.2039 41.36425,-11.5562 93.35603,-18.869 158.31851,-22.2681 28.5354,-1.493 42.80966,-1.8693 92.94472,-2.45 66.71195,-0.7727 774.97059,-0.3507 803.30789,0.4786 74.58713,2.1828 111.22328,5.1416 152.96045,12.3533 34.90069,6.0305 66.10255,14.5431 92.14805,25.1403 28.90007,11.7586 67.93807,35.6951 94.27249,57.8041 24.08118,20.2172 52.39634,51.696 69.50417,77.2697 27.40876,40.9722 44.92544,81.5642 54.48975,126.2709 2.0427,9.5481 7.5352,40.5742 9.5433,53.9079 4.7447,31.5043 7.3924,66.4897 8.9033,117.6415 0.8272,28.0023 1.2273,742.0895 0.4567,814.9924 -0.6825,64.5731 -1.8558,98.6886 -4.564,132.7029 -5.9213,74.3703 -21.87168,136.2374 -47.80384,185.4176 -7.83137,14.852 -18.80155,31.9295 -30.54535,47.5505 -23.00313,30.5976 -46.50391,54.389 -74.58963,75.5123 -48.63111,36.5753 -94.65909,56.7768 -158.32303,69.4872 -51.86283,10.3544 -93.05381,13.1537 -222.7503,15.1381 -27.97184,0.4279 -676.86617,0.5685 -740.10549,0.1603 z"
         id="path3120"
         inkscape:connector-curvature="0" /><path
         style="fill:#ffffff;fill-opacity:1"
         d="m -255.18484,3598.5738 c -65.89075,-0.4253 -133.31625,-3.6429 -171.28383,-8.1738 -35.62761,-4.2516 -75.24646,-12.6237 -101.97363,-21.5486 -19.91256,-6.6493 -47.54459,-19.4411 -66.12352,-30.6108 -37.44793,-22.5137 -72.20796,-52.2487 -98.54251,-84.2969 -24.29731,-29.5689 -41.20817,-56.8511 -55.47181,-89.4924 -6.61929,-15.1478 -8.38704,-19.8689 -11.92879,-31.8579 -16.20259,-54.8465 -23.54268,-107.7838 -26.58122,-191.706 -1.42838,-39.4507 -1.67596,-120.9647 -1.45114,-477.7704 0.16145,-256.2384 0.41117,-371.6315 0.83443,-385.5878 4.03548,-133.0627 14.45033,-200.8155 39.80624,-258.9554 22.87778,-52.4577 63.32922,-104.9173 108.81811,-141.1212 12.25925,-9.757 31.66981,-22.9097 46.90669,-31.7844 24.79601,-14.4423 54.99637,-27.5472 78.82329,-34.2039 41.36425,-11.5562 93.35603,-18.869 158.31851,-22.2681 28.5354,-1.493 42.80966,-1.8693 92.94472,-2.45 66.71195,-0.7727 774.97059,-0.3507 803.30789,0.4786 74.58713,2.1828 111.22328,5.1416 152.96045,12.3533 34.90069,6.0305 66.10255,14.5431 92.14805,25.1403 28.90007,11.7586 67.93807,35.6951 94.27249,57.8041 24.08118,20.2172 52.39634,51.696 69.50417,77.2697 27.40876,40.9722 44.92544,81.5642 54.48975,126.2709 2.0427,9.5481 7.5352,40.5742 9.5433,53.9079 4.7447,31.5043 7.3924,66.4897 8.9033,117.6415 0.8272,28.0023 1.2273,742.0895 0.4567,814.9924 -0.6825,64.5731 -1.8558,98.6886 -4.564,132.7029 -5.9213,74.3703 -21.87168,136.2374 -47.80384,185.4176 -7.83137,14.852 -18.80155,31.9295 -30.54535,47.5505 -23.00313,30.5976 -46.50391,54.389 -74.58963,75.5123 -48.63111,36.5753 -94.65909,56.7768 -158.32303,69.4872 -51.86283,10.3544 -93.05381,13.1537 -222.7503,15.1381 -27.97184,0.4279 -676.86617,0.5685 -740.10549,0.1603 z"
         id="path3118"
         inkscape:connector-curvature="0" /><path
         style="fill:#ffffff;fill-opacity:1"
         d="m -255.18484,3598.5738 c -65.89075,-0.4253 -133.31625,-3.6429 -171.28383,-8.1738 -35.62761,-4.2516 -75.24646,-12.6237 -101.97363,-21.5486 -19.91256,-6.6493 -47.54459,-19.4411 -66.12352,-30.6108 -37.44793,-22.5137 -72.20796,-52.2487 -98.54251,-84.2969 -24.29731,-29.5689 -41.20817,-56.8511 -55.47181,-89.4924 -6.61929,-15.1478 -8.38704,-19.8689 -11.92879,-31.8579 -16.20259,-54.8465 -23.54268,-107.7838 -26.58122,-191.706 -1.42838,-39.4507 -1.67596,-120.9647 -1.45114,-477.7704 0.16145,-256.2384 0.41117,-371.6315 0.83443,-385.5878 4.03548,-133.0627 14.45033,-200.8155 39.80624,-258.9554 22.87778,-52.4577 63.32922,-104.9173 108.81811,-141.1212 12.25925,-9.757 31.66981,-22.9097 46.90669,-31.7844 24.79601,-14.4423 54.99637,-27.5472 78.82329,-34.2039 41.36425,-11.5562 93.35603,-18.869 158.31851,-22.2681 28.5354,-1.493 42.80966,-1.8693 92.94472,-2.45 66.71195,-0.7727 774.97059,-0.3507 803.30789,0.4786 74.58713,2.1828 111.22328,5.1416 152.96045,12.3533 34.90069,6.0305 66.10255,14.5431 92.14805,25.1403 28.90007,11.7586 67.93807,35.6951 94.27249,57.8041 24.08118,20.2172 52.39634,51.696 69.50417,77.2697 27.40876,40.9722 44.92544,81.5642 54.48975,126.2709 2.0427,9.5481 7.5352,40.5742 9.5433,53.9079 4.7447,31.5043 7.3924,66.4897 8.9033,117.6415 0.8272,28.0023 1.2273,742.0895 0.4567,814.9924 -0.6825,64.5731 -1.8558,98.6886 -4.564,132.7029 -5.9213,74.3703 -21.87168,136.2374 -47.80384,185.4176 -7.83137,14.852 -18.80155,31.9295 -30.54535,47.5505 -23.00313,30.5976 -46.50391,54.389 -74.58963,75.5123 -48.63111,36.5753 -94.65909,56.7768 -158.32303,69.4872 -51.86283,10.3544 -93.05381,13.1537 -222.7503,15.1381 -27.97184,0.4279 -676.86617,0.5685 -740.10549,0.1603 z"
         id="path3116"
         inkscape:connector-curvature="0" /><path
         style="fill:#ffffff;fill-opacity:1"
         d="m -255.18484,3598.5738 c -65.89075,-0.4253 -133.31625,-3.6429 -171.28383,-8.1738 -35.62761,-4.2516 -75.24646,-12.6237 -101.97363,-21.5486 -19.91256,-6.6493 -47.54459,-19.4411 -66.12352,-30.6108 -37.44793,-22.5137 -72.20796,-52.2487 -98.54251,-84.2969 -24.29731,-29.5689 -41.20817,-56.8511 -55.47181,-89.4924 -6.61929,-15.1478 -8.38704,-19.8689 -11.92879,-31.8579 -16.20259,-54.8465 -23.54268,-107.7838 -26.58122,-191.706 -1.42838,-39.4507 -1.67596,-120.9647 -1.45114,-477.7704 0.16145,-256.2384 0.41117,-371.6315 0.83443,-385.5878 4.03548,-133.0627 14.45033,-200.8155 39.80624,-258.9554 22.87778,-52.4577 63.32922,-104.9173 108.81811,-141.1212 12.25925,-9.757 31.66981,-22.9097 46.90669,-31.7844 24.79601,-14.4423 54.99637,-27.5472 78.82329,-34.2039 41.36425,-11.5562 93.35603,-18.869 158.31851,-22.2681 28.5354,-1.493 42.80966,-1.8693 92.94472,-2.45 66.71195,-0.7727 774.97059,-0.3507 803.30789,0.4786 74.58713,2.1828 111.22328,5.1416 152.96045,12.3533 34.90069,6.0305 66.10255,14.5431 92.14805,25.1403 28.90007,11.7586 67.93807,35.6951 94.27249,57.8041 24.08118,20.2172 52.39634,51.696 69.50417,77.2697 27.40876,40.9722 44.92544,81.5642 54.48975,126.2709 2.0427,9.5481 7.5352,40.5742 9.5433,53.9079 4.7447,31.5043 7.3924,66.4897 8.9033,117.6415 0.8272,28.0023 1.2273,742.0895 0.4567,814.9924 -0.6825,64.5731 -1.8558,98.6886 -4.564,132.7029 -5.9213,74.3703 -21.87168,136.2374 -47.80384,185.4176 -7.83137,14.852 -18.80155,31.9295 -30.54535,47.5505 -23.00313,30.5976 -46.50391,54.389 -74.58963,75.5123 -48.63111,36.5753 -94.65909,56.7768 -158.32303,69.4872 -51.86283,10.3544 -93.05381,13.1537 -222.7503,15.1381 -27.97184,0.4279 -676.86617,0.5685 -740.10549,0.1603 z"
         id="path3114"
         inkscape:connector-curvature="0" /><path
         style="fill:#ffffff;fill-opacity:1"
         d="m -255.18484,3598.5738 c -65.89075,-0.4253 -133.31625,-3.6429 -171.28383,-8.1738 -35.62761,-4.2516 -75.24646,-12.6237 -101.97363,-21.5486 -19.91256,-6.6493 -47.54459,-19.4411 -66.12352,-30.6108 -37.44793,-22.5137 -72.20796,-52.2487 -98.54251,-84.2969 -24.29731,-29.5689 -41.20817,-56.8511 -55.47181,-89.4924 -6.61929,-15.1478 -8.38704,-19.8689 -11.92879,-31.8579 -16.20259,-54.8465 -23.54268,-107.7838 -26.58122,-191.706 -1.42838,-39.4507 -1.67596,-120.9647 -1.45114,-477.7704 0.16145,-256.2384 0.41117,-371.6315 0.83443,-385.5878 4.03548,-133.0627 14.45033,-200.8155 39.80624,-258.9554 22.87778,-52.4577 63.32922,-104.9173 108.81811,-141.1212 12.25925,-9.757 31.66981,-22.9097 46.90669,-31.7844 24.79601,-14.4423 54.99637,-27.5472 78.82329,-34.2039 41.36425,-11.5562 93.35603,-18.869 158.31851,-22.2681 28.5354,-1.493 42.80966,-1.8693 92.94472,-2.45 66.71195,-0.7727 774.97059,-0.3507 803.30789,0.4786 74.58713,2.1828 111.22328,5.1416 152.96045,12.3533 34.90069,6.0305 66.10255,14.5431 92.14805,25.1403 28.90007,11.7586 67.93807,35.6951 94.27249,57.8041 24.08118,20.2172 52.39634,51.696 69.50417,77.2697 27.40876,40.9722 44.92544,81.5642 54.48975,126.2709 2.0427,9.5481 7.5352,40.5742 9.5433,53.9079 4.7447,31.5043 7.3924,66.4897 8.9033,117.6415 0.8272,28.0023 1.2273,742.0895 0.4567,814.9924 -0.6825,64.5731 -1.8558,98.6886 -4.564,132.7029 -5.9213,74.3703 -21.87168,136.2374 -47.80384,185.4176 -7.83137,14.852 -18.80155,31.9295 -30.54535,47.5505 -23.00313,30.5976 -46.50391,54.389 -74.58963,75.5123 -48.63111,36.5753 -94.65909,56.7768 -158.32303,69.4872 -51.86283,10.3544 -93.05381,13.1537 -222.7503,15.1381 -27.97184,0.4279 -676.86617,0.5685 -740.10549,0.1603 z"
         id="path3112"
         inkscape:connector-curvature="0" /><path
         style="fill:#ffffff;fill-opacity:1"
         d="m -255.18484,3598.5738 c -65.89075,-0.4253 -133.31625,-3.6429 -171.28383,-8.1738 -35.62761,-4.2516 -75.24646,-12.6237 -101.97363,-21.5486 -19.91256,-6.6493 -47.54459,-19.4411 -66.12352,-30.6108 -37.44793,-22.5137 -72.20796,-52.2487 -98.54251,-84.2969 -24.29731,-29.5689 -41.20817,-56.8511 -55.47181,-89.4924 -6.61929,-15.1478 -8.38704,-19.8689 -11.92879,-31.8579 -16.20259,-54.8465 -23.54268,-107.7838 -26.58122,-191.706 -1.42838,-39.4507 -1.67596,-120.9647 -1.45114,-477.7704 0.16145,-256.2384 0.41117,-371.6315 0.83443,-385.5878 4.03548,-133.0627 14.45033,-200.8155 39.80624,-258.9554 22.87778,-52.4577 63.32922,-104.9173 108.81811,-141.1212 12.25925,-9.757 31.66981,-22.9097 46.90669,-31.7844 24.79601,-14.4423 54.99637,-27.5472 78.82329,-34.2039 41.36425,-11.5562 93.35603,-18.869 158.31851,-22.2681 28.5354,-1.493 42.80966,-1.8693 92.94472,-2.45 66.71195,-0.7727 774.97059,-0.3507 803.30789,0.4786 74.58713,2.1828 111.22328,5.1416 152.96045,12.3533 34.90069,6.0305 66.10255,14.5431 92.14805,25.1403 28.90007,11.7586 67.93807,35.6951 94.27249,57.8041 24.08118,20.2172 52.39634,51.696 69.50417,77.2697 27.40876,40.9722 44.92544,81.5642 54.48975,126.2709 2.0427,9.5481 7.5352,40.5742 9.5433,53.9079 4.7447,31.5043 7.3924,66.4897 8.9033,117.6415 0.8272,28.0023 1.2273,742.0895 0.4567,814.9924 -0.6825,64.5731 -1.8558,98.6886 -4.564,132.7029 -5.9213,74.3703 -21.87168,136.2374 -47.80384,185.4176 -7.83137,14.852 -18.80155,31.9295 -30.54535,47.5505 -23.00313,30.5976 -46.50391,54.389 -74.58963,75.5123 -48.63111,36.5753 -94.65909,56.7768 -158.32303,69.4872 -51.86283,10.3544 -93.05381,13.1537 -222.7503,15.1381 -27.97184,0.4279 -676.86617,0.5685 -740.10549,0.1603 z"
         id="path3110"
         inkscape:connector-curvature="0" /></g></g><g
     inkscape:groupmode="layer"
     id="layer2"
     inkscape:label="GUIDES"
     style="display:none"
     transform="translate(0,-2.2054443)"
     sodipodi:insensitive="true"><path
       style="color:#000000;display:inline;overflow:visible;visibility:visible;fill:none;stroke:#000000;stroke-width:2;stroke-linecap:butt;stroke-linejoin:miter;stroke-miterlimit:4;stroke-dasharray:none;stroke-dashoffset:0;stroke-opacity:1;marker:none;enable-background:accumulate"
       d="M 0.99801512,321.03518 V 707.31187"
       id="path4024"
       inkscape:connector-curvature="0" /><circle
       style="color:#000000;display:inline;overflow:visible;visibility:visible;fill:none;stroke:#000000;stroke-width:1.00571;stroke-linecap:butt;stroke-linejoin:miter;stroke-miterlimit:4;stroke-dasharray:none;stroke-dashoffset:0;stroke-opacity:1;marker:none;enable-background:accumulate"
       id="path3129"
       transform="matrix(1.988799,0,0,1.988471,-407.91018,-80.585593)"
       cx="462.32144"
       cy="298.86218"
       r="138" /><circle
       style="color:#000000;display:inline;overflow:visible;visibility:visible;fill:none;stroke:#000000;stroke-width:0.620861;stroke-linecap:butt;stroke-linejoin:miter;stroke-miterlimit:4;stroke-dasharray:none;stroke-dashoffset:0;stroke-opacity:1;marker:none;enable-background:accumulate"
       id="path3129-9"
       transform="matrix(3.2215081,0,0,3.2211587,-977.38931,-448.55899)"
       cx="462.32144"
       cy="298.86218"
       r="138" /><path
       style="color:#000000;display:inline;overflow:visible;visibility:visible;fill:none;stroke:#000000;stroke-width:2;stroke-linecap:butt;stroke-linejoin:miter;stroke-miterlimit:4;stroke-dasharray:none;stroke-dashoffset:0;stroke-opacity:1;marker:none;enable-background:accumulate"
       d="M 67.351921,69.489974 956.5625,958.70544"
       id="path4011"
       inkscape:connector-curvature="0"
       sodipodi:nodetypes="cc" /><path
       style="color:#000000;display:inline;overflow:visible;visibility:visible;fill:none;stroke:#000000;stroke-width:2;stroke-linecap:butt;stroke-linejoin:miter;stroke-miterlimit:4;stroke-dasharray:none;stroke-dashoffset:0;stroke-opacity:1;marker:none;enable-background:accumulate"
       d="M 0.99801467,707.31189 H 1023.001"
       id="path4028"
       inkscape:connector-curvature="0" /><path
       style="color:#000000;display:inline;overflow:visible;visibility:visible;fill:none;stroke:#000000;stroke-width:2;stroke-linecap:butt;stroke-linejoin:miter;stroke-miterlimit:4;stroke-dasharray:none;stroke-dashoffset:0;stroke-opacity:1;marker:none;enable-background:accumulate"
       d="M 0.99801467,513.69318 H 1023.001"
       id="path4030"
       inkscape:connector-curvature="0" /><path
       style="color:#000000;display:inline;overflow:visible;visibility:visible;fill:none;stroke:#000000;stroke-width:2;stroke-linecap:butt;stroke-linejoin:miter;stroke-miterlimit:4;stroke-dasharray:none;stroke-dashoffset:0;stroke-opacity:1;marker:none;enable-background:accumulate"
       d="M 0.99801467,321.0352 H 1023.001"
       id="path4032"
       inkscape:connector-curvature="0" /><path
       style="color:#000000;display:inline;overflow:visible;visibility:visible;fill:none;stroke:#000000;stroke-width:2;stroke-linecap:butt;stroke-linejoin:miter;stroke-miterlimit:4;stroke-dasharray:none;stroke-dashoffset:0;stroke-opacity:1;marker:none;enable-background:accumulate"
       d="M 319.08193,1026.2054 V 2.2054443"
       id="path4034"
       inkscape:connector-curvature="0"
       sodipodi:nodetypes="cc" /><path
       style="color:#000000;display:inline;overflow:visible;visibility:visible;fill:none;stroke:#000000;stroke-width:2;stroke-linecap:butt;stroke-linejoin:miter;stroke-miterlimit:4;stroke-dasharray:none;stroke-dashoffset:0;stroke-opacity:1;marker:none;enable-background:accumulate"
       d="M 511.68014,2.2054443 V 1026.2054"
       id="path4036"
       inkscape:connector-curvature="0"
       sodipodi:nodetypes="cc" /><path
       style="color:#000000;display:inline;overflow:visible;visibility:visible;fill:none;stroke:#000000;stroke-width:2;stroke-linecap:butt;stroke-linejoin:miter;stroke-miterlimit:4;stroke-dasharray:none;stroke-dashoffset:0;stroke-opacity:1;marker:none;enable-background:accumulate"
       d="M 706.1875,1026.2054 V 2.2054443"
       id="path4038"
       inkscape:connector-curvature="0"
       sodipodi:nodetypes="cc" /><path
       style="color:#000000;display:inline;overflow:visible;visibility:visible;fill:none;stroke:#000000;stroke-width:2;stroke-linecap:butt;stroke-linejoin:miter;stroke-miterlimit:4;stroke-dasharray:none;stroke-dashoffset:0;stroke-opacity:1;marker:none;enable-background:accumulate"
       d="M 67.351921,958.70544 956.5625,69.489974"
       id="path4001"
       inkscape:connector-curvature="0"
       sodipodi:nodetypes="cc" /><path
       style="color:#000000;display:inline;overflow:visible;visibility:visible;fill:none;stroke:#000000;stroke-width:2;stroke-linecap:butt;stroke-linejoin:miter;stroke-miterlimit:4;stroke-dasharray:none;stroke-dashoffset:0;stroke-opacity:1;marker:none;enable-background:accumulate"
       d="M 956.5625,69.489974 V 958.70544"
       id="path4003"
       inkscape:connector-curvature="0"
       sodipodi:nodetypes="cc" /><path
       style="color:#000000;display:inline;overflow:visible;visibility:visible;fill:none;stroke:#000000;stroke-width:2;stroke-linecap:butt;stroke-linejoin:miter;stroke-miterlimit:4;stroke-dasharray:none;stroke-dashoffset:0;stroke-opacity:1;marker:none;enable-background:accumulate"
       d="M 67.351921,69.489974 H 956.5625"
       id="path4009"
       inkscape:connector-curvature="0"
       sodipodi:nodetypes="cc" /><path
       style="color:#000000;display:inline;overflow:visible;visibility:visible;fill:none;stroke:#000000;stroke-width:2;stroke-linecap:butt;stroke-linejoin:miter;stroke-miterlimit:4;stroke-dasharray:none;stroke-dashoffset:0;stroke-opacity:1;marker:none;enable-background:accumulate"
       d="M 67.351921,958.70544 V 69.489974"
       id="path4007"
       inkscape:connector-curvature="0"
       sodipodi:nodetypes="cc" /><path
       style="color:#000000;display:inline;overflow:visible;visibility:visible;fill:none;stroke:#000000;stroke-width:2;stroke-linecap:butt;stroke-linejoin:miter;stroke-miterlimit:4;stroke-dasharray:none;stroke-dashoffset:0;stroke-opacity:1;marker:none;enable-background:accumulate"
       d="m 956.5625,958.70544 -889.210579,-3e-5"
       id="path4005"
       inkscape:connector-curvature="0"
       sodipodi:nodetypes="cc" /><circle
       style="color:#000000;display:inline;overflow:visible;visibility:visible;fill:none;stroke:#000000;stroke-width:1.42908;stroke-linecap:butt;stroke-linejoin:miter;stroke-miterlimit:4;stroke-dasharray:none;stroke-dashoffset:0;stroke-opacity:1;marker:none;enable-background:accumulate"
       id="path3129-7"
       transform="matrix(1.4025564,0,0,1.3964479,-135.79717,96.569794)"
       cx="462.32144"
       cy="298.86218"
       r="138" /></g></svg>
