<?xml version="1.0" encoding="UTF-8" standalone="no"?>
<!-- Created with Inkscape (http://www.inkscape.org/) -->
<svg xmlns:dc="http://purl.org/dc/elements/1.1/" xmlns:cc="http://creativecommons.org/ns#" xmlns:rdf="http://www.w3.org/1999/02/22-rdf-syntax-ns#" xmlns:svg="http://www.w3.org/2000/svg" xmlns="http://www.w3.org/2000/svg" xmlns:sodipodi="http://sodipodi.sourceforge.net/DTD/sodipodi-0.dtd" xmlns:inkscape="http://www.inkscape.org/namespaces/inkscape" width="62.53653mm" height="100.90028mm" viewBox="0 0 221.58612 357.52067" id="svg2" version="1.1" inkscape:version="0.91 r13725" sodipodi:docname="micro_headphones.svg" inkscape:export-filename="/home/manu/Bureau/zzz.svg.png" inkscape:export-xdpi="200" inkscape:export-ydpi="200">
  <sodipodi:namedview id="base" pagecolor="#ffffff" bordercolor="#666666" borderopacity="1.0" inkscape:pageopacity="1" inkscape:pageshadow="2" inkscape:zoom="1.5243873" inkscape:cx="110.79306" inkscape:cy="178.76035" inkscape:document-units="px" inkscape:current-layer="svg2" showgrid="true" inkscape:window-width="1366" inkscape:window-height="715" inkscape:window-x="0" inkscape:window-y="0" inkscape:window-maximized="1" inkscape:object-nodes="true" inkscape:object-paths="true" showborder="false" inkscape:snap-global="false" showguides="true" inkscape:guide-bbox="true" inkscape:snap-object-midpoints="true" inkscape:snap-smooth-nodes="true" inkscape:snap-intersection-paths="true" inkscape:snap-center="true" fit-margin-top="0" fit-margin-left="0" fit-margin-right="0" fit-margin-bottom="0"/>
  <defs id="defs4">
    <inkscape:path-effect effect="bend_path" id="path-effect4143" is_visible="true" bendpath="m -2678.75,-1408.5001 c 155.3102,43.748 245.9132,31.2288 315,0" prop_scale="1" scale_y_rel="false" vertical="false" bendpath-nodetypes="cc"/>
    <inkscape:path-effect effect="bend_path" id="path-effect4141" is_visible="true" bendpath="m -2530.25,-1408.5001 c 5.7306,0 11.3601,0 18,0" prop_scale="1" scale_y_rel="true" vertical="false" bendpath-nodetypes="cc"/>
  </defs>
  <metadata id="metadata7">
    <rdf:RDF>
      <cc:Work rdf:about="">
        <dc:format>image/svg+xml</dc:format>
        <dc:type rdf:resource="http://purl.org/dc/dcmitype/StillImage"/>
        <dc:title/>
      </cc:Work>
    </rdf:RDF>
  </metadata>
  <g inkscape:groupmode="layer" id="layer2" inkscape:label="dessin" style="display:inline;opacity:1" transform="translate(2243.7443,1619.6811)">
    <g id="g4432" transform="matrix(0.9255853,0.37853911,-0.37853911,0.9255853,-705.03672,704.91789)">
      <path inkscape:connector-curvature="0" id="path4341" d="m -2124.0869,-1384.9654 a 67.293428,39.440864 81.997099 0 1 -29.688,72.1291 67.293428,39.440864 81.997099 0 1 -48.4256,-61.147 67.293428,39.440864 81.997099 0 1 29.688,-72.129 67.293428,39.440864 81.997099 0 1 48.4256,61.1469 z" style="color:#000000;clip-rule:nonzero;display:inline;overflow:visible;visibility:visible;opacity:1;isolation:auto;mix-blend-mode:normal;color-interpolation:sRGB;color-interpolation-filters:linearRGB;solid-color:#000000;solid-opacity:1;fill:#000000;fill-opacity:1;fill-rule:evenodd;stroke:none;stroke-width:1;stroke-linecap:round;stroke-linejoin:miter;stroke-miterlimit:4;stroke-dasharray:4, 4;stroke-dashoffset:0;stroke-opacity:1;color-rendering:auto;image-rendering:auto;shape-rendering:auto;text-rendering:auto;enable-background:accumulate"/>
      <path inkscape:connector-curvature="0" id="ellipse4343" d="m -2169.293,-1446.3375 -2.491,0.1842 a 67.293437,39.440868 81.997099 0 1 2.4978,-0.1348 l -0.01,-0.049 z m -3.3289,0.2471 -5.1775,0.3841 a 67.293445,39.440873 81.997099 0 0 -29.6881,72.1302 67.293445,39.440873 81.997099 0 0 45.9529,61.281 l 0.01,0.079 7.7517,-0.62 a 67.293437,39.440868 81.997099 0 1 -48.426,-61.1462 67.293437,39.440868 81.997099 0 1 29.578,-72.1077 z" style="color:#000000;clip-rule:nonzero;display:inline;overflow:visible;visibility:visible;opacity:1;isolation:auto;mix-blend-mode:normal;color-interpolation:sRGB;color-interpolation-filters:linearRGB;solid-color:#000000;solid-opacity:1;fill:#a0907f;fill-opacity:1;fill-rule:evenodd;stroke:none;stroke-width:1;stroke-linecap:round;stroke-linejoin:miter;stroke-miterlimit:4;stroke-dasharray:4, 4;stroke-dashoffset:0;stroke-opacity:1;color-rendering:auto;image-rendering:auto;shape-rendering:auto;text-rendering:auto;enable-background:accumulate"/>
      <path inkscape:connector-curvature="0" id="ellipse4351" d="m -2197.9658,-1431.3149 a 62.905658,39.37985 80.730771 0 0 -14.2859,59.4549 62.905658,39.37985 80.730771 0 0 36.721,55.8743 67.293453,39.440878 81.997099 0 1 -31.9567,-57.5904 67.293453,39.440878 81.997099 0 1 9.5216,-57.7388 z" style="color:#000000;clip-rule:nonzero;display:inline;overflow:visible;visibility:visible;opacity:1;isolation:auto;mix-blend-mode:normal;color-interpolation:sRGB;color-interpolation-filters:linearRGB;solid-color:#000000;solid-opacity:1;fill:#d5cec6;fill-opacity:1;fill-rule:evenodd;stroke:none;stroke-width:1;stroke-linecap:round;stroke-linejoin:miter;stroke-miterlimit:4;stroke-dasharray:4, 4;stroke-dashoffset:0;stroke-opacity:1;color-rendering:auto;image-rendering:auto;shape-rendering:auto;text-rendering:auto;enable-background:accumulate"/>
      <path sodipodi:nodetypes="ccccccc" inkscape:connector-curvature="0" id="path4361" d="m -2162.0377,-1445.1717 c -20.6957,4.4201 -33.0802,36.0638 -28.0866,71.764 4.2392,30.1068 19.7831,54.8032 37.9227,60.2523 1.2631,-0.2789 -0.9233,0.3269 0.298,-0.1635 -16.9733,-7.1052 -31.3297,-31.7929 -35.3456,-60.0888 -4.6509,-33.2751 6.8414,-64.4105 25.5259,-71.645 -1.0005,-0.4244 0.691,0.1826 -0.3144,-0.119 z" style="color:#000000;clip-rule:nonzero;display:inline;overflow:visible;visibility:visible;opacity:1;isolation:auto;mix-blend-mode:normal;color-interpolation:sRGB;color-interpolation-filters:linearRGB;solid-color:#000000;solid-opacity:1;fill:#d5cec6;fill-opacity:0.96862745;fill-rule:evenodd;stroke:none;stroke-width:1;stroke-linecap:round;stroke-linejoin:miter;stroke-miterlimit:4;stroke-dasharray:4, 4;stroke-dashoffset:0;stroke-opacity:1;color-rendering:auto;image-rendering:auto;shape-rendering:auto;text-rendering:auto;enable-background:accumulate"/>
      <path sodipodi:nodetypes="cccccccccc" inkscape:connector-curvature="0" id="path4300" d="m -2217.6535,-1473.7595 -1.0607,-88.0348 2.2142,-11.8308 c 5.8135,-11.1564 23.2014,-16.8106 42.4482,-16.1553 l 59.1768,32.7803 2.375,90.25 -30,19 -34.2297,3.689 c -10.6231,-1.2923 -24.3216,-5.0989 -36.1982,-11.3333 -4.3764,-6.2385 -4.5281,-12.5665 -4.7256,-18.3651 z" style="opacity:1;fill:#000000;fill-rule:evenodd;stroke:none;stroke-width:1px;stroke-linecap:butt;stroke-linejoin:miter;stroke-opacity:1"/>
      <path inkscape:connector-curvature="0" id="path4175" transform="translate(-2426.25,-1631.4001)" d="m 252.16992,41.041016 c -0.21685,-1.74e-4 -0.44194,0.01019 -0.66015,0.01172 -2.82399,1.974644 -5.78725,4.934368 -6.88477,12.347657 -0.4398,2.9705 -7.0967,5.6237 -7.5625,2.1875 -0.7686,-5.669644 1.35739,-10.422849 4.86328,-13.919922 -0.48491,0.05821 -0.97343,0.122192 -1.46484,0.189453 -3.875,3.787804 -6.85335,8.430019 -7.49219,14.386719 -0.228,2.1264 -4.31555,4.53915 -4.71875,0.59375 -0.6129,-5.997203 1.1897,-8.2544 3.6875,-13.25 0.0308,-0.06152 0.0724,-0.122273 0.10742,-0.183594 -0.58479,0.134581 -1.17976,0.283886 -1.77344,0.431641 -3.23353,3.462979 -5.87729,8.123354 -5.33398,13.314453 0.3243,3.0988 -5.1855,6.2077 -4.3125,1.5625 0.513,-2.729603 0.5247,-5.9642 1.3125,-8.375 0.59876,-1.832395 1.76753,-3.543543 3.14453,-5.082032 -0.59067,0.181376 -1.18058,0.384561 -1.76758,0.613282 -3.4947,3.496505 -5.63585,10.539833 -6.18945,14.96875 -0.3794,3.0313 -3.2559,5.1097 -2.75,1.0625 -0.0157,-5.364655 2.68943,-10.536796 5.82422,-14.576172 -1.13825,0.615689 -2.24545,1.317896 -3.3125,2.09375 -2.47645,3.880142 -4.3985,8.765451 -4.44922,13.107422 -0.015,1.2759 -0.8432,4.4375 -2.1875,4.4375 -1.1019,0 -0.375,-3.4171 -0.375,-4.3125 0,-3.209982 1.57566,-6.745243 3.13086,-9.863282 -4.17751,4.327368 -7.00725,9.962281 -6.88477,16.111329 l 0.12305,6.21289 c 2.87827,-0.89136 5.66524,-1.660375 8.50391,-2.408203 1.9753,1.5013 0.70014,3.040409 0.0566,4.570313 -2.85592,1.172497 -5.65676,2.154648 -8.45508,3.113281 l 0.10351,5.167969 c 3.07014,-0.963711 6.02081,-1.774286 9.03516,-2.56836 1.9753,1.5012 0.70004,3.038456 0.0566,4.56836 -3.03658,1.246682 -6.01086,2.28106 -8.98633,3.296874 l 0.10352,5.25586 c 3.20073,-1.014125 6.26931,-1.86018 9.40234,-2.685547 1.9753,1.5012 0.70004,3.038359 0.0566,4.568359 -3.16058,1.297484 -6.25423,2.364684 -9.35156,3.419924 l 0.10547,5.3457 c 3.04951,-0.9558 5.98294,-1.76169 8.97852,-2.55078 1.9752,1.5012 0.70004,3.03836 0.0566,4.56836 -3.01724,1.2387 -5.97321,2.2674 -8.92969,3.27734 l 0.10937,5.46289 c 2.83736,-0.87565 5.58815,-1.63531 8.38868,-2.37305 1.9753,1.50124 0.70014,3.03826 0.0566,4.56836 -2.81681,1.15641 -5.57981,2.12788 -8.33985,3.07422 l 0.0957,4.87696 c 2.97987,-0.92937 5.85491,-1.7198 8.7871,-2.49219 1.97524,1.5013 0.70005,3.03826 0.0566,4.56836 -2.9522,1.21196 -5.84562,2.22194 -8.73829,3.21094 l 0.10938,5.46093 c 2.99333,-0.93413 5.87967,-1.72624 8.82422,-2.50195 1.9752,1.5013 0.70004,3.03651 0.0566,4.56641 -2.9649,1.21718 -5.87025,2.23158 -8.77539,3.22461 l 0.11719,5.91211 c 2.85469,-0.88214 5.62092,-1.64472 8.4375,-2.38672 1.9752,1.5013 0.70004,3.0364 0.0566,4.5664 -2.83345,1.16322 -5.61232,2.14022 -8.38868,3.0918 l 0.0547,2.75976 c 0.1412,7.08993 1.08429,16.71109 5.30469,18.73829 1.47391,0.70797 2.93684,1.37177 4.39453,2.01562 -3.75349,-4.30579 -7.03762,-9.51563 -6.46289,-15.55664 -0.14155,-1.63615 0.49977,-2.43558 1.17578,-2.41797 0.67601,0.0176 1.38672,0.85277 1.38672,2.48047 -0.10039,7.49434 4.84359,12.85933 9.05859,17.6543 2.75259,1.0894 5.4779,2.07363 8.16993,2.93945 -2.76935,-1.50581 -5.59759,-3.2344 -8,-4.99414 -1.6566,-1.2134 -7.68127,-8.78899 -7.07227,-17.36719 0.14477,-1.87429 0.70764,-2.6729 1.33008,-2.68945 0.80028,-0.0213 1.7006,1.24732 1.9414,3.17383 -0.2751,6.5437 4.38419,13.52493 8.83789,17.23633 2.98536,2.75098 7.51616,5.1135 11.55274,7.05273 27.08024,6.53905 50.87429,1.88373 70.91406,-9.52734 3.87285,-2.20534 5.05217,-2.73014 4.61328,-18.23633 -8.20379,-3.5667 -15.67582,-5.34146 -23.57031,-8.48828 -0.6434,-1.5224 -1.92051,-3.04346 0.0547,-4.56836 7.28645,1.83264 14.21922,3.77993 23.35937,7.73242 l -0.1914,-6.07227 c -8.13195,-3.51351 -15.5509,-5.28272 -23.38672,-8.40625 -0.6434,-1.5222 -1.92051,-3.04356 0.0547,-4.56836 7.23671,1.82012 14.11891,3.7504 23.16601,7.64844 l -0.17773,-5.67773 c -7.90123,-3.34663 -15.14527,-5.09482 -22.79102,-8.14258 -0.6434,-1.5223 -1.92051,-3.04356 0.0547,-4.56836 7.08134,1.78097 13.80781,3.65287 22.57031,7.38477 l -0.1582,-5.0918 c -7.54313,-3.09854 -14.52115,-4.83143 -21.86719,-7.75977 -0.6435,-1.5223 -1.92061,-3.04366 0.0547,-4.56836 6.82442,1.71636 13.33897,3.53537 21.64453,7.00391 l -0.17383,-5.5918 c -7.55607,-3.10777 -14.54354,-4.84288 -21.90039,-7.77539 -0.6434,-1.5224 -1.92051,-3.04356 0.0547,-4.56836 6.83414,1.71872 13.35712,3.53932 21.67969,7.01758 l -0.17188,-5.50586 c -7.50704,-3.07437 -14.45809,-4.806769 -21.77344,-7.722652 -0.6434,-1.522404 -1.91866,-3.045613 0.0566,-4.570313 6.79823,1.709829 13.28963,3.522467 21.54883,6.964844 L 313,92.771484 c -7.15811,-2.846718 -13.84253,-4.56232 -20.85938,-7.359375 -0.6434,-1.5223 -1.92061,-3.043559 0.0547,-4.568359 6.54394,1.645813 12.81181,3.394845 20.63672,6.591797 l -0.16797,-5.382813 c -6.75552,-2.599892 -13.11779,-4.274695 -19.7832,-6.93164 -0.6435,-1.5223 -1.91866,-3.045413 0.0566,-4.570313 6.23241,1.567542 12.20529,3.218821 19.51758,6.132813 -0.82485,-12.958561 -7.44244,-24.846316 -22.1875,-28.644532 -11.01175,-2.836509 -22.8999,-6.985871 -38.09766,-6.998046 z m -2.61914,23.314453 c 0.5955,-0.004 1.18166,0.0015 1.75586,0.01953 10.6932,0.3376 18.3023,1.909319 26.375,3.824219 1.9753,2.4902 0.69819,3.389856 0.0547,4.597656 -8.6311,-0.7776 -16.74535,-2.970109 -25.87695,-3.132813 -8.82714,-0.1572 -18.60728,1.635531 -30.54688,5.302735 L 221,69.328125 c 8.4502,-2.318 19.61768,-4.897656 28.55078,-4.972656 z m 0.74024,10.652343 c 0.5956,-0.004 1.1797,0.0015 1.7539,0.01953 10.6932,0.3376 18.30422,1.911168 26.37696,3.826172 1.9753,2.4901 0.69808,3.387903 0.0547,4.595703 -8.631,-0.7776 -16.74525,-2.970113 -25.87695,-3.132813 -8.827,-0.1571 -18.60724,1.637584 -30.54688,5.304688 l -0.3125,-5.640625 c 8.45044,-2.317904 19.61765,-4.898653 28.55079,-4.972657 z m 0.57617,10.722657 c 0.5955,-0.004 1.18156,0.0015 1.75586,0.01953 10.6931,0.3376 18.3022,1.911272 26.375,3.826172 1.9753,2.4901 0.69808,3.387803 0.0547,4.595703 -8.631,-0.7777 -16.74525,-2.970209 -25.87695,-3.132813 -8.827,-0.1572 -18.60727,1.637488 -30.54687,5.304688 l -0.3125,-5.640625 c 8.4503,-2.318 19.61768,-4.898656 28.55078,-4.972656 z m -0.21289,10.677734 c 0.5955,-0.004 1.18156,0.0015 1.75586,0.01953 10.6932,0.3376 18.30425,1.91116 26.37695,3.826177 1.9752,2.4901 0.69809,3.3878 0.0547,4.5957 -8.631,-0.7777 -16.74526,-2.96826 -25.87696,-3.13086 -8.827,-0.1572 -18.60922,1.63553 -30.54882,5.30273 l -0.31055,-5.64062 c 8.4503,-2.317905 19.61573,-4.898658 28.54883,-4.972658 z m -0.37305,10.748047 c 0.5956,-0.004 1.17961,0.002 1.75391,0.0195 10.6932,0.3376 18.30425,1.91127 26.37695,3.82617 1.9753,2.4901 0.69819,3.38781 0.0547,4.59571 -8.6311,-0.7777 -16.74536,-2.97022 -25.87696,-3.13282 -8.8271,-0.1572 -18.60727,1.63759 -30.54687,5.30469 l -0.3125,-5.64062 c 8.4502,-2.318 19.61778,-4.89866 28.55078,-4.97266 z m 0.59961,10.32813 c 0.5955,-0.004 1.18166,0.002 1.75586,0.0195 10.6932,0.3376 18.3023,1.91117 26.375,3.82617 1.9752,2.4901 0.69809,3.3878 0.0547,4.5957 -8.631,-0.7777 -16.74526,-2.97021 -25.87696,-3.13281 -8.827,-0.1572 -18.60727,1.63759 -30.54687,5.30469 l -0.3125,-5.64063 c 8.4503,-2.318 19.61768,-4.89765 28.55078,-4.97265 z m 0.25195,10.86328 c 0.5956,-0.004 1.18156,0.002 1.75586,0.0195 10.6931,0.3376 18.3022,1.91127 26.375,3.82617 1.9752,2.4902 0.69809,3.3879 0.0547,4.5957 -8.631,-0.7776 -16.74535,-2.97011 -25.87695,-3.13281 -8.827,-0.1572 -18.60718,1.63749 -30.54688,5.30469 l -0.3125,-5.64063 c 8.4503,-2.318 19.61758,-4.89765 28.55078,-4.97265 z m -0.16406,11.23437 c 0.5956,-0.004 1.17961,0.002 1.75391,0.0195 10.6932,0.3376 18.30425,1.91127 26.37695,3.82617 1.9752,2.4901 0.69809,3.38781 0.0547,4.59571 -8.631,-0.7777 -16.74536,-2.97018 -25.87696,-3.13282 -8.827,-0.1572 -18.60717,1.63759 -30.54687,5.30469 l -0.3125,-5.64062 c 8.4503,-2.318 19.61778,-4.89866 28.55078,-4.97266 z m -8.54102,14.84961 c 1.77126,0.10713 3.43953,0.99434 3.57227,2.59375 1.7488,13.1677 16.5851,16.6711 27.125,20.75 l -4,3.625 c -13.7482,-4.5719 -28.5293,-8.17 -31,-23.375 -0.42255,-2.58019 2.0254,-3.73149 4.30273,-3.59375 z m -11.13281,1.11914 c 1.30221,-0.10365 2.66992,0.96003 2.66992,3.23828 1.4658,13.5364 9.97111,16.382 19.53321,21.125 2.6236,1.3014 9.16778,3.15857 10.95898,3.44727 -0.6564,0.2813 -2.50144,1.23688 -3.71094,1.76758 -1.8643,-0.2067 -6.79138,-1.31979 -9.45898,-2.20899 -12.4661,-4.1554 -20.35044,-10.46231 -22.27344,-23.59961 -0.25915,-2.39395 0.97904,-3.66588 2.28125,-3.76953 z m -7.54687,1.96484 c 0.9994,0.031 2.08398,1.32253 2.08398,2.86524 -0.2299,10.0077 7.14933,17.79348 17.58985,21.30078 1.8823,0.6274 7.14436,2.72615 8.04296,3.09375 l -2.12109,1.67969 c -1.8916,-0.2769 -2.41171,-0.46979 -3.69141,-0.99219 -6.9436,-2.8347 -15.93241,-6.51001 -20.34961,-12.35351 -2.5554,-3.38052 -3.01219,-8.29424 -3.18359,-12.90626 0.12552,-1.97382 0.85159,-2.71162 1.62891,-2.6875 z" style="opacity:1;fill:#d5cec6;fill-opacity:1;fill-rule:evenodd;stroke:none;stroke-width:1px;stroke-linecap:butt;stroke-linejoin:miter;stroke-opacity:1"/>
      <path transform="translate(-2426.25,-1631.4001)" id="path4306" d="m 249.22266,50.597656 c -4.47101,-0.184761 -5.24677,7.958118 -6.33204,12.644532 -0.0848,0.366242 -0.17836,0.901182 -0.28124,1.585937 2.39974,-0.281505 4.73907,-0.454166 6.9414,-0.472656 0.5955,-0.004 1.18166,0.0015 1.75586,0.01953 0.64711,0.02043 1.2497,0.06057 1.875,0.08984 -0.57812,-7.766451 -1.2158,-12.949697 -1.80469,-13.244141 -0.80126,-0.400637 -1.51558,-0.596652 -2.15429,-0.623047 z m 2.63672,19.066406 c -3.15543,-0.05619 -6.44045,0.149194 -9.89454,0.587891 -0.16307,1.617522 -0.32707,3.463404 -0.49023,5.484375 3.05271,-0.422587 6.04579,-0.705563 8.81641,-0.728516 0.5956,-0.004 1.1797,0.0015 1.7539,0.01953 0.62283,0.01966 1.20207,0.05806 1.80469,0.08594 -0.0975,-1.868379 -0.19767,-3.666063 -0.30273,-5.375 -0.5625,-0.02514 -1.11745,-0.06406 -1.6875,-0.07422 z m 0.74023,10.652344 c -3.64419,-0.06486 -7.46553,0.221519 -11.51953,0.816406 -0.11641,1.756324 -0.22417,3.59125 -0.32617,5.50586 3.50354,-0.53182 6.95017,-0.882001 10.11328,-0.908203 0.5955,-0.004 1.18156,0.0015 1.75586,0.01953 0.59115,0.01866 1.13999,0.05596 1.71289,0.08203 -0.0719,-1.889675 -0.15559,-3.647404 -0.23633,-5.449219 -0.50072,-0.02094 -0.99328,-0.05738 -1.5,-0.06641 z m 0.57617,10.722656 c -3.98816,-0.07103 -8.18719,0.27754 -12.67578,0.996094 -0.0713,1.739713 -0.13549,3.503294 -0.1875,5.3125 3.58239,-0.551944 7.10955,-0.912678 10.3418,-0.939453 0.5955,-0.004 1.18156,0.0015 1.75586,0.01953 0.78123,0.02466 1.51396,0.06991 2.26367,0.107422 -0.0485,-1.848241 -0.10787,-3.631023 -0.16602,-5.4375 -0.44523,-0.01746 -0.88204,-0.05058 -1.33203,-0.05859 z m -0.21094,10.679688 c -4.01806,-0.0716 -8.25003,0.28231 -12.77734,1.01172 -0.0277,1.76473 -0.04,3.54891 -0.043,5.33789 3.51172,-0.53388 6.96653,-0.88585 10.13672,-0.91211 0.5956,-0.004 1.17961,0.002 1.75391,0.0195 0.98545,0.0311 1.91959,0.0834 2.85546,0.13477 -0.0267,-1.84959 -0.0637,-3.6714 -0.10156,-5.51172 -0.60746,-0.0284 -1.20796,-0.0691 -1.82422,-0.0801 z m -0.375,10.74609 c -3.90749,-0.0696 -8.01863,0.26657 -12.40429,0.95508 0.0235,1.68778 0.0638,3.36245 0.11523,5.03906 3.66519,-0.57314 7.27571,-0.94686 10.58008,-0.9746 0.5955,-0.004 1.18166,0.002 1.75586,0.0195 0.80618,0.0254 1.5633,0.0722 2.33594,0.11132 -0.003,-1.67796 -0.0134,-3.3512 -0.0273,-5.04687 -0.78128,-0.0427 -1.55975,-0.0893 -2.35547,-0.10352 z m 0.59961,10.32813 c -3.98702,-0.071 -8.18473,0.27795 -12.67187,0.99609 0.095,1.85272 0.19778,3.69565 0.33594,5.49219 3.56112,-0.5464 7.06588,-0.90662 10.27929,-0.93359 0.5956,-0.004 1.18156,0.002 1.75586,0.0195 0.69428,0.0219 1.34248,0.0636 2.01172,0.0957 0.0278,-1.84286 0.0496,-3.6903 0.0606,-5.5918 -0.59014,-0.0271 -1.17304,-0.0675 -1.77149,-0.0781 z m 0.25196,10.86328 c -3.81797,-0.068 -7.83129,0.25228 -12.10352,0.9082 0.21431,1.98524 0.46272,3.90722 0.74609,5.75586 3.07654,-0.42811 6.0935,-0.71516 8.88477,-0.73828 0.5956,-0.004 1.17961,0.002 1.75391,0.0195 0.65383,0.0206 1.26293,0.0602 1.89453,0.0898 0.0777,-1.91313 0.13346,-3.93153 0.18554,-5.97461 -0.45491,-0.0181 -0.90145,-0.0524 -1.36132,-0.0606 z m -0.16407,11.23437 c -3.26438,-0.0581 -6.66193,0.1552 -10.24804,0.62696 1.50405,6.98203 5.81527,20.66519 7.99414,18.48633 1.68492,-1.68492 2.73581,-8.97743 3.33008,-19.06641 -0.36042,-0.0127 -0.71263,-0.0404 -1.07618,-0.0469 z" style="opacity:1;fill:#a0907f;fill-opacity:1;fill-rule:evenodd;stroke:none;stroke-width:1px;stroke-linecap:butt;stroke-linejoin:miter;stroke-opacity:1" inkscape:connector-curvature="0"/>
      <path id="path4311" transform="translate(-2426.25,-1631.4001)" d="m 236.61133,60.529297 c -0.55722,-0.01248 -1.15022,0.06862 -1.76563,0.253906 l -21.03125,6.332031 c -3.13313,0.94331 -5.67722,4.226112 -5.90234,7.503907 2.29142,-0.681784 4.55206,-1.314345 6.83594,-1.916016 1.9753,1.5013 0.70018,3.040408 0.0566,4.570313 -2.33323,0.957903 -4.62766,1.777485 -6.91602,2.572265 l 0,5.283203 c 2.55674,-0.773435 5.06189,-1.474062 7.59961,-2.142578 1.9753,1.5012 0.70008,3.038455 0.0566,4.56836 -2.58487,1.061232 -5.1225,1.958973 -7.65625,2.832031 l 0,5.353515 c 2.75844,-0.846735 5.44929,-1.600091 8.17578,-2.318359 1.9753,1.5012 0.70008,3.038359 0.0566,4.568359 -2.78052,1.141462 -5.50742,2.097596 -8.23242,3.031246 l 0,5.4336 c 2.68562,-0.81996 5.30593,-1.5496 7.96485,-2.25 1.9752,1.5012 0.70008,3.03836 0.0566,4.56836 -2.70866,1.11201 -5.36689,2.04709 -8.02149,2.95898 l 0,5.54688 c 2.55441,-0.77342 5.05502,-1.47093 7.58985,-2.13868 1.9753,1.50125 0.70018,3.03826 0.0566,4.56836 -2.58139,1.05976 -5.11635,1.95796 -7.64649,2.83008 l 0,4.94532 c 2.76559,-0.84943 5.45577,-1.59631 8.18945,-2.31641 1.97525,1.5013 0.7001,3.03826 0.0566,4.56836 -2.78507,1.14335 -5.51694,2.10326 -8.2461,3.03906 l 0,5.51953 c 2.85544,-0.88225 5.62409,-1.64648 8.44141,-2.38867 1.9752,1.5013 0.70008,3.03651 0.0566,4.56641 -2.87065,1.17848 -5.68519,2.16399 -8.49805,3.12695 l 0,5.96289 c 2.79747,-0.86106 5.51403,-1.61188 8.27735,-2.33984 1.9752,1.5013 0.70008,3.0364 0.0566,4.5664 -2.41432,0.99115 -4.78703,1.83798 -7.1543,2.65821 1.07852,1.1828 2.7976,1.64328 4.74609,1.05664 l 21.03125,-6.33203 c 1.62459,-0.48913 3.08998,-1.60915 4.15821,-3.0293 -4.99439,0.88807 -10.36861,2.23915 -16.27344,4.05273 l -0.3125,-5.64062 c 5.43355,-1.49048 11.98756,-3.08129 18.35156,-4.05274 l 0,-5.84961 c -5.44706,0.87176 -11.32829,2.29782 -17.875,4.3086 l -0.3125,-5.64063 c 5.38655,-1.47758 11.87535,-3.05362 18.1875,-4.02734 l 0,-5.54297 c -5.51731,0.86715 -11.47892,2.30579 -18.12695,4.34766 l -0.3125,-5.64063 c 5.45869,-1.49737 12.04784,-3.09243 18.43945,-4.0625 l 0,-5.06641 c -5.68315,0.85391 -11.83721,2.32543 -18.72656,4.44141 l -0.3125,-5.64062 c 5.63033,-1.54448 12.46077,-3.18992 19.03906,-4.14844 l 0,-5.33985 c -5.58041,0.86199 -11.61477,2.31109 -18.35351,4.38086 l -0.31055,-5.64062 c 5.52356,-1.515105 12.20209,-3.129485 18.66406,-4.095704 l 0,-5.291015 c -5.5211,0.866869 -11.4871,2.306005 -18.14062,4.349609 l -0.3125,-5.640625 c 5.46261,-1.498449 12.0572,-3.096533 18.45312,-4.066406 l 0,-5.455078 c -5.68045,0.854138 -11.83138,2.324687 -18.7168,4.439453 l -0.3125,-5.640625 c 5.62768,-1.543637 12.45409,-3.187722 19.0293,-4.146485 l 0,-5.419922 c -5.88269,0.832903 -12.27378,2.346427 -19.45703,4.552735 L 221,69.328125 c 5.83779,-1.601381 12.9648,-3.309011 19.76367,-4.248047 -0.0445,-2.723935 -1.76909,-4.497418 -4.15234,-4.550781 z" style="opacity:1;fill:#ffffff;fill-opacity:1;fill-rule:evenodd;stroke:none;stroke-width:1px;stroke-linecap:butt;stroke-linejoin:miter;stroke-opacity:1" inkscape:connector-curvature="0"/>
      <path id="ellipse4316" transform="translate(-2426.25,-1631.4001)" d="m 330.21875,179.56055 a 49.851033,66.998383 0 0 0 -49.85156,66.99804 49.851033,66.998383 0 0 0 49.85156,67 l 16.61719,0 a 49.851027,66.998375 0 0 1 -49.85156,-67 49.851027,66.998375 0 0 1 49.85156,-66.99804 l -16.61719,0 z" style="color:#000000;clip-rule:nonzero;display:inline;overflow:visible;visibility:visible;opacity:1;isolation:auto;mix-blend-mode:normal;color-interpolation:sRGB;color-interpolation-filters:linearRGB;solid-color:#000000;solid-opacity:1;fill:#000000;fill-opacity:1;fill-rule:evenodd;stroke:none;stroke-width:1;stroke-linecap:round;stroke-linejoin:miter;stroke-miterlimit:4;stroke-dasharray:4, 4;stroke-dashoffset:0;stroke-opacity:1;color-rendering:auto;image-rendering:auto;shape-rendering:auto;text-rendering:auto;enable-background:accumulate" inkscape:connector-curvature="0"/>
      <ellipse ry="66.998367" rx="49.851021" cy="-1384.8408" cx="-2079.4141" id="path4314" style="color:#000000;clip-rule:nonzero;display:inline;overflow:visible;visibility:visible;opacity:1;isolation:auto;mix-blend-mode:normal;color-interpolation:sRGB;color-interpolation-filters:linearRGB;solid-color:#000000;solid-opacity:1;fill:#d5cec6;fill-opacity:1;fill-rule:evenodd;stroke:none;stroke-width:1;stroke-linecap:round;stroke-linejoin:miter;stroke-miterlimit:4;stroke-dasharray:4, 4;stroke-dashoffset:0;stroke-opacity:1;color-rendering:auto;image-rendering:auto;shape-rendering:auto;text-rendering:auto;enable-background:accumulate"/>
      <ellipse style="color:#000000;clip-rule:nonzero;display:inline;overflow:visible;visibility:visible;opacity:1;isolation:auto;mix-blend-mode:normal;color-interpolation:sRGB;color-interpolation-filters:linearRGB;solid-color:#000000;solid-opacity:1;fill:#7e6d5d;fill-opacity:1;fill-rule:evenodd;stroke:none;stroke-width:1;stroke-linecap:round;stroke-linejoin:miter;stroke-miterlimit:4;stroke-dasharray:4, 4;stroke-dashoffset:0;stroke-opacity:1;color-rendering:auto;image-rendering:auto;shape-rendering:auto;text-rendering:auto;enable-background:accumulate" id="ellipse4324" cx="-2062.4436" cy="-1386.7761" rx="32.880463" ry="47.720512"/>
      <path id="ellipse4329" transform="translate(-2426.25,-1631.4001)" d="m 346.83594,179.56055 a 49.851027,66.998375 0 0 0 -49.85156,66.99804 49.851027,66.998375 0 0 0 49.85156,67 49.851027,66.998375 0 0 0 4.15234,-0.26953 49.497473,66.998375 0 0 1 -45.51758,-66.73047 49.497473,66.998375 0 0 1 45.3711,-66.72851 49.851027,66.998375 0 0 0 -4.00586,-0.26953 z" style="color:#000000;clip-rule:nonzero;display:inline;overflow:visible;visibility:visible;opacity:1;isolation:auto;mix-blend-mode:normal;color-interpolation:sRGB;color-interpolation-filters:linearRGB;solid-color:#000000;solid-opacity:1;fill:#a0907f;fill-opacity:1;fill-rule:evenodd;stroke:none;stroke-width:1;stroke-linecap:round;stroke-linejoin:miter;stroke-miterlimit:4;stroke-dasharray:4, 4;stroke-dashoffset:0;stroke-opacity:1;color-rendering:auto;image-rendering:auto;shape-rendering:auto;text-rendering:auto;enable-background:accumulate" inkscape:connector-curvature="0"/>
      <path id="ellipse4333" transform="translate(-2426.25,-1631.4001)" d="m 352.55664,196.9043 a 32.880471,47.720524 0 0 0 -32.88086,47.71875 32.880471,47.720524 0 0 0 32.88086,47.7207 l 11.25,0 a 32.880467,47.720518 0 0 1 -32.88086,-47.7207 32.880467,47.720518 0 0 1 32.88086,-47.71875 l -11.25,0 z" style="color:#000000;clip-rule:nonzero;display:inline;overflow:visible;visibility:visible;opacity:1;isolation:auto;mix-blend-mode:normal;color-interpolation:sRGB;color-interpolation-filters:linearRGB;solid-color:#000000;solid-opacity:1;fill:#a0907f;fill-opacity:1;fill-rule:evenodd;stroke:none;stroke-width:1;stroke-linecap:round;stroke-linejoin:miter;stroke-miterlimit:4;stroke-dasharray:4, 4;stroke-dashoffset:0;stroke-opacity:1;color-rendering:auto;image-rendering:auto;shape-rendering:auto;text-rendering:auto;enable-background:accumulate" inkscape:connector-curvature="0"/>
      <path sodipodi:nodetypes="ccccccccccc" inkscape:connector-curvature="0" id="path4369" d="m -2042.2911,-1466.6885 c 3.6956,4.4347 12.9499,20.0001 10.9602,30.052 5.5599,6.6719 12.2082,27.6818 2.3891,40.1624 0,-5.3252 -3.1078,-16.9465 -7.2997,-22.8382 -0.5448,-2.1794 1.304,-8.2048 -3.5747,-9.1924 -17.0053,-2.1257 -46.2543,42.2307 -51.6188,62.2254 -2.5518,5.9542 -21.8218,7.8002 -18.7383,-4.5962 5.3247,-21.2987 23.8916,-45.6612 39.2444,-61.5183 4.8067,-8.3934 -4.192,-15.4956 -6.0104,-17.6777 -5.1182,-5.0515 -0.1299,-8.8151 1.7678,-9.8995 z" style="color:#000000;clip-rule:nonzero;display:inline;overflow:visible;visibility:visible;opacity:1;isolation:auto;mix-blend-mode:normal;color-interpolation:sRGB;color-interpolation-filters:linearRGB;solid-color:#000000;solid-opacity:1;fill:#000000;fill-opacity:1;fill-rule:nonzero;stroke:none;stroke-width:1;stroke-linecap:round;stroke-linejoin:round;stroke-miterlimit:4;stroke-dasharray:none;stroke-dashoffset:0;stroke-opacity:1;color-rendering:auto;image-rendering:auto;shape-rendering:auto;text-rendering:auto;enable-background:accumulate"/>
      <path sodipodi:nodetypes="csccccssccssccc" inkscape:connector-curvature="0" id="path4375" d="m -2198.7384,-1431.1564 c -6.2783,6.2783 -13.4051,20.0216 -14.3189,33.5876 -0.1913,2.8395 -0.8017,6.5468 -1.5911,9.3692 -5.8841,-5.8841 -10.4471,-18.4677 -11.1369,-27.0469 -11.2151,7.0095 -24.0615,-7.0775 -17.3241,-18.5615 -45.5542,-91.3502 -26.7726,-167.4277 64.3468,-182.4336 86.8172,-12.334 123.8465,75.2224 139.8982,118.3254 7.1464,6.7929 11.3478,13.7421 4.7051,23.8031 -5.8427,5.8427 -20.4365,14.1303 -35.0018,16.9706 -10.2806,-5.8747 -20.3897,-26.0702 -3.182,-31.3779 14.4306,2.9954 -41.4139,-110.6812 -102.5304,-101.2046 -32.6281,5.0592 -49.0203,24.7964 -56.9221,51.2652 -8.3142,27.8502 2.3855,68.9221 16.617,90.1561 8.1336,-5.824 19.09,10.5027 14.1421,16.4402 z" style="color:#000000;clip-rule:nonzero;display:inline;overflow:visible;visibility:visible;opacity:1;isolation:auto;mix-blend-mode:normal;color-interpolation:sRGB;color-interpolation-filters:linearRGB;solid-color:#000000;solid-opacity:1;fill:#000000;fill-opacity:1;fill-rule:nonzero;stroke:none;stroke-width:1;stroke-linecap:round;stroke-linejoin:round;stroke-miterlimit:4;stroke-dasharray:none;stroke-dashoffset:0;stroke-opacity:1;color-rendering:auto;image-rendering:auto;shape-rendering:auto;text-rendering:auto;enable-background:accumulate"/>
      <path sodipodi:nodetypes="ssccscccss" inkscape:connector-curvature="0" id="path4379" transform="translate(-2426.25,-1631.4001)" d="m 243.42578,21.871094 c -37.81063,0.438426 -61.42886,26.338019 -74.07422,49.501953 -6.0052,11.000422 -7.73441,37.024243 -9.02929,49.810543 -0.13696,7.29477 -0.62852,1.39344 0.51171,9.25 14.303,-43.288692 17.74401,-81.286679 60.84375,-95.476559 41.03812,-13.511145 83.03737,11.324062 108.40235,53.71875 8.3418,11.151133 15.05489,22.482209 19.5918,31.912109 0.42173,-6.53839 -5.06395,-19.37788 -9.55274,-28.355468 -14.016,-27.376903 -49.6959,-65.269237 -84.5,-69.648438 -4.21879,-0.530831 -8.28191,-0.758245 -12.19336,-0.71289 z" style="color:#000000;clip-rule:nonzero;display:inline;overflow:visible;visibility:visible;opacity:0.39100001;isolation:auto;mix-blend-mode:normal;color-interpolation:sRGB;color-interpolation-filters:linearRGB;solid-color:#000000;solid-opacity:1;fill:#d5cec6;fill-opacity:1;fill-rule:nonzero;stroke:none;stroke-width:1;stroke-linecap:round;stroke-linejoin:round;stroke-miterlimit:4;stroke-dasharray:none;stroke-dashoffset:0;stroke-opacity:1;color-rendering:auto;image-rendering:auto;shape-rendering:auto;text-rendering:auto;enable-background:accumulate"/>
      <path id="path4384" transform="translate(-2426.25,-1631.4001)" d="m 300.65234,181.23242 c -8.8109,3.80923 -18.24753,6.34721 -28.29492,7.26563 -0.33786,6.49972 -0.56675,13.87226 -0.85742,20.65234 -0.64561,9.43877 5.58515,16.18699 11.63086,15.65625 a 49.851039,66.998391 0 0 1 14.41797,-28.79687 c 0.49101,-2.98354 1.02863,-6.0442 1.82617,-9.23438 0.32329,-1.29329 1.02652,-3.6118 1.27734,-5.54297 z" style="color:#000000;clip-rule:nonzero;display:inline;overflow:visible;visibility:visible;opacity:1;isolation:auto;mix-blend-mode:normal;color-interpolation:sRGB;color-interpolation-filters:linearRGB;solid-color:#000000;solid-opacity:1;fill:#a0907f;fill-opacity:1;fill-rule:nonzero;stroke:none;stroke-width:1;stroke-linecap:round;stroke-linejoin:round;stroke-miterlimit:4;stroke-dasharray:none;stroke-dashoffset:0;stroke-opacity:1;color-rendering:auto;image-rendering:auto;shape-rendering:auto;text-rendering:auto;enable-background:accumulate" inkscape:connector-curvature="0"/>
      <path id="path4392" transform="translate(-2426.25,-1631.4001)" d="m 280.77734,187.31641 c -0.50614,0.0942 -1.01202,0.18949 -1.52148,0.27539 0.50945,-0.0862 1.01538,-0.18086 1.52148,-0.27539 z m -31.73437,0.45312 c -2.0188,18.0529 -4.03217,41.46356 22.95703,38.00586 2.24485,-0.28763 6.64242,-0.2521 9.19727,-1.05859 -5.36337,-0.86798 -10.27393,-7.13574 -9.69727,-15.56641 0.29067,-6.78008 0.51956,-14.15262 0.85742,-20.65234 0.32549,-0.0298 0.64455,-0.0762 0.96875,-0.10938 -7.74106,0.79034 -15.83637,0.64502 -24.2832,-0.61914 z m 28.05273,0.1543 c -0.5773,0.0832 -1.15486,0.16385 -1.73632,0.23633 0.58131,-0.0726 1.15921,-0.15289 1.73632,-0.23633 z" style="color:#000000;clip-rule:nonzero;display:inline;overflow:visible;visibility:visible;opacity:1;isolation:auto;mix-blend-mode:normal;color-interpolation:sRGB;color-interpolation-filters:linearRGB;solid-color:#000000;solid-opacity:1;fill:#ffffff;fill-opacity:1;fill-rule:nonzero;stroke:none;stroke-width:1;stroke-linecap:round;stroke-linejoin:round;stroke-miterlimit:4;stroke-dasharray:none;stroke-dashoffset:0;stroke-opacity:1;color-rendering:auto;image-rendering:auto;shape-rendering:auto;text-rendering:auto;enable-background:accumulate" inkscape:connector-curvature="0"/>
      <path id="path4404" transform="translate(-2426.25,-1631.4001)" d="m 286.6875,200.41992 a 7.5572047,8.3526993 0 0 0 -7.55664,8.35352 7.5572047,8.3526993 0 0 0 6.37891,8.24023 49.851039,66.998391 0 0 1 6.78515,-13.82617 7.5572047,8.3526993 0 0 0 -5.60742,-2.76758 z" style="color:#000000;clip-rule:nonzero;display:inline;overflow:visible;visibility:visible;opacity:0.39100001;isolation:auto;mix-blend-mode:normal;color-interpolation:sRGB;color-interpolation-filters:linearRGB;solid-color:#000000;solid-opacity:1;fill:#ffffff;fill-opacity:1;fill-rule:evenodd;stroke:none;stroke-width:1;stroke-linecap:round;stroke-linejoin:miter;stroke-miterlimit:4;stroke-dasharray:4, 4;stroke-dashoffset:0;stroke-opacity:1;color-rendering:auto;image-rendering:auto;shape-rendering:auto;text-rendering:auto;enable-background:accumulate" inkscape:connector-curvature="0"/>
      <path id="path4425" d="m -2146.0215,-1406.9021 c 0.031,0.01 0.063,0.017 0.094,0.025 -0.031,-0.01 -0.063,-0.016 -0.094,-0.025 z" style="fill:#cfc8c0;fill-opacity:1;fill-rule:evenodd;stroke:none;stroke-width:1px;stroke-linecap:butt;stroke-linejoin:miter;stroke-opacity:1" inkscape:connector-curvature="0"/>
      <path id="path4423" d="m -2145.0527,-1406.6833 c -2.5549,0.8065 -6.9525,0.771 -9.1973,1.0586 -4.1364,0.5299 -7.5846,0.4229 -10.4629,-0.1934 l 59.1367,141.7149 22.627,-9.545 -19.9453,-44.9062 a 49.851039,66.998391 0 0 1 -42.9883,-66.2871 49.851039,66.998391 0 0 1 2.7637,-21.752 c -0.6458,0.057 -1.2923,0.014 -1.9336,-0.09 z" style="fill:#cfc8c0;fill-opacity:1;fill-rule:evenodd;stroke:none;stroke-width:1px;stroke-linecap:butt;stroke-linejoin:miter;stroke-opacity:1" inkscape:connector-curvature="0"/>
      <path id="path4427" transform="translate(-2426.25,-1631.4001)" d="m 263.92773,225.95898 59.78907,140.05469 4.19531,-1.76953 -27.06055,-63.65039 A 49.851045,66.998399 0 0 1 280.66797,253.125 L 269.1543,226.04492 c -1.90115,0.11606 -3.63867,0.0835 -5.22657,-0.0859 z" style="opacity:0.38800001;fill:#54514e;fill-opacity:0.96862745;fill-rule:evenodd;stroke:none;stroke-width:1px;stroke-linecap:butt;stroke-linejoin:miter;stroke-opacity:1" inkscape:connector-curvature="0"/>
    </g>
  </g>
</svg>