<?xml version="1.0" encoding="UTF-8" standalone="no"?>
<!-- Created with Inkscape (http://www.inkscape.org/) -->

<svg
   width="48"
   height="48"
   viewBox="0 0 12.7 12.7"
   version="1.1"
   id="svg1"
   inkscape:version="1.4.2 (ebf0e940, 2025-05-08)"
   sodipodi:docname="favicon.svg"
   xmlns:inkscape="http://www.inkscape.org/namespaces/inkscape"
   xmlns:sodipodi="http://sodipodi.sourceforge.net/DTD/sodipodi-0.dtd"
   xmlns="http://www.w3.org/2000/svg"
   xmlns:svg="http://www.w3.org/2000/svg">
  <sodipodi:namedview
     id="namedview1"
     pagecolor="#ffffff"
     bordercolor="#000000"
     borderopacity="0.25"
     inkscape:showpageshadow="2"
     inkscape:pageopacity="0.0"
     inkscape:pagecheckerboard="0"
     inkscape:deskcolor="#d1d1d1"
     inkscape:document-units="mm"
     inkscape:zoom="7.8229167"
     inkscape:cx="24.031957"
     inkscape:cy="15.786951"
     inkscape:window-width="1712"
     inkscape:window-height="970"
     inkscape:window-x="0"
     inkscape:window-y="39"
     inkscape:window-maximized="1"
     inkscape:current-layer="layer1" />
  <defs
     id="defs1" />
  <g
     inkscape:label="Layer 1"
     inkscape:groupmode="layer"
     id="layer1"
     transform="translate(51.858334,-71.702083)">
    <g
       id="g4"
       transform="matrix(0.69574115,0,0,1.5323623,-15.492406,-39.502827)">
      <path
         style="fill:#ffffff;fill-opacity:1;fill-rule:nonzero;stroke:none;stroke-width:0.0644511"
         d="m -34.682155,76.467276 c 0,1.981371 -1.063445,3.995973 -8.281977,3.888723 -3.091138,0.04557 -5.988169,-0.178752 -7.351965,-1.544814 -0.134442,-0.134694 -0.435801,0.491943 -0.564703,1.19285 -0.555892,-1.00705 -0.07251,-1.981874 -0.06571,-2.174975 -0.142246,-0.387463 -0.206697,-0.831572 -0.181521,-1.340132 0.301108,-2.084089 2.599698,-3.673969 8.1425,-3.609518 5.886456,-0.12865 8.303376,1.606496 8.303376,3.587866"
         id="path1" />
      <path
         style="fill:none;stroke:#211e1e;stroke-width:0.128902;stroke-linecap:butt;stroke-linejoin:miter;stroke-miterlimit:4;stroke-opacity:1"
         d="m -34.682155,76.467276 c 0,1.981371 -1.063445,3.995973 -8.281977,3.888723 -3.091138,0.04557 -5.988168,-0.178752 -7.351965,-1.544814 -0.134442,-0.134694 -0.435801,0.491943 -0.564703,1.19285 -0.555892,-1.00705 -0.07251,-1.981874 -0.06571,-2.174975 -0.142246,-0.387463 -0.206697,-0.831572 -0.181521,-1.340132 0.301108,-2.084089 2.599698,-3.673969 8.1425,-3.609518 5.886456,-0.12865 8.303376,1.606496 8.303376,3.587866 z m 0,0"
         id="path2" />
    </g>
    <g
       id="g5"
       transform="translate(0,0.37203728)">
      <path
         style="fill:#211e1e;fill-opacity:1;fill-rule:nonzero;stroke:none;stroke-width:0.0644511"
         d="m -46.889922,73.266981 c 0,0 -2.459719,-0.47281 -2.620847,2.073012 0.268379,1.632931 1.154583,1.546828 1.664653,1.686304 0,0 1.68127,-0.02669 1.447634,-1.911884 -0.596173,-1.522659 -2.231622,-0.934542 -2.19134,0.11279 -0.0564,0.886204 1.216516,1.595167 1.506546,0.298087 0,0 0.104734,-0.596174 -0.459214,-0.620343 -0.563948,-0.02417 -0.451158,0.378651 -0.451158,0.378651 0,0 0.0081,0.249748 0.241691,0.209466 0.120846,-0.128902 0.145016,-0.20141 0.145016,-0.20141 0,0 0.20141,0.01611 0.193353,0.128903 -0.0081,0.112789 -0.06445,0.402819 -0.306143,0.410876 -0.241692,0.0081 -0.636455,-0.06445 -0.483384,-0.80564 0.338369,-0.572004 0.765358,-0.410876 0.765358,-0.410876 0,0 0.435045,-0.0081 0.652568,0.853978 0.153072,0.89426 -0.878147,1.047332 -1.007049,1.047332 -0.128903,0 -1.079558,0.08862 -1.240686,-1.377644 0.249749,-1.29708 0.934542,-1.230112 1.020645,-1.248742 0.08585,-0.01863 0.953173,-0.08056 1.170695,0.08056 0.06445,-0.563948 -0.04834,-0.703424 -0.04834,-0.703424"
         id="path3" />
      <g
         id="g3"
         transform="translate(-5.8849534,3.4498003)">
        <path
           style="fill:#211e1e;fill-opacity:1;fill-rule:nonzero;stroke:none;stroke-width:0.0644511"
           d="m -40.304262,78.271909 c 0,0 0.908611,0.251259 1.662639,0.03877 0.75428,-0.21274 1.398792,-0.844411 1.488923,-1.965761 -0.01284,-1.166667 -0.766868,-1.624371 -1.501762,-1.617825 -0.734643,0.0065 -1.450152,0.386707 -1.527443,1.192346 -0.07729,0.80564 0.08384,1.501763 1.172961,1.579054 1.089376,0.07729 1.166667,-1.179507 1.166667,-1.179507 0,0 0.07729,-0.811933 -0.857251,-0.889225 -0.934542,-0.07754 -0.870091,0.760323 -0.870091,0.760323 0,0 -0.03222,0.670443 0.586606,0.689829 0.618581,0.01913 0.580061,-0.522155 0.580061,-0.522155 0,0 0,-0.328802 -0.367573,-0.425479 -0.296324,0 -0.167422,0.251511 -0.167422,0.251511 0,0 0.31571,0.335096 -0.03877,0.360776 -0.354482,0.02593 -0.302871,-0.438067 -0.302871,-0.438067 0,0 0.116063,-0.451159 0.52845,-0.386707 0.412638,0.06445 0.463998,0.167422 0.56722,0.599194 0.103223,0.432024 -0.470543,0.837866 -0.818479,0.831571 -0.290031,-0.05816 -0.80564,-0.03222 -0.825026,-0.979607 -0.01938,-0.947633 1.134442,-1.031219 1.134442,-1.031219 0,0 0.998993,-0.04532 1.09567,1.205187 0.09668,1.250252 -1.179507,1.443606 -1.379406,1.443606 -0.618581,0.02593 -1.056899,-0.154583 -1.179507,-0.25126 -0.09668,0.07729 -0.180262,0.741189 -0.148037,0.734643"
           id="path12" />
        <path
           style="fill:#211e1e;fill-opacity:1;fill-rule:nonzero;stroke:none;stroke-width:0.0644511"
           d="m -36.585479,78.168687 c 0,0.268882 -0.171702,0.486657 -0.383434,0.486657 -0.211984,0 -0.428752,-0.211229 -0.428752,-0.480111 0,-0.268631 0.216768,-0.492951 0.428752,-0.492951 0.211732,0 0.383434,0.217774 0.383434,0.486405"
           id="path13" />
        <path
           style="fill:#211e1e;fill-opacity:1;fill-rule:nonzero;stroke:none;stroke-width:0.0644511"
           d="m -37.036637,77.434044 0.219033,-2.623113 0.06445,-0.109516 c 0,0 0.457704,-0.644512 0.799346,0.122356 -0.0065,0.071 -0.01309,0.154583 -0.01309,0.154583 0,0 -0.695871,2.539527 -0.728097,2.539527 -0.03223,0 -0.341641,-0.03877 -0.341641,-0.08384"
           id="path14" />
      </g>
      <g
         id="g2"
         transform="translate(-6.155526,3.8894807)">
        <path
           style="fill:#211e1e;fill-opacity:1;fill-rule:nonzero;stroke:none;stroke-width:0.0644511"
           d="m -41.954312,77.44059 c 0,0 -0.122357,-1.495469 -0.05161,-1.55992 0.0065,-0.07729 0.05816,-0.161128 0.05816,-0.161128 0,0 1.069739,-0.212487 1.101964,-0.908611 0.03223,-0.696123 -0.637966,-0.534995 -0.637966,-0.534995 0,0 -0.328801,0.08384 -0.322256,0.644512 -0.06445,0.431773 -0.599446,0.219034 -0.638217,0.135448 -0.03852,-0.08384 -0.386707,-0.850956 0.941088,-1.295569 0,0 0.870091,-0.167422 1.231118,0.7928 0,0 0.102971,0.483384 -0.05161,0.734643 -0.154833,0.25151 -0.283735,0.618831 -1.050604,0.857251 0.01939,0.341641 -0.01938,1.282729 -0.01938,1.282729 0,0 -0.270645,0.07075 -0.560675,0.01284"
           id="path11" />
        <path
           style="fill:#211e1e;fill-opacity:1;fill-rule:nonzero;stroke:none;stroke-width:0.0644511"
           d="m -41.344916,78.12438 c 0,0.249245 -0.184038,0.451158 -0.410876,0.451158 -0.226838,0 -0.410876,-0.201913 -0.410876,-0.451158 0,-0.249245 0.184038,-0.451158 0.410876,-0.451158 0.226838,0 0.410876,0.201913 0.410876,0.451158"
           id="path4" />
      </g>
      <g
         id="g1"
         transform="translate(1.0146471,-1.0146471)">
        <path
           style="fill:#211e1e;fill-opacity:1;fill-rule:nonzero;stroke:none;stroke-width:0.0644511"
           d="m -46.631051,77.46627 -0.108761,-3.073516 0.04028,-0.193353 c 0,0 0.414904,-0.600202 0.793555,0.03223 0,0.07251 -0.004,0.136959 -0.004,0.136959 l -0.3142,3.117826 -0.406848,-0.02014"
           id="path5" />
        <path
           style="fill:#211e1e;fill-opacity:1;fill-rule:nonzero;stroke:none;stroke-width:0.0644511"
           d="m -45.590265,78.062443 0.826787,-3.711482 c 0,0 0.392246,0.01611 0.542548,0.107503 -0.123615,0.391994 -0.494209,1.49849 -0.875377,3.705943 -0.257805,0.01083 -0.493958,-0.101964 -0.493958,-0.101964"
           id="path6" />
        <path
           style="fill:#211e1e;fill-opacity:1;fill-rule:nonzero;stroke:none;stroke-width:0.0644511"
           d="m -44.430144,78.304135 c 0,0 0.82704,-3.748994 0.896778,-3.765107 0.06974,-0.01611 0.515609,0.145015 0.515609,0.182528 0,0.03776 -0.961229,3.64703 -0.875378,3.663143 0.08585,0.01611 -0.537009,-0.05891 -0.537009,-0.08056"
           id="path7" />
        <path
           style="fill:#211e1e;fill-opacity:1;fill-rule:nonzero;stroke:none;stroke-width:0.0644511"
           d="m -45.794696,76.757307 c 0,0 2.33132,0.413393 2.916667,0.703424 0.145015,-0.42422 0.150302,-0.580061 0.150302,-0.580061 0,0 -2.873364,-0.698137 -3.007553,-0.612286 -0.05388,0.241692 -0.05942,0.488923 -0.05942,0.488923"
           id="path8" />
        <path
           style="fill:#211e1e;fill-opacity:1;fill-rule:nonzero;stroke:none;stroke-width:0.0644511"
           d="m -45.638603,75.720549 c 0,0 2.416667,0.247231 2.948389,0.563948 0.215005,-0.29003 0.161128,-0.51561 0.161128,-0.51561 0,0 -1.745469,-0.526183 -3.066718,-0.585347 -0.145015,0.31143 -0.0428,0.537009 -0.0428,0.537009"
           id="path9" />
        <path
           style="fill:#211e1e;fill-opacity:1;fill-rule:nonzero;stroke:none;stroke-width:0.0644511"
           d="m -46.007111,78.142945 c 0,0.268882 -0.171702,0.486657 -0.383434,0.486657 -0.211984,0 -0.428751,-0.211229 -0.428751,-0.480111 0,-0.268631 0.216767,-0.492951 0.428751,-0.492951 0.211732,0 0.383434,0.217774 0.383434,0.486405"
           id="path114" />
      </g>
    </g>
  </g>
</svg>
